<?xml version="1.0" encoding="utf-8" standalone="no"?>
<!DOCTYPE svg PUBLIC "-//W3C//DTD SVG 1.1//EN"
  "http://www.w3.org/Graphics/SVG/1.1/DTD/svg11.dtd">
<!-- Created with matplotlib (https://matplotlib.org/) -->
<svg height="720pt" version="1.1" viewBox="0 0 1152 720" width="1152pt" xmlns="http://www.w3.org/2000/svg" xmlns:xlink="http://www.w3.org/1999/xlink">
 <metadata>
  <rdf:RDF xmlns:cc="http://creativecommons.org/ns#" xmlns:dc="http://purl.org/dc/elements/1.1/" xmlns:rdf="http://www.w3.org/1999/02/22-rdf-syntax-ns#">
   <cc:Work>
    <dc:type rdf:resource="http://purl.org/dc/dcmitype/StillImage"/>
    <dc:date>2024-12-30T15:12:18.792546</dc:date>
    <dc:format>image/svg+xml</dc:format>
    <dc:creator>
     <cc:Agent>
      <dc:title>Matplotlib v3.3.3, https://matplotlib.org/</dc:title>
     </cc:Agent>
    </dc:creator>
   </cc:Work>
  </rdf:RDF>
 </metadata>
 <defs>
  <style type="text/css">*{stroke-linecap:butt;stroke-linejoin:round;}</style>
 </defs>
 <g id="figure_1">
  <g id="patch_1">
   <path d="M 0 720 
L 1152 720 
L 1152 0 
L 0 0 
z
" style="fill:#ffffff;"/>
  </g>
  <g id="axes_1">
   <g id="patch_2">
    <path d="M 144 206.921739 
L 1036.8 206.921739 
L 1036.8 86.4 
L 144 86.4 
z
" style="fill:#ffffff;"/>
   </g>
   <g id="matplotlib.axis_1">
    <g id="xtick_1">
     <g id="line2d_1">
      <defs>
       <path d="M 0 0 
L 0 3.5 
" id="m7173e0b0d9" style="stroke:#000000;stroke-width:0.8;"/>
      </defs>
      <g>
       <use style="stroke:#000000;stroke-width:0.8;" x="184.581818" xlink:href="#m7173e0b0d9" y="206.921739"/>
      </g>
     </g>
     <g id="text_1">
      <!-- 0 -->
      <g transform="translate(181.400568 221.520177)scale(0.1 -0.1)">
       <defs>
        <path d="M 31.78125 66.40625 
Q 24.171875 66.40625 20.328125 58.90625 
Q 16.5 51.421875 16.5 36.375 
Q 16.5 21.390625 20.328125 13.890625 
Q 24.171875 6.390625 31.78125 6.390625 
Q 39.453125 6.390625 43.28125 13.890625 
Q 47.125 21.390625 47.125 36.375 
Q 47.125 51.421875 43.28125 58.90625 
Q 39.453125 66.40625 31.78125 66.40625 
z
M 31.78125 74.21875 
Q 44.046875 74.21875 50.515625 64.515625 
Q 56.984375 54.828125 56.984375 36.375 
Q 56.984375 17.96875 50.515625 8.265625 
Q 44.046875 -1.421875 31.78125 -1.421875 
Q 19.53125 -1.421875 13.0625 8.265625 
Q 6.59375 17.96875 6.59375 36.375 
Q 6.59375 54.828125 13.0625 64.515625 
Q 19.53125 74.21875 31.78125 74.21875 
z
" id="DejaVuSans-48"/>
       </defs>
       <use xlink:href="#DejaVuSans-48"/>
      </g>
     </g>
    </g>
    <g id="xtick_2">
     <g id="line2d_2">
      <g>
       <use style="stroke:#000000;stroke-width:0.8;" x="319.944787" xlink:href="#m7173e0b0d9" y="206.921739"/>
      </g>
     </g>
     <g id="text_2">
      <!-- 5 -->
      <g transform="translate(316.763537 221.520177)scale(0.1 -0.1)">
       <defs>
        <path d="M 10.796875 72.90625 
L 49.515625 72.90625 
L 49.515625 64.59375 
L 19.828125 64.59375 
L 19.828125 46.734375 
Q 21.96875 47.46875 24.109375 47.828125 
Q 26.265625 48.1875 28.421875 48.1875 
Q 40.625 48.1875 47.75 41.5 
Q 54.890625 34.8125 54.890625 23.390625 
Q 54.890625 11.625 47.5625 5.09375 
Q 40.234375 -1.421875 26.90625 -1.421875 
Q 22.3125 -1.421875 17.546875 -0.640625 
Q 12.796875 0.140625 7.71875 1.703125 
L 7.71875 11.625 
Q 12.109375 9.234375 16.796875 8.0625 
Q 21.484375 6.890625 26.703125 6.890625 
Q 35.15625 6.890625 40.078125 11.328125 
Q 45.015625 15.765625 45.015625 23.390625 
Q 45.015625 31 40.078125 35.4375 
Q 35.15625 39.890625 26.703125 39.890625 
Q 22.75 39.890625 18.8125 39.015625 
Q 14.890625 38.140625 10.796875 36.28125 
z
" id="DejaVuSans-53"/>
       </defs>
       <use xlink:href="#DejaVuSans-53"/>
      </g>
     </g>
    </g>
    <g id="xtick_3">
     <g id="line2d_3">
      <g>
       <use style="stroke:#000000;stroke-width:0.8;" x="455.307757" xlink:href="#m7173e0b0d9" y="206.921739"/>
      </g>
     </g>
     <g id="text_3">
      <!-- 10 -->
      <g transform="translate(448.945257 221.520177)scale(0.1 -0.1)">
       <defs>
        <path d="M 12.40625 8.296875 
L 28.515625 8.296875 
L 28.515625 63.921875 
L 10.984375 60.40625 
L 10.984375 69.390625 
L 28.421875 72.90625 
L 38.28125 72.90625 
L 38.28125 8.296875 
L 54.390625 8.296875 
L 54.390625 0 
L 12.40625 0 
z
" id="DejaVuSans-49"/>
       </defs>
       <use xlink:href="#DejaVuSans-49"/>
       <use x="63.623047" xlink:href="#DejaVuSans-48"/>
      </g>
     </g>
    </g>
    <g id="xtick_4">
     <g id="line2d_4">
      <g>
       <use style="stroke:#000000;stroke-width:0.8;" x="590.670726" xlink:href="#m7173e0b0d9" y="206.921739"/>
      </g>
     </g>
     <g id="text_4">
      <!-- 15 -->
      <g transform="translate(584.308226 221.520177)scale(0.1 -0.1)">
       <use xlink:href="#DejaVuSans-49"/>
       <use x="63.623047" xlink:href="#DejaVuSans-53"/>
      </g>
     </g>
    </g>
    <g id="xtick_5">
     <g id="line2d_5">
      <g>
       <use style="stroke:#000000;stroke-width:0.8;" x="726.033695" xlink:href="#m7173e0b0d9" y="206.921739"/>
      </g>
     </g>
     <g id="text_5">
      <!-- 20 -->
      <g transform="translate(719.671195 221.520177)scale(0.1 -0.1)">
       <defs>
        <path d="M 19.1875 8.296875 
L 53.609375 8.296875 
L 53.609375 0 
L 7.328125 0 
L 7.328125 8.296875 
Q 12.9375 14.109375 22.625 23.890625 
Q 32.328125 33.6875 34.8125 36.53125 
Q 39.546875 41.84375 41.421875 45.53125 
Q 43.3125 49.21875 43.3125 52.78125 
Q 43.3125 58.59375 39.234375 62.25 
Q 35.15625 65.921875 28.609375 65.921875 
Q 23.96875 65.921875 18.8125 64.3125 
Q 13.671875 62.703125 7.8125 59.421875 
L 7.8125 69.390625 
Q 13.765625 71.78125 18.9375 73 
Q 24.125 74.21875 28.421875 74.21875 
Q 39.75 74.21875 46.484375 68.546875 
Q 53.21875 62.890625 53.21875 53.421875 
Q 53.21875 48.921875 51.53125 44.890625 
Q 49.859375 40.875 45.40625 35.40625 
Q 44.1875 33.984375 37.640625 27.21875 
Q 31.109375 20.453125 19.1875 8.296875 
z
" id="DejaVuSans-50"/>
       </defs>
       <use xlink:href="#DejaVuSans-50"/>
       <use x="63.623047" xlink:href="#DejaVuSans-48"/>
      </g>
     </g>
    </g>
    <g id="xtick_6">
     <g id="line2d_6">
      <g>
       <use style="stroke:#000000;stroke-width:0.8;" x="861.396664" xlink:href="#m7173e0b0d9" y="206.921739"/>
      </g>
     </g>
     <g id="text_6">
      <!-- 25 -->
      <g transform="translate(855.034164 221.520177)scale(0.1 -0.1)">
       <use xlink:href="#DejaVuSans-50"/>
       <use x="63.623047" xlink:href="#DejaVuSans-53"/>
      </g>
     </g>
    </g>
    <g id="xtick_7">
     <g id="line2d_7">
      <g>
       <use style="stroke:#000000;stroke-width:0.8;" x="996.759634" xlink:href="#m7173e0b0d9" y="206.921739"/>
      </g>
     </g>
     <g id="text_7">
      <!-- 30 -->
      <g transform="translate(990.397134 221.520177)scale(0.1 -0.1)">
       <defs>
        <path d="M 40.578125 39.3125 
Q 47.65625 37.796875 51.625 33 
Q 55.609375 28.21875 55.609375 21.1875 
Q 55.609375 10.40625 48.1875 4.484375 
Q 40.765625 -1.421875 27.09375 -1.421875 
Q 22.515625 -1.421875 17.65625 -0.515625 
Q 12.796875 0.390625 7.625 2.203125 
L 7.625 11.71875 
Q 11.71875 9.328125 16.59375 8.109375 
Q 21.484375 6.890625 26.8125 6.890625 
Q 36.078125 6.890625 40.9375 10.546875 
Q 45.796875 14.203125 45.796875 21.1875 
Q 45.796875 27.640625 41.28125 31.265625 
Q 36.765625 34.90625 28.71875 34.90625 
L 20.21875 34.90625 
L 20.21875 43.015625 
L 29.109375 43.015625 
Q 36.375 43.015625 40.234375 45.921875 
Q 44.09375 48.828125 44.09375 54.296875 
Q 44.09375 59.90625 40.109375 62.90625 
Q 36.140625 65.921875 28.71875 65.921875 
Q 24.65625 65.921875 20.015625 65.03125 
Q 15.375 64.15625 9.8125 62.3125 
L 9.8125 71.09375 
Q 15.4375 72.65625 20.34375 73.4375 
Q 25.25 74.21875 29.59375 74.21875 
Q 40.828125 74.21875 47.359375 69.109375 
Q 53.90625 64.015625 53.90625 55.328125 
Q 53.90625 49.265625 50.4375 45.09375 
Q 46.96875 40.921875 40.578125 39.3125 
z
" id="DejaVuSans-51"/>
       </defs>
       <use xlink:href="#DejaVuSans-51"/>
       <use x="63.623047" xlink:href="#DejaVuSans-48"/>
      </g>
     </g>
    </g>
   </g>
   <g id="matplotlib.axis_2">
    <g id="ytick_1">
     <g id="line2d_8">
      <defs>
       <path d="M 0 0 
L -3.5 0 
" id="m2efe4cd719" style="stroke:#000000;stroke-width:0.8;"/>
      </defs>
      <g>
       <use style="stroke:#000000;stroke-width:0.8;" x="144" xlink:href="#m2efe4cd719" y="204.036852"/>
      </g>
     </g>
     <g id="text_8">
      <!-- 0.0 -->
      <g transform="translate(121.096875 207.836071)scale(0.1 -0.1)">
       <defs>
        <path d="M 10.6875 12.40625 
L 21 12.40625 
L 21 0 
L 10.6875 0 
z
" id="DejaVuSans-46"/>
       </defs>
       <use xlink:href="#DejaVuSans-48"/>
       <use x="63.623047" xlink:href="#DejaVuSans-46"/>
       <use x="95.410156" xlink:href="#DejaVuSans-48"/>
      </g>
     </g>
    </g>
    <g id="ytick_2">
     <g id="line2d_9">
      <g>
       <use style="stroke:#000000;stroke-width:0.8;" x="144" xlink:href="#m2efe4cd719" y="181.605134"/>
      </g>
     </g>
     <g id="text_9">
      <!-- 0.2 -->
      <g transform="translate(121.096875 185.404353)scale(0.1 -0.1)">
       <use xlink:href="#DejaVuSans-48"/>
       <use x="63.623047" xlink:href="#DejaVuSans-46"/>
       <use x="95.410156" xlink:href="#DejaVuSans-50"/>
      </g>
     </g>
    </g>
    <g id="ytick_3">
     <g id="line2d_10">
      <g>
       <use style="stroke:#000000;stroke-width:0.8;" x="144" xlink:href="#m2efe4cd719" y="159.173416"/>
      </g>
     </g>
     <g id="text_10">
      <!-- 0.4 -->
      <g transform="translate(121.096875 162.972634)scale(0.1 -0.1)">
       <defs>
        <path d="M 37.796875 64.3125 
L 12.890625 25.390625 
L 37.796875 25.390625 
z
M 35.203125 72.90625 
L 47.609375 72.90625 
L 47.609375 25.390625 
L 58.015625 25.390625 
L 58.015625 17.1875 
L 47.609375 17.1875 
L 47.609375 0 
L 37.796875 0 
L 37.796875 17.1875 
L 4.890625 17.1875 
L 4.890625 26.703125 
z
" id="DejaVuSans-52"/>
       </defs>
       <use xlink:href="#DejaVuSans-48"/>
       <use x="63.623047" xlink:href="#DejaVuSans-46"/>
       <use x="95.410156" xlink:href="#DejaVuSans-52"/>
      </g>
     </g>
    </g>
    <g id="ytick_4">
     <g id="line2d_11">
      <g>
       <use style="stroke:#000000;stroke-width:0.8;" x="144" xlink:href="#m2efe4cd719" y="136.741697"/>
      </g>
     </g>
     <g id="text_11">
      <!-- 0.6 -->
      <g transform="translate(121.096875 140.540916)scale(0.1 -0.1)">
       <defs>
        <path d="M 33.015625 40.375 
Q 26.375 40.375 22.484375 35.828125 
Q 18.609375 31.296875 18.609375 23.390625 
Q 18.609375 15.53125 22.484375 10.953125 
Q 26.375 6.390625 33.015625 6.390625 
Q 39.65625 6.390625 43.53125 10.953125 
Q 47.40625 15.53125 47.40625 23.390625 
Q 47.40625 31.296875 43.53125 35.828125 
Q 39.65625 40.375 33.015625 40.375 
z
M 52.59375 71.296875 
L 52.59375 62.3125 
Q 48.875 64.0625 45.09375 64.984375 
Q 41.3125 65.921875 37.59375 65.921875 
Q 27.828125 65.921875 22.671875 59.328125 
Q 17.53125 52.734375 16.796875 39.40625 
Q 19.671875 43.65625 24.015625 45.921875 
Q 28.375 48.1875 33.59375 48.1875 
Q 44.578125 48.1875 50.953125 41.515625 
Q 57.328125 34.859375 57.328125 23.390625 
Q 57.328125 12.15625 50.6875 5.359375 
Q 44.046875 -1.421875 33.015625 -1.421875 
Q 20.359375 -1.421875 13.671875 8.265625 
Q 6.984375 17.96875 6.984375 36.375 
Q 6.984375 53.65625 15.1875 63.9375 
Q 23.390625 74.21875 37.203125 74.21875 
Q 40.921875 74.21875 44.703125 73.484375 
Q 48.484375 72.75 52.59375 71.296875 
z
" id="DejaVuSans-54"/>
       </defs>
       <use xlink:href="#DejaVuSans-48"/>
       <use x="63.623047" xlink:href="#DejaVuSans-46"/>
       <use x="95.410156" xlink:href="#DejaVuSans-54"/>
      </g>
     </g>
    </g>
    <g id="ytick_5">
     <g id="line2d_12">
      <g>
       <use style="stroke:#000000;stroke-width:0.8;" x="144" xlink:href="#m2efe4cd719" y="114.309979"/>
      </g>
     </g>
     <g id="text_12">
      <!-- 0.8 -->
      <g transform="translate(121.096875 118.109198)scale(0.1 -0.1)">
       <defs>
        <path d="M 31.78125 34.625 
Q 24.75 34.625 20.71875 30.859375 
Q 16.703125 27.09375 16.703125 20.515625 
Q 16.703125 13.921875 20.71875 10.15625 
Q 24.75 6.390625 31.78125 6.390625 
Q 38.8125 6.390625 42.859375 10.171875 
Q 46.921875 13.96875 46.921875 20.515625 
Q 46.921875 27.09375 42.890625 30.859375 
Q 38.875 34.625 31.78125 34.625 
z
M 21.921875 38.8125 
Q 15.578125 40.375 12.03125 44.71875 
Q 8.5 49.078125 8.5 55.328125 
Q 8.5 64.0625 14.71875 69.140625 
Q 20.953125 74.21875 31.78125 74.21875 
Q 42.671875 74.21875 48.875 69.140625 
Q 55.078125 64.0625 55.078125 55.328125 
Q 55.078125 49.078125 51.53125 44.71875 
Q 48 40.375 41.703125 38.8125 
Q 48.828125 37.15625 52.796875 32.3125 
Q 56.78125 27.484375 56.78125 20.515625 
Q 56.78125 9.90625 50.3125 4.234375 
Q 43.84375 -1.421875 31.78125 -1.421875 
Q 19.734375 -1.421875 13.25 4.234375 
Q 6.78125 9.90625 6.78125 20.515625 
Q 6.78125 27.484375 10.78125 32.3125 
Q 14.796875 37.15625 21.921875 38.8125 
z
M 18.3125 54.390625 
Q 18.3125 48.734375 21.84375 45.5625 
Q 25.390625 42.390625 31.78125 42.390625 
Q 38.140625 42.390625 41.71875 45.5625 
Q 45.3125 48.734375 45.3125 54.390625 
Q 45.3125 60.0625 41.71875 63.234375 
Q 38.140625 66.40625 31.78125 66.40625 
Q 25.390625 66.40625 21.84375 63.234375 
Q 18.3125 60.0625 18.3125 54.390625 
z
" id="DejaVuSans-56"/>
       </defs>
       <use xlink:href="#DejaVuSans-48"/>
       <use x="63.623047" xlink:href="#DejaVuSans-46"/>
       <use x="95.410156" xlink:href="#DejaVuSans-56"/>
      </g>
     </g>
    </g>
    <g id="ytick_6">
     <g id="line2d_13">
      <g>
       <use style="stroke:#000000;stroke-width:0.8;" x="144" xlink:href="#m2efe4cd719" y="91.878261"/>
      </g>
     </g>
     <g id="text_13">
      <!-- 1.0 -->
      <g transform="translate(121.096875 95.67748)scale(0.1 -0.1)">
       <use xlink:href="#DejaVuSans-49"/>
       <use x="63.623047" xlink:href="#DejaVuSans-46"/>
       <use x="95.410156" xlink:href="#DejaVuSans-48"/>
      </g>
     </g>
    </g>
   </g>
   <g id="line2d_14">
    <path clip-path="url(#pe5b56565bc)" d="M 184.581818 171.062539 
L 996.218182 171.062539 
L 996.218182 171.062539 
" style="fill:none;stroke:#1f77b4;stroke-linecap:square;stroke-width:1.5;"/>
   </g>
   <g id="line2d_15">
    <path clip-path="url(#pe5b56565bc)" d="M 184.581818 171.062539 
L 185.12327 91.878261 
L 185.664722 91.878261 
L 186.206174 99.677322 
L 186.747626 197.839853 
L 187.289078 178.639876 
L 187.830529 175.672038 
L 188.371981 175.426524 
L 193.245048 174.679418 
L 200.283923 173.828901 
L 208.405701 173.095283 
L 217.610383 172.497669 
L 228.980872 171.997102 
L 243.058621 171.612649 
L 262.009437 171.332373 
L 290.706386 171.154403 
L 346.475929 171.073869 
L 347.017381 171.073642 
L 347.558833 91.878261 
L 348.100285 113.579057 
L 348.641737 157.806605 
L 349.183189 180.155276 
L 349.724641 196.802489 
L 350.266093 199.825725 
L 350.807544 201.443478 
L 351.348996 200.960761 
L 351.890448 200.936144 
L 352.4319 200.578243 
L 352.973352 199.303825 
L 353.514804 197.361653 
L 354.597708 191.539205 
L 356.763515 178.804325 
L 357.846419 173.852232 
L 358.929323 170.339503 
L 359.470774 169.139841 
L 360.012226 168.296507 
L 360.553678 167.784756 
L 361.09513 167.568863 
L 361.636582 167.602662 
L 362.178034 167.831976 
L 363.260938 168.645757 
L 364.885293 170.006334 
L 365.968197 170.652296 
L 367.051101 171.017134 
L 368.134004 171.153057 
L 369.75836 171.111691 
L 374.631427 170.838009 
L 381.670301 170.881927 
L 411.450155 171.020145 
L 480.755995 171.062118 
L 509.452944 171.049429 
L 509.994396 91.878261 
L 510.535848 114.457029 
L 511.0773 157.341141 
L 511.618752 180.54357 
L 512.160204 196.64436 
L 512.701656 199.931291 
L 513.243108 201.436579 
L 513.784559 200.977893 
L 514.326011 200.850055 
L 514.867463 200.428839 
L 515.408915 199.074743 
L 515.950367 197.075005 
L 517.033271 191.182223 
L 519.199078 178.492224 
L 520.281982 173.612372 
L 521.364886 170.1808 
L 521.906338 169.021186 
L 522.447789 168.215917 
L 522.989241 167.739062 
L 523.530693 167.553724 
L 524.072145 167.612721 
L 524.613597 167.861208 
L 525.696501 168.695063 
L 527.320856 170.050915 
L 528.40376 170.683173 
L 529.486664 171.034152 
L 530.569568 171.159488 
L 532.193923 171.109674 
L 536.525538 170.84473 
L 541.940057 170.86066 
L 566.846843 171.000811 
L 621.533483 171.05994 
L 671.888507 171.045085 
L 672.429959 91.878261 
L 672.971411 114.531293 
L 673.512863 157.334479 
L 674.054315 180.576665 
L 674.595767 196.634019 
L 675.137219 199.934693 
L 675.678671 201.428753 
L 676.220123 200.971831 
L 676.761574 200.838486 
L 677.303026 200.41238 
L 677.844478 199.054084 
L 678.38593 197.050397 
L 679.468834 191.155545 
L 681.634641 178.47503 
L 682.717545 173.602613 
L 683.800449 170.178277 
L 684.341901 169.021859 
L 684.883353 168.219339 
L 685.424804 167.744668 
L 685.966256 167.560864 
L 686.507708 167.620702 
L 687.04916 167.869357 
L 688.132064 168.701899 
L 689.756419 170.053884 
L 690.839323 170.683856 
L 691.922227 171.033387 
L 693.005131 171.158115 
L 694.629486 171.108432 
L 698.961101 170.844782 
L 704.37562 170.86079 
L 729.823858 171.002527 
L 785.05195 171.060125 
L 834.324071 171.045105 
L 834.865522 91.878261 
L 835.406974 114.53063 
L 835.948426 157.334563 
L 836.489878 180.576302 
L 837.03133 196.6341 
L 837.572782 199.934655 
L 838.114234 201.428825 
L 838.655686 200.971899 
L 839.197137 200.838627 
L 839.738589 200.412572 
L 840.280041 199.054326 
L 840.821493 197.050675 
L 841.904397 191.155843 
L 844.070204 178.475233 
L 845.153108 173.602744 
L 846.236012 170.178339 
L 846.777464 169.02189 
L 847.318916 168.219341 
L 847.860368 167.744647 
L 848.401819 167.560825 
L 848.943271 167.620651 
L 849.484723 167.869299 
L 850.567627 168.701842 
L 852.191983 170.05385 
L 853.274886 170.683839 
L 854.35779 171.033383 
L 855.440694 171.158118 
L 857.065049 171.108437 
L 861.396664 170.844781 
L 866.811183 170.860789 
L 892.259421 171.002526 
L 947.487513 171.060125 
L 996.218182 171.062626 
L 996.218182 171.062626 
" style="fill:none;stroke:#ff7f0e;stroke-linecap:square;stroke-width:1.5;"/>
   </g>
   <g id="patch_3">
    <path d="M 144 206.921739 
L 144 86.4 
" style="fill:none;stroke:#000000;stroke-linecap:square;stroke-linejoin:miter;stroke-width:0.8;"/>
   </g>
   <g id="patch_4">
    <path d="M 1036.8 206.921739 
L 1036.8 86.4 
" style="fill:none;stroke:#000000;stroke-linecap:square;stroke-linejoin:miter;stroke-width:0.8;"/>
   </g>
   <g id="patch_5">
    <path d="M 144 206.921739 
L 1036.8 206.921739 
" style="fill:none;stroke:#000000;stroke-linecap:square;stroke-linejoin:miter;stroke-width:0.8;"/>
   </g>
   <g id="patch_6">
    <path d="M 144 86.4 
L 1036.8 86.4 
" style="fill:none;stroke:#000000;stroke-linecap:square;stroke-linejoin:miter;stroke-width:0.8;"/>
   </g>
   <g id="legend_1">
    <g id="patch_7">
     <path d="M 988.479687 123.75625 
L 1029.8 123.75625 
Q 1031.8 123.75625 1031.8 121.75625 
L 1031.8 93.4 
Q 1031.8 91.4 1029.8 91.4 
L 988.479687 91.4 
Q 986.479687 91.4 986.479687 93.4 
L 986.479687 121.75625 
Q 986.479687 123.75625 988.479687 123.75625 
z
" style="fill:#ffffff;opacity:0.8;stroke:#cccccc;stroke-linejoin:miter;"/>
    </g>
    <g id="line2d_16">
     <path d="M 990.479687 99.498438 
L 1010.479687 99.498438 
" style="fill:none;stroke:#1f77b4;stroke-linecap:square;stroke-width:1.5;"/>
    </g>
    <g id="line2d_17"/>
    <g id="text_14">
     <!-- sr -->
     <g transform="translate(1018.479687 102.998438)scale(0.1 -0.1)">
      <defs>
       <path d="M 44.28125 53.078125 
L 44.28125 44.578125 
Q 40.484375 46.53125 36.375 47.5 
Q 32.28125 48.484375 27.875 48.484375 
Q 21.1875 48.484375 17.84375 46.4375 
Q 14.5 44.390625 14.5 40.28125 
Q 14.5 37.15625 16.890625 35.375 
Q 19.28125 33.59375 26.515625 31.984375 
L 29.59375 31.296875 
Q 39.15625 29.25 43.1875 25.515625 
Q 47.21875 21.78125 47.21875 15.09375 
Q 47.21875 7.46875 41.1875 3.015625 
Q 35.15625 -1.421875 24.609375 -1.421875 
Q 20.21875 -1.421875 15.453125 -0.5625 
Q 10.6875 0.296875 5.421875 2 
L 5.421875 11.28125 
Q 10.40625 8.6875 15.234375 7.390625 
Q 20.0625 6.109375 24.8125 6.109375 
Q 31.15625 6.109375 34.5625 8.28125 
Q 37.984375 10.453125 37.984375 14.40625 
Q 37.984375 18.0625 35.515625 20.015625 
Q 33.0625 21.96875 24.703125 23.78125 
L 21.578125 24.515625 
Q 13.234375 26.265625 9.515625 29.90625 
Q 5.8125 33.546875 5.8125 39.890625 
Q 5.8125 47.609375 11.28125 51.796875 
Q 16.75 56 26.8125 56 
Q 31.78125 56 36.171875 55.265625 
Q 40.578125 54.546875 44.28125 53.078125 
z
" id="DejaVuSans-115"/>
       <path d="M 41.109375 46.296875 
Q 39.59375 47.171875 37.8125 47.578125 
Q 36.03125 48 33.890625 48 
Q 26.265625 48 22.1875 43.046875 
Q 18.109375 38.09375 18.109375 28.8125 
L 18.109375 0 
L 9.078125 0 
L 9.078125 54.6875 
L 18.109375 54.6875 
L 18.109375 46.1875 
Q 20.953125 51.171875 25.484375 53.578125 
Q 30.03125 56 36.53125 56 
Q 37.453125 56 38.578125 55.875 
Q 39.703125 55.765625 41.0625 55.515625 
z
" id="DejaVuSans-114"/>
      </defs>
      <use xlink:href="#DejaVuSans-115"/>
      <use x="52.099609" xlink:href="#DejaVuSans-114"/>
     </g>
    </g>
    <g id="line2d_18">
     <path d="M 990.479687 114.176563 
L 1010.479687 114.176563 
" style="fill:none;stroke:#ff7f0e;stroke-linecap:square;stroke-width:1.5;"/>
    </g>
    <g id="line2d_19"/>
    <g id="text_15">
     <!-- s -->
     <g transform="translate(1018.479687 117.676563)scale(0.1 -0.1)">
      <use xlink:href="#DejaVuSans-115"/>
     </g>
    </g>
   </g>
  </g>
  <g id="axes_2">
   <g id="patch_8">
    <path d="M 144 351.547826 
L 1036.8 351.547826 
L 1036.8 231.026087 
L 144 231.026087 
z
" style="fill:#ffffff;"/>
   </g>
   <g id="matplotlib.axis_3">
    <g id="xtick_8">
     <g id="line2d_20">
      <g>
       <use style="stroke:#000000;stroke-width:0.8;" x="184.581818" xlink:href="#m7173e0b0d9" y="351.547826"/>
      </g>
     </g>
     <g id="text_16">
      <!-- 0 -->
      <g transform="translate(181.400568 366.146264)scale(0.1 -0.1)">
       <use xlink:href="#DejaVuSans-48"/>
      </g>
     </g>
    </g>
    <g id="xtick_9">
     <g id="line2d_21">
      <g>
       <use style="stroke:#000000;stroke-width:0.8;" x="319.944787" xlink:href="#m7173e0b0d9" y="351.547826"/>
      </g>
     </g>
     <g id="text_17">
      <!-- 5 -->
      <g transform="translate(316.763537 366.146264)scale(0.1 -0.1)">
       <use xlink:href="#DejaVuSans-53"/>
      </g>
     </g>
    </g>
    <g id="xtick_10">
     <g id="line2d_22">
      <g>
       <use style="stroke:#000000;stroke-width:0.8;" x="455.307757" xlink:href="#m7173e0b0d9" y="351.547826"/>
      </g>
     </g>
     <g id="text_18">
      <!-- 10 -->
      <g transform="translate(448.945257 366.146264)scale(0.1 -0.1)">
       <use xlink:href="#DejaVuSans-49"/>
       <use x="63.623047" xlink:href="#DejaVuSans-48"/>
      </g>
     </g>
    </g>
    <g id="xtick_11">
     <g id="line2d_23">
      <g>
       <use style="stroke:#000000;stroke-width:0.8;" x="590.670726" xlink:href="#m7173e0b0d9" y="351.547826"/>
      </g>
     </g>
     <g id="text_19">
      <!-- 15 -->
      <g transform="translate(584.308226 366.146264)scale(0.1 -0.1)">
       <use xlink:href="#DejaVuSans-49"/>
       <use x="63.623047" xlink:href="#DejaVuSans-53"/>
      </g>
     </g>
    </g>
    <g id="xtick_12">
     <g id="line2d_24">
      <g>
       <use style="stroke:#000000;stroke-width:0.8;" x="726.033695" xlink:href="#m7173e0b0d9" y="351.547826"/>
      </g>
     </g>
     <g id="text_20">
      <!-- 20 -->
      <g transform="translate(719.671195 366.146264)scale(0.1 -0.1)">
       <use xlink:href="#DejaVuSans-50"/>
       <use x="63.623047" xlink:href="#DejaVuSans-48"/>
      </g>
     </g>
    </g>
    <g id="xtick_13">
     <g id="line2d_25">
      <g>
       <use style="stroke:#000000;stroke-width:0.8;" x="861.396664" xlink:href="#m7173e0b0d9" y="351.547826"/>
      </g>
     </g>
     <g id="text_21">
      <!-- 25 -->
      <g transform="translate(855.034164 366.146264)scale(0.1 -0.1)">
       <use xlink:href="#DejaVuSans-50"/>
       <use x="63.623047" xlink:href="#DejaVuSans-53"/>
      </g>
     </g>
    </g>
    <g id="xtick_14">
     <g id="line2d_26">
      <g>
       <use style="stroke:#000000;stroke-width:0.8;" x="996.759634" xlink:href="#m7173e0b0d9" y="351.547826"/>
      </g>
     </g>
     <g id="text_22">
      <!-- 30 -->
      <g transform="translate(990.397134 366.146264)scale(0.1 -0.1)">
       <use xlink:href="#DejaVuSans-51"/>
       <use x="63.623047" xlink:href="#DejaVuSans-48"/>
      </g>
     </g>
    </g>
   </g>
   <g id="matplotlib.axis_4">
    <g id="ytick_7">
     <g id="line2d_27">
      <g>
       <use style="stroke:#000000;stroke-width:0.8;" x="144" xlink:href="#m2efe4cd719" y="348.641325"/>
      </g>
     </g>
     <g id="text_23">
      <!-- −4 -->
      <g transform="translate(122.257812 352.440544)scale(0.1 -0.1)">
       <defs>
        <path d="M 10.59375 35.5 
L 73.1875 35.5 
L 73.1875 27.203125 
L 10.59375 27.203125 
z
" id="DejaVuSans-8722"/>
       </defs>
       <use xlink:href="#DejaVuSans-8722"/>
       <use x="83.789062" xlink:href="#DejaVuSans-52"/>
      </g>
     </g>
    </g>
    <g id="ytick_8">
     <g id="line2d_28">
      <g>
       <use style="stroke:#000000;stroke-width:0.8;" x="144" xlink:href="#m2efe4cd719" y="321.795399"/>
      </g>
     </g>
     <g id="text_24">
      <!-- −2 -->
      <g transform="translate(122.257812 325.594618)scale(0.1 -0.1)">
       <use xlink:href="#DejaVuSans-8722"/>
       <use x="83.789062" xlink:href="#DejaVuSans-50"/>
      </g>
     </g>
    </g>
    <g id="ytick_9">
     <g id="line2d_29">
      <g>
       <use style="stroke:#000000;stroke-width:0.8;" x="144" xlink:href="#m2efe4cd719" y="294.949473"/>
      </g>
     </g>
     <g id="text_25">
      <!-- 0 -->
      <g transform="translate(130.6375 298.748692)scale(0.1 -0.1)">
       <use xlink:href="#DejaVuSans-48"/>
      </g>
     </g>
    </g>
    <g id="ytick_10">
     <g id="line2d_30">
      <g>
       <use style="stroke:#000000;stroke-width:0.8;" x="144" xlink:href="#m2efe4cd719" y="268.103548"/>
      </g>
     </g>
     <g id="text_26">
      <!-- 2 -->
      <g transform="translate(130.6375 271.902766)scale(0.1 -0.1)">
       <use xlink:href="#DejaVuSans-50"/>
      </g>
     </g>
    </g>
    <g id="ytick_11">
     <g id="line2d_31">
      <g>
       <use style="stroke:#000000;stroke-width:0.8;" x="144" xlink:href="#m2efe4cd719" y="241.257622"/>
      </g>
     </g>
     <g id="text_27">
      <!-- 4 -->
      <g transform="translate(130.6375 245.056841)scale(0.1 -0.1)">
       <use xlink:href="#DejaVuSans-52"/>
      </g>
     </g>
    </g>
   </g>
   <g id="line2d_32">
    <path clip-path="url(#p249f795180)" d="M 184.581818 294.949473 
L 996.218182 294.949473 
L 996.218182 294.949473 
" style="fill:none;stroke:#1f77b4;stroke-linecap:square;stroke-width:1.5;"/>
   </g>
   <g id="line2d_33">
    <path clip-path="url(#p249f795180)" d="M 184.581818 294.949473 
L 347.017381 294.949473 
L 347.558833 340.699093 
L 348.100285 344.647599 
L 348.641737 310.854464 
L 349.183189 285.053617 
L 349.724641 278.07134 
L 350.266093 268.536324 
L 350.807544 261.287075 
L 351.348996 244.369447 
L 351.890448 239.132805 
L 352.4319 236.504348 
L 352.973352 237.521026 
L 353.514804 241.103181 
L 354.056256 246.268852 
L 355.680611 265.982414 
L 357.304967 284.773323 
L 358.387871 294.403795 
L 358.929323 298.006785 
L 359.470774 300.72724 
L 360.012226 302.56327 
L 360.553678 303.559065 
L 361.09513 303.803785 
L 361.636582 303.424502 
L 362.178034 302.573791 
L 363.260938 300.098067 
L 364.343841 297.505761 
L 365.426745 295.494339 
L 365.968197 294.791813 
L 366.509649 294.289757 
L 367.051101 293.968317 
L 367.592553 293.799703 
L 368.675456 293.796621 
L 370.299812 294.207209 
L 372.46562 294.781481 
L 374.089975 295.014518 
L 376.797235 295.11873 
L 410.908703 295.051175 
L 509.452944 294.895623 
L 509.994396 337.388809 
L 510.535848 346.069565 
L 511.618752 285.669768 
L 513.243108 260.613152 
L 513.784559 244.286593 
L 514.326011 239.242986 
L 514.867463 236.917488 
L 515.408915 238.102436 
L 515.950367 241.832604 
L 517.033271 253.346192 
L 519.74053 285.436331 
L 520.823434 294.8997 
L 521.364886 298.405936 
L 521.906338 301.026337 
L 522.447789 302.763978 
L 522.989241 303.668186 
L 523.530693 303.832882 
L 524.072145 303.388855 
L 524.613597 302.490805 
L 525.696501 299.971986 
L 526.779404 297.390014 
L 527.862308 295.415911 
L 528.40376 294.734747 
L 528.945212 294.253107 
L 529.486664 293.949884 
L 530.028116 293.796594 
L 531.111019 293.81476 
L 532.735375 294.237227 
L 534.901183 294.80732 
L 536.525538 295.033732 
L 539.232798 295.130294 
L 671.347056 294.960559 
L 671.888507 294.913276 
L 672.429959 337.361265 
L 672.971411 345.985186 
L 674.054315 285.662957 
L 675.678671 260.575153 
L 676.220123 244.276251 
L 676.761574 239.239759 
L 677.303026 236.929168 
L 677.844478 238.124855 
L 678.38593 241.86283 
L 679.468834 253.384656 
L 682.176093 285.460798 
L 683.258997 294.910095 
L 683.800449 298.408888 
L 684.341901 301.022226 
L 684.883353 302.753677 
L 685.424804 303.653004 
L 685.966256 303.814438 
L 686.507708 303.368901 
L 687.04916 302.471019 
L 688.132064 299.956443 
L 689.214968 297.381235 
L 690.297871 295.413511 
L 690.839323 294.734841 
L 691.380775 294.255114 
L 691.922227 293.953226 
L 692.463679 293.800741 
L 693.546583 293.819244 
L 695.170938 294.2404 
L 697.336746 294.808287 
L 698.961101 295.033772 
L 701.668361 295.130014 
L 789.383565 294.98097 
L 834.324071 294.913245 
L 834.865522 337.362885 
L 835.406974 345.984885 
L 836.489878 285.662782 
L 838.114234 260.575552 
L 838.655686 244.276241 
L 839.197137 239.239611 
L 839.738589 236.928814 
L 840.280041 238.124382 
L 840.821493 241.862269 
L 841.904397 253.384048 
L 844.611656 285.460422 
L 845.69456 294.909872 
L 846.236012 298.408743 
L 846.777464 301.022157 
L 847.318916 302.753677 
L 847.860368 303.653061 
L 848.401819 303.814539 
L 848.943271 303.369031 
L 849.484723 302.471162 
L 850.567627 299.956574 
L 851.650531 297.381322 
L 852.733434 295.413549 
L 853.274886 294.734857 
L 853.816338 294.255113 
L 854.35779 293.953211 
L 854.899242 293.800715 
L 855.982146 293.819209 
L 857.606501 294.240368 
L 859.772309 294.808269 
L 861.396664 295.033762 
L 864.103924 295.130009 
L 951.819128 294.98097 
L 996.218182 294.960554 
L 996.218182 294.960554 
" style="fill:none;stroke:#ff7f0e;stroke-linecap:square;stroke-width:1.5;"/>
   </g>
   <g id="patch_9">
    <path d="M 144 351.547826 
L 144 231.026087 
" style="fill:none;stroke:#000000;stroke-linecap:square;stroke-linejoin:miter;stroke-width:0.8;"/>
   </g>
   <g id="patch_10">
    <path d="M 1036.8 351.547826 
L 1036.8 231.026087 
" style="fill:none;stroke:#000000;stroke-linecap:square;stroke-linejoin:miter;stroke-width:0.8;"/>
   </g>
   <g id="patch_11">
    <path d="M 144 351.547826 
L 1036.8 351.547826 
" style="fill:none;stroke:#000000;stroke-linecap:square;stroke-linejoin:miter;stroke-width:0.8;"/>
   </g>
   <g id="patch_12">
    <path d="M 144 231.026087 
L 1036.8 231.026087 
" style="fill:none;stroke:#000000;stroke-linecap:square;stroke-linejoin:miter;stroke-width:0.8;"/>
   </g>
   <g id="legend_2">
    <g id="patch_13">
     <path d="M 979.592187 268.382337 
L 1029.8 268.382337 
Q 1031.8 268.382337 1031.8 266.382337 
L 1031.8 238.026087 
Q 1031.8 236.026087 1029.8 236.026087 
L 979.592187 236.026087 
Q 977.592187 236.026087 977.592187 238.026087 
L 977.592187 266.382337 
Q 977.592187 268.382337 979.592187 268.382337 
z
" style="fill:#ffffff;opacity:0.8;stroke:#cccccc;stroke-linejoin:miter;"/>
    </g>
    <g id="line2d_34">
     <path d="M 981.592187 244.124524 
L 1001.592187 244.124524 
" style="fill:none;stroke:#1f77b4;stroke-linecap:square;stroke-width:1.5;"/>
    </g>
    <g id="line2d_35"/>
    <g id="text_28">
     <!-- wxr -->
     <g transform="translate(1009.592187 247.624524)scale(0.1 -0.1)">
      <defs>
       <path d="M 4.203125 54.6875 
L 13.1875 54.6875 
L 24.421875 12.015625 
L 35.59375 54.6875 
L 46.1875 54.6875 
L 57.421875 12.015625 
L 68.609375 54.6875 
L 77.59375 54.6875 
L 63.28125 0 
L 52.6875 0 
L 40.921875 44.828125 
L 29.109375 0 
L 18.5 0 
z
" id="DejaVuSans-119"/>
       <path d="M 54.890625 54.6875 
L 35.109375 28.078125 
L 55.90625 0 
L 45.3125 0 
L 29.390625 21.484375 
L 13.484375 0 
L 2.875 0 
L 24.125 28.609375 
L 4.6875 54.6875 
L 15.28125 54.6875 
L 29.78125 35.203125 
L 44.28125 54.6875 
z
" id="DejaVuSans-120"/>
      </defs>
      <use xlink:href="#DejaVuSans-119"/>
      <use x="81.787109" xlink:href="#DejaVuSans-120"/>
      <use x="140.966797" xlink:href="#DejaVuSans-114"/>
     </g>
    </g>
    <g id="line2d_36">
     <path d="M 981.592187 258.802649 
L 1001.592187 258.802649 
" style="fill:none;stroke:#ff7f0e;stroke-linecap:square;stroke-width:1.5;"/>
    </g>
    <g id="line2d_37"/>
    <g id="text_29">
     <!-- wx -->
     <g transform="translate(1009.592187 262.302649)scale(0.1 -0.1)">
      <use xlink:href="#DejaVuSans-119"/>
      <use x="81.787109" xlink:href="#DejaVuSans-120"/>
     </g>
    </g>
   </g>
  </g>
  <g id="axes_3">
   <g id="patch_14">
    <path d="M 144 496.173913 
L 1036.8 496.173913 
L 1036.8 375.652174 
L 144 375.652174 
z
" style="fill:#ffffff;"/>
   </g>
   <g id="matplotlib.axis_5">
    <g id="xtick_15">
     <g id="line2d_38">
      <g>
       <use style="stroke:#000000;stroke-width:0.8;" x="184.581818" xlink:href="#m7173e0b0d9" y="496.173913"/>
      </g>
     </g>
     <g id="text_30">
      <!-- 0 -->
      <g transform="translate(181.400568 510.772351)scale(0.1 -0.1)">
       <use xlink:href="#DejaVuSans-48"/>
      </g>
     </g>
    </g>
    <g id="xtick_16">
     <g id="line2d_39">
      <g>
       <use style="stroke:#000000;stroke-width:0.8;" x="319.944787" xlink:href="#m7173e0b0d9" y="496.173913"/>
      </g>
     </g>
     <g id="text_31">
      <!-- 5 -->
      <g transform="translate(316.763537 510.772351)scale(0.1 -0.1)">
       <use xlink:href="#DejaVuSans-53"/>
      </g>
     </g>
    </g>
    <g id="xtick_17">
     <g id="line2d_40">
      <g>
       <use style="stroke:#000000;stroke-width:0.8;" x="455.307757" xlink:href="#m7173e0b0d9" y="496.173913"/>
      </g>
     </g>
     <g id="text_32">
      <!-- 10 -->
      <g transform="translate(448.945257 510.772351)scale(0.1 -0.1)">
       <use xlink:href="#DejaVuSans-49"/>
       <use x="63.623047" xlink:href="#DejaVuSans-48"/>
      </g>
     </g>
    </g>
    <g id="xtick_18">
     <g id="line2d_41">
      <g>
       <use style="stroke:#000000;stroke-width:0.8;" x="590.670726" xlink:href="#m7173e0b0d9" y="496.173913"/>
      </g>
     </g>
     <g id="text_33">
      <!-- 15 -->
      <g transform="translate(584.308226 510.772351)scale(0.1 -0.1)">
       <use xlink:href="#DejaVuSans-49"/>
       <use x="63.623047" xlink:href="#DejaVuSans-53"/>
      </g>
     </g>
    </g>
    <g id="xtick_19">
     <g id="line2d_42">
      <g>
       <use style="stroke:#000000;stroke-width:0.8;" x="726.033695" xlink:href="#m7173e0b0d9" y="496.173913"/>
      </g>
     </g>
     <g id="text_34">
      <!-- 20 -->
      <g transform="translate(719.671195 510.772351)scale(0.1 -0.1)">
       <use xlink:href="#DejaVuSans-50"/>
       <use x="63.623047" xlink:href="#DejaVuSans-48"/>
      </g>
     </g>
    </g>
    <g id="xtick_20">
     <g id="line2d_43">
      <g>
       <use style="stroke:#000000;stroke-width:0.8;" x="861.396664" xlink:href="#m7173e0b0d9" y="496.173913"/>
      </g>
     </g>
     <g id="text_35">
      <!-- 25 -->
      <g transform="translate(855.034164 510.772351)scale(0.1 -0.1)">
       <use xlink:href="#DejaVuSans-50"/>
       <use x="63.623047" xlink:href="#DejaVuSans-53"/>
      </g>
     </g>
    </g>
    <g id="xtick_21">
     <g id="line2d_44">
      <g>
       <use style="stroke:#000000;stroke-width:0.8;" x="996.759634" xlink:href="#m7173e0b0d9" y="496.173913"/>
      </g>
     </g>
     <g id="text_36">
      <!-- 30 -->
      <g transform="translate(990.397134 510.772351)scale(0.1 -0.1)">
       <use xlink:href="#DejaVuSans-51"/>
       <use x="63.623047" xlink:href="#DejaVuSans-48"/>
      </g>
     </g>
    </g>
   </g>
   <g id="matplotlib.axis_6">
    <g id="ytick_12">
     <g id="line2d_45">
      <g>
       <use style="stroke:#000000;stroke-width:0.8;" x="144" xlink:href="#m2efe4cd719" y="495.913734"/>
      </g>
     </g>
     <g id="text_37">
      <!-- −20 -->
      <g transform="translate(115.895313 499.712953)scale(0.1 -0.1)">
       <use xlink:href="#DejaVuSans-8722"/>
       <use x="83.789062" xlink:href="#DejaVuSans-50"/>
       <use x="147.412109" xlink:href="#DejaVuSans-48"/>
      </g>
     </g>
    </g>
    <g id="ytick_13">
     <g id="line2d_46">
      <g>
       <use style="stroke:#000000;stroke-width:0.8;" x="144" xlink:href="#m2efe4cd719" y="473.23518"/>
      </g>
     </g>
     <g id="text_38">
      <!-- −15 -->
      <g transform="translate(115.895313 477.034399)scale(0.1 -0.1)">
       <use xlink:href="#DejaVuSans-8722"/>
       <use x="83.789062" xlink:href="#DejaVuSans-49"/>
       <use x="147.412109" xlink:href="#DejaVuSans-53"/>
      </g>
     </g>
    </g>
    <g id="ytick_14">
     <g id="line2d_47">
      <g>
       <use style="stroke:#000000;stroke-width:0.8;" x="144" xlink:href="#m2efe4cd719" y="450.556626"/>
      </g>
     </g>
     <g id="text_39">
      <!-- −10 -->
      <g transform="translate(115.895313 454.355844)scale(0.1 -0.1)">
       <use xlink:href="#DejaVuSans-8722"/>
       <use x="83.789062" xlink:href="#DejaVuSans-49"/>
       <use x="147.412109" xlink:href="#DejaVuSans-48"/>
      </g>
     </g>
    </g>
    <g id="ytick_15">
     <g id="line2d_48">
      <g>
       <use style="stroke:#000000;stroke-width:0.8;" x="144" xlink:href="#m2efe4cd719" y="427.878072"/>
      </g>
     </g>
     <g id="text_40">
      <!-- −5 -->
      <g transform="translate(122.257812 431.67729)scale(0.1 -0.1)">
       <use xlink:href="#DejaVuSans-8722"/>
       <use x="83.789062" xlink:href="#DejaVuSans-53"/>
      </g>
     </g>
    </g>
    <g id="ytick_16">
     <g id="line2d_49">
      <g>
       <use style="stroke:#000000;stroke-width:0.8;" x="144" xlink:href="#m2efe4cd719" y="405.199518"/>
      </g>
     </g>
     <g id="text_41">
      <!-- 0 -->
      <g transform="translate(130.6375 408.998736)scale(0.1 -0.1)">
       <use xlink:href="#DejaVuSans-48"/>
      </g>
     </g>
    </g>
    <g id="ytick_17">
     <g id="line2d_50">
      <g>
       <use style="stroke:#000000;stroke-width:0.8;" x="144" xlink:href="#m2efe4cd719" y="382.520964"/>
      </g>
     </g>
     <g id="text_42">
      <!-- 5 -->
      <g transform="translate(130.6375 386.320182)scale(0.1 -0.1)">
       <use xlink:href="#DejaVuSans-53"/>
      </g>
     </g>
    </g>
   </g>
   <g id="line2d_51">
    <path clip-path="url(#p15ca9bbe8c)" d="M 184.581818 405.199518 
L 996.218182 405.199518 
L 996.218182 405.199518 
" style="fill:none;stroke:#1f77b4;stroke-linecap:square;stroke-width:1.5;"/>
   </g>
   <g id="line2d_52">
    <path clip-path="url(#p15ca9bbe8c)" d="M 184.581818 405.199518 
L 346.475929 405.199518 
L 347.017381 490.695652 
L 348.100285 448.821882 
L 348.641737 409.913645 
L 349.183189 383.460041 
L 349.724641 382.322278 
L 350.266093 381.44799 
L 350.807544 384.50937 
L 351.348996 396.096346 
L 352.4319 404.681766 
L 352.973352 406.813565 
L 353.514804 408.109689 
L 354.056256 408.325767 
L 354.597708 408.033179 
L 355.680611 406.988231 
L 356.763515 406.341765 
L 357.846419 406.096981 
L 362.178034 405.714907 
L 365.426745 405.62947 
L 371.924168 405.502017 
L 383.294657 405.284298 
L 400.079665 405.201665 
L 508.911493 405.199253 
L 509.452944 490.695652 
L 510.535848 447.904392 
L 511.0773 408.477633 
L 511.618752 383.074774 
L 512.160204 381.686273 
L 512.701656 381.131942 
L 513.243108 384.133183 
L 513.784559 396.193133 
L 514.867463 404.998541 
L 515.408915 407.152599 
L 515.950367 408.435805 
L 516.491819 408.61677 
L 517.033271 408.284926 
L 518.116174 407.16941 
L 519.199078 406.453757 
L 520.281982 406.13946 
L 522.989241 405.794426 
L 525.696501 405.629439 
L 538.149894 405.408702 
L 551.144739 405.235864 
L 575.510073 405.196682 
L 671.347056 405.199167 
L 671.888507 490.695652 
L 672.971411 447.913573 
L 673.512863 408.454943 
L 674.054315 383.078532 
L 674.595767 381.66895 
L 675.137219 381.130435 
L 675.678671 384.128861 
L 676.220123 396.188872 
L 677.303026 404.996294 
L 677.844478 407.151155 
L 678.38593 408.43205 
L 678.927382 408.612839 
L 679.468834 408.281038 
L 680.551738 407.167421 
L 681.634641 406.453162 
L 682.717545 406.139249 
L 685.424804 405.794228 
L 688.132064 405.629634 
L 700.585457 405.408485 
L 713.580302 405.235775 
L 737.945636 405.196684 
L 833.782619 405.199167 
L 834.324071 490.695652 
L 835.406974 447.91409 
L 835.948426 408.455831 
L 836.489878 383.078769 
L 837.03133 381.669289 
L 837.572782 381.130573 
L 838.114234 384.12902 
L 838.655686 396.188818 
L 839.738589 404.996143 
L 840.280041 407.150997 
L 840.821493 408.431909 
L 841.362945 408.612716 
L 841.904397 408.280931 
L 842.987301 407.167339 
L 844.070204 406.453109 
L 845.153108 406.13923 
L 847.860368 405.794256 
L 850.567627 405.629647 
L 863.02102 405.408484 
L 876.015865 405.235776 
L 900.3812 405.196684 
L 996.218182 405.199167 
L 996.218182 405.199167 
" style="fill:none;stroke:#ff7f0e;stroke-linecap:square;stroke-width:1.5;"/>
   </g>
   <g id="patch_15">
    <path d="M 144 496.173913 
L 144 375.652174 
" style="fill:none;stroke:#000000;stroke-linecap:square;stroke-linejoin:miter;stroke-width:0.8;"/>
   </g>
   <g id="patch_16">
    <path d="M 1036.8 496.173913 
L 1036.8 375.652174 
" style="fill:none;stroke:#000000;stroke-linecap:square;stroke-linejoin:miter;stroke-width:0.8;"/>
   </g>
   <g id="patch_17">
    <path d="M 144 496.173913 
L 1036.8 496.173913 
" style="fill:none;stroke:#000000;stroke-linecap:square;stroke-linejoin:miter;stroke-width:0.8;"/>
   </g>
   <g id="patch_18">
    <path d="M 144 375.652174 
L 1036.8 375.652174 
" style="fill:none;stroke:#000000;stroke-linecap:square;stroke-linejoin:miter;stroke-width:0.8;"/>
   </g>
   <g id="legend_3">
    <g id="patch_19">
     <path d="M 151 491.173913 
L 201.207812 491.173913 
Q 203.207812 491.173913 203.207812 489.173913 
L 203.207812 460.817663 
Q 203.207812 458.817663 201.207812 458.817663 
L 151 458.817663 
Q 149 458.817663 149 460.817663 
L 149 489.173913 
Q 149 491.173913 151 491.173913 
z
" style="fill:#ffffff;opacity:0.8;stroke:#cccccc;stroke-linejoin:miter;"/>
    </g>
    <g id="line2d_53">
     <path d="M 153 466.916101 
L 173 466.916101 
" style="fill:none;stroke:#1f77b4;stroke-linecap:square;stroke-width:1.5;"/>
    </g>
    <g id="line2d_54"/>
    <g id="text_43">
     <!-- wyr -->
     <g transform="translate(181 470.416101)scale(0.1 -0.1)">
      <defs>
       <path d="M 32.171875 -5.078125 
Q 28.375 -14.84375 24.75 -17.8125 
Q 21.140625 -20.796875 15.09375 -20.796875 
L 7.90625 -20.796875 
L 7.90625 -13.28125 
L 13.1875 -13.28125 
Q 16.890625 -13.28125 18.9375 -11.515625 
Q 21 -9.765625 23.484375 -3.21875 
L 25.09375 0.875 
L 2.984375 54.6875 
L 12.5 54.6875 
L 29.59375 11.921875 
L 46.6875 54.6875 
L 56.203125 54.6875 
z
" id="DejaVuSans-121"/>
      </defs>
      <use xlink:href="#DejaVuSans-119"/>
      <use x="81.787109" xlink:href="#DejaVuSans-121"/>
      <use x="140.966797" xlink:href="#DejaVuSans-114"/>
     </g>
    </g>
    <g id="line2d_55">
     <path d="M 153 481.594226 
L 173 481.594226 
" style="fill:none;stroke:#ff7f0e;stroke-linecap:square;stroke-width:1.5;"/>
    </g>
    <g id="line2d_56"/>
    <g id="text_44">
     <!-- wy -->
     <g transform="translate(181 485.094226)scale(0.1 -0.1)">
      <use xlink:href="#DejaVuSans-119"/>
      <use x="81.787109" xlink:href="#DejaVuSans-121"/>
     </g>
    </g>
   </g>
  </g>
  <g id="axes_4">
   <g id="patch_20">
    <path d="M 144 640.8 
L 1036.8 640.8 
L 1036.8 520.278261 
L 144 520.278261 
z
" style="fill:#ffffff;"/>
   </g>
   <g id="matplotlib.axis_7">
    <g id="xtick_22">
     <g id="line2d_57">
      <g>
       <use style="stroke:#000000;stroke-width:0.8;" x="184.581818" xlink:href="#m7173e0b0d9" y="640.8"/>
      </g>
     </g>
     <g id="text_45">
      <!-- 0 -->
      <g transform="translate(181.400568 655.398438)scale(0.1 -0.1)">
       <use xlink:href="#DejaVuSans-48"/>
      </g>
     </g>
    </g>
    <g id="xtick_23">
     <g id="line2d_58">
      <g>
       <use style="stroke:#000000;stroke-width:0.8;" x="319.944787" xlink:href="#m7173e0b0d9" y="640.8"/>
      </g>
     </g>
     <g id="text_46">
      <!-- 5 -->
      <g transform="translate(316.763537 655.398438)scale(0.1 -0.1)">
       <use xlink:href="#DejaVuSans-53"/>
      </g>
     </g>
    </g>
    <g id="xtick_24">
     <g id="line2d_59">
      <g>
       <use style="stroke:#000000;stroke-width:0.8;" x="455.307757" xlink:href="#m7173e0b0d9" y="640.8"/>
      </g>
     </g>
     <g id="text_47">
      <!-- 10 -->
      <g transform="translate(448.945257 655.398438)scale(0.1 -0.1)">
       <use xlink:href="#DejaVuSans-49"/>
       <use x="63.623047" xlink:href="#DejaVuSans-48"/>
      </g>
     </g>
    </g>
    <g id="xtick_25">
     <g id="line2d_60">
      <g>
       <use style="stroke:#000000;stroke-width:0.8;" x="590.670726" xlink:href="#m7173e0b0d9" y="640.8"/>
      </g>
     </g>
     <g id="text_48">
      <!-- 15 -->
      <g transform="translate(584.308226 655.398438)scale(0.1 -0.1)">
       <use xlink:href="#DejaVuSans-49"/>
       <use x="63.623047" xlink:href="#DejaVuSans-53"/>
      </g>
     </g>
    </g>
    <g id="xtick_26">
     <g id="line2d_61">
      <g>
       <use style="stroke:#000000;stroke-width:0.8;" x="726.033695" xlink:href="#m7173e0b0d9" y="640.8"/>
      </g>
     </g>
     <g id="text_49">
      <!-- 20 -->
      <g transform="translate(719.671195 655.398438)scale(0.1 -0.1)">
       <use xlink:href="#DejaVuSans-50"/>
       <use x="63.623047" xlink:href="#DejaVuSans-48"/>
      </g>
     </g>
    </g>
    <g id="xtick_27">
     <g id="line2d_62">
      <g>
       <use style="stroke:#000000;stroke-width:0.8;" x="861.396664" xlink:href="#m7173e0b0d9" y="640.8"/>
      </g>
     </g>
     <g id="text_50">
      <!-- 25 -->
      <g transform="translate(855.034164 655.398438)scale(0.1 -0.1)">
       <use xlink:href="#DejaVuSans-50"/>
       <use x="63.623047" xlink:href="#DejaVuSans-53"/>
      </g>
     </g>
    </g>
    <g id="xtick_28">
     <g id="line2d_63">
      <g>
       <use style="stroke:#000000;stroke-width:0.8;" x="996.759634" xlink:href="#m7173e0b0d9" y="640.8"/>
      </g>
     </g>
     <g id="text_51">
      <!-- 30 -->
      <g transform="translate(990.397134 655.398438)scale(0.1 -0.1)">
       <use xlink:href="#DejaVuSans-51"/>
       <use x="63.623047" xlink:href="#DejaVuSans-48"/>
      </g>
     </g>
    </g>
   </g>
   <g id="matplotlib.axis_8">
    <g id="ytick_18">
     <g id="line2d_64">
      <g>
       <use style="stroke:#000000;stroke-width:0.8;" x="144" xlink:href="#m2efe4cd719" y="635.321739"/>
      </g>
     </g>
     <g id="text_52">
      <!-- 0 -->
      <g transform="translate(130.6375 639.120958)scale(0.1 -0.1)">
       <use xlink:href="#DejaVuSans-48"/>
      </g>
     </g>
    </g>
    <g id="ytick_19">
     <g id="line2d_65">
      <g>
       <use style="stroke:#000000;stroke-width:0.8;" x="144" xlink:href="#m2efe4cd719" y="612.071278"/>
      </g>
     </g>
     <g id="text_53">
      <!-- 2 -->
      <g transform="translate(130.6375 615.870497)scale(0.1 -0.1)">
       <use xlink:href="#DejaVuSans-50"/>
      </g>
     </g>
    </g>
    <g id="ytick_20">
     <g id="line2d_66">
      <g>
       <use style="stroke:#000000;stroke-width:0.8;" x="144" xlink:href="#m2efe4cd719" y="588.820817"/>
      </g>
     </g>
     <g id="text_54">
      <!-- 4 -->
      <g transform="translate(130.6375 592.620035)scale(0.1 -0.1)">
       <use xlink:href="#DejaVuSans-52"/>
      </g>
     </g>
    </g>
    <g id="ytick_21">
     <g id="line2d_67">
      <g>
       <use style="stroke:#000000;stroke-width:0.8;" x="144" xlink:href="#m2efe4cd719" y="565.570355"/>
      </g>
     </g>
     <g id="text_55">
      <!-- 6 -->
      <g transform="translate(130.6375 569.369574)scale(0.1 -0.1)">
       <use xlink:href="#DejaVuSans-54"/>
      </g>
     </g>
    </g>
    <g id="ytick_22">
     <g id="line2d_68">
      <g>
       <use style="stroke:#000000;stroke-width:0.8;" x="144" xlink:href="#m2efe4cd719" y="542.319894"/>
      </g>
     </g>
     <g id="text_56">
      <!-- 8 -->
      <g transform="translate(130.6375 546.119113)scale(0.1 -0.1)">
       <use xlink:href="#DejaVuSans-56"/>
      </g>
     </g>
    </g>
   </g>
   <g id="line2d_69">
    <path clip-path="url(#p8f9363fc48)" d="M 184.581818 635.321739 
L 996.218182 635.321739 
L 996.218182 635.321739 
" style="fill:none;stroke:#1f77b4;stroke-linecap:square;stroke-width:1.5;"/>
   </g>
   <g id="line2d_70">
    <path clip-path="url(#p8f9363fc48)" d="M 184.581818 635.321739 
L 346.475929 635.321739 
L 347.017381 525.756522 
L 349.724641 525.756522 
L 350.266093 534.293132 
L 350.807544 586.991586 
L 351.890448 621.66361 
L 352.4319 627.448266 
L 352.973352 631.018169 
L 353.514804 630.988176 
L 354.056256 630.228296 
L 354.597708 629.258192 
L 355.139159 628.808036 
L 355.680611 628.829974 
L 356.763515 629.653368 
L 357.846419 630.537475 
L 358.929323 631.076939 
L 360.012226 631.280228 
L 363.802389 631.513968 
L 365.968197 632.097797 
L 369.75836 633.146764 
L 373.007071 633.813518 
L 376.797235 634.377992 
L 381.12885 634.808586 
L 386.543368 635.108159 
L 394.123695 635.271219 
L 409.825799 635.320546 
L 508.911493 635.321739 
L 509.452944 525.756522 
L 512.160204 525.756522 
L 512.701656 533.918875 
L 513.243108 587.316862 
L 514.326011 621.6968 
L 514.867463 627.312984 
L 515.408915 630.816787 
L 515.950367 630.733192 
L 517.574723 628.65778 
L 518.116174 628.722565 
L 519.199078 629.587526 
L 520.281982 630.476504 
L 521.364886 631.00698 
L 522.447789 631.199397 
L 525.696501 631.340816 
L 527.320856 631.722489 
L 533.276827 633.363287 
L 537.06699 634.061661 
L 541.398605 634.608747 
L 546.271672 634.980712 
L 552.227643 635.20145 
L 561.973776 635.306018 
L 598.792504 635.321739 
L 671.347056 635.321739 
L 671.888507 525.756522 
L 674.595767 525.756522 
L 675.137219 533.925055 
L 675.678671 587.331409 
L 676.761574 621.700494 
L 677.303026 627.317214 
L 677.844478 630.81019 
L 678.38593 630.727122 
L 680.010286 628.657004 
L 680.551738 628.723476 
L 681.634641 629.58886 
L 682.717545 630.476823 
L 683.800449 631.006441 
L 684.883353 631.198812 
L 688.132064 631.343302 
L 689.756419 631.725649 
L 695.71239 633.365704 
L 699.502553 634.063601 
L 703.834168 634.610123 
L 708.707235 634.98152 
L 714.663206 635.2018 
L 724.40934 635.306077 
L 761.769519 635.321739 
L 833.782619 635.321739 
L 834.324071 525.756522 
L 837.03133 525.756522 
L 837.572782 533.92517 
L 838.114234 587.331186 
L 839.197137 621.70047 
L 839.738589 627.317275 
L 840.280041 630.810315 
L 840.821493 630.727263 
L 842.445849 628.657064 
L 842.987301 628.723514 
L 844.070204 629.588885 
L 845.153108 630.476854 
L 846.236012 631.006481 
L 847.318916 631.198855 
L 850.567627 631.343326 
L 852.191983 631.725663 
L 858.147953 633.365708 
L 861.938116 634.063602 
L 866.269731 634.610122 
L 871.142798 634.981519 
L 877.098769 635.201799 
L 886.844903 635.306077 
L 924.205082 635.321739 
L 996.218182 635.321739 
L 996.218182 635.321739 
" style="fill:none;stroke:#ff7f0e;stroke-linecap:square;stroke-width:1.5;"/>
   </g>
   <g id="patch_21">
    <path d="M 144 640.8 
L 144 520.278261 
" style="fill:none;stroke:#000000;stroke-linecap:square;stroke-linejoin:miter;stroke-width:0.8;"/>
   </g>
   <g id="patch_22">
    <path d="M 1036.8 640.8 
L 1036.8 520.278261 
" style="fill:none;stroke:#000000;stroke-linecap:square;stroke-linejoin:miter;stroke-width:0.8;"/>
   </g>
   <g id="patch_23">
    <path d="M 144 640.8 
L 1036.8 640.8 
" style="fill:none;stroke:#000000;stroke-linecap:square;stroke-linejoin:miter;stroke-width:0.8;"/>
   </g>
   <g id="patch_24">
    <path d="M 144 520.278261 
L 1036.8 520.278261 
" style="fill:none;stroke:#000000;stroke-linecap:square;stroke-linejoin:miter;stroke-width:0.8;"/>
   </g>
   <g id="legend_4">
    <g id="patch_25">
     <path d="M 980.2625 557.634511 
L 1029.8 557.634511 
Q 1031.8 557.634511 1031.8 555.634511 
L 1031.8 527.278261 
Q 1031.8 525.278261 1029.8 525.278261 
L 980.2625 525.278261 
Q 978.2625 525.278261 978.2625 527.278261 
L 978.2625 555.634511 
Q 978.2625 557.634511 980.2625 557.634511 
z
" style="fill:#ffffff;opacity:0.8;stroke:#cccccc;stroke-linejoin:miter;"/>
    </g>
    <g id="line2d_71">
     <path d="M 982.2625 533.376698 
L 1002.2625 533.376698 
" style="fill:none;stroke:#1f77b4;stroke-linecap:square;stroke-width:1.5;"/>
    </g>
    <g id="line2d_72"/>
    <g id="text_57">
     <!-- wzr -->
     <g transform="translate(1010.2625 536.876698)scale(0.1 -0.1)">
      <defs>
       <path d="M 5.515625 54.6875 
L 48.1875 54.6875 
L 48.1875 46.484375 
L 14.40625 7.171875 
L 48.1875 7.171875 
L 48.1875 0 
L 4.296875 0 
L 4.296875 8.203125 
L 38.09375 47.515625 
L 5.515625 47.515625 
z
" id="DejaVuSans-122"/>
      </defs>
      <use xlink:href="#DejaVuSans-119"/>
      <use x="81.787109" xlink:href="#DejaVuSans-122"/>
      <use x="134.277344" xlink:href="#DejaVuSans-114"/>
     </g>
    </g>
    <g id="line2d_73">
     <path d="M 982.2625 548.054823 
L 1002.2625 548.054823 
" style="fill:none;stroke:#ff7f0e;stroke-linecap:square;stroke-width:1.5;"/>
    </g>
    <g id="line2d_74"/>
    <g id="text_58">
     <!-- wz -->
     <g transform="translate(1010.2625 551.554823)scale(0.1 -0.1)">
      <use xlink:href="#DejaVuSans-119"/>
      <use x="81.787109" xlink:href="#DejaVuSans-122"/>
     </g>
    </g>
   </g>
  </g>
 </g>
 <defs>
  <clipPath id="pe5b56565bc">
   <rect height="120.521739" width="892.8" x="144" y="86.4"/>
  </clipPath>
  <clipPath id="p249f795180">
   <rect height="120.521739" width="892.8" x="144" y="231.026087"/>
  </clipPath>
  <clipPath id="p15ca9bbe8c">
   <rect height="120.521739" width="892.8" x="144" y="375.652174"/>
  </clipPath>
  <clipPath id="p8f9363fc48">
   <rect height="120.521739" width="892.8" x="144" y="520.278261"/>
  </clipPath>
 </defs>
</svg>
