<?xml version="1.0" encoding="utf-8" standalone="no"?>
<!DOCTYPE svg PUBLIC "-//W3C//DTD SVG 1.1//EN"
  "http://www.w3.org/Graphics/SVG/1.1/DTD/svg11.dtd">
<!-- Created with matplotlib (https://matplotlib.org/) -->
<svg height="720pt" version="1.1" viewBox="0 0 1152 720" width="1152pt" xmlns="http://www.w3.org/2000/svg" xmlns:xlink="http://www.w3.org/1999/xlink">
 <metadata>
  <rdf:RDF xmlns:cc="http://creativecommons.org/ns#" xmlns:dc="http://purl.org/dc/elements/1.1/" xmlns:rdf="http://www.w3.org/1999/02/22-rdf-syntax-ns#">
   <cc:Work>
    <dc:type rdf:resource="http://purl.org/dc/dcmitype/StillImage"/>
    <dc:date>2024-12-30T15:12:18.346081</dc:date>
    <dc:format>image/svg+xml</dc:format>
    <dc:creator>
     <cc:Agent>
      <dc:title>Matplotlib v3.3.3, https://matplotlib.org/</dc:title>
     </cc:Agent>
    </dc:creator>
   </cc:Work>
  </rdf:RDF>
 </metadata>
 <defs>
  <style type="text/css">*{stroke-linecap:butt;stroke-linejoin:round;}</style>
 </defs>
 <g id="figure_1">
  <g id="patch_1">
   <path d="M 0 720 
L 1152 720 
L 1152 0 
L 0 0 
z
" style="fill:#ffffff;"/>
  </g>
  <g id="axes_1">
   <g id="patch_2">
    <path d="M 144 249.458824 
L 1036.8 249.458824 
L 1036.8 86.4 
L 144 86.4 
z
" style="fill:#ffffff;"/>
   </g>
   <g id="matplotlib.axis_1">
    <g id="xtick_1">
     <g id="line2d_1">
      <defs>
       <path d="M 0 0 
L 0 3.5 
" id="m320e1029bc" style="stroke:#000000;stroke-width:0.8;"/>
      </defs>
      <g>
       <use style="stroke:#000000;stroke-width:0.8;" x="184.581818" xlink:href="#m320e1029bc" y="249.458824"/>
      </g>
     </g>
     <g id="text_1">
      <!-- 0 -->
      <g transform="translate(181.400568 264.057261)scale(0.1 -0.1)">
       <defs>
        <path d="M 31.78125 66.40625 
Q 24.171875 66.40625 20.328125 58.90625 
Q 16.5 51.421875 16.5 36.375 
Q 16.5 21.390625 20.328125 13.890625 
Q 24.171875 6.390625 31.78125 6.390625 
Q 39.453125 6.390625 43.28125 13.890625 
Q 47.125 21.390625 47.125 36.375 
Q 47.125 51.421875 43.28125 58.90625 
Q 39.453125 66.40625 31.78125 66.40625 
z
M 31.78125 74.21875 
Q 44.046875 74.21875 50.515625 64.515625 
Q 56.984375 54.828125 56.984375 36.375 
Q 56.984375 17.96875 50.515625 8.265625 
Q 44.046875 -1.421875 31.78125 -1.421875 
Q 19.53125 -1.421875 13.0625 8.265625 
Q 6.59375 17.96875 6.59375 36.375 
Q 6.59375 54.828125 13.0625 64.515625 
Q 19.53125 74.21875 31.78125 74.21875 
z
" id="DejaVuSans-48"/>
       </defs>
       <use xlink:href="#DejaVuSans-48"/>
      </g>
     </g>
    </g>
    <g id="xtick_2">
     <g id="line2d_2">
      <g>
       <use style="stroke:#000000;stroke-width:0.8;" x="319.944787" xlink:href="#m320e1029bc" y="249.458824"/>
      </g>
     </g>
     <g id="text_2">
      <!-- 5 -->
      <g transform="translate(316.763537 264.057261)scale(0.1 -0.1)">
       <defs>
        <path d="M 10.796875 72.90625 
L 49.515625 72.90625 
L 49.515625 64.59375 
L 19.828125 64.59375 
L 19.828125 46.734375 
Q 21.96875 47.46875 24.109375 47.828125 
Q 26.265625 48.1875 28.421875 48.1875 
Q 40.625 48.1875 47.75 41.5 
Q 54.890625 34.8125 54.890625 23.390625 
Q 54.890625 11.625 47.5625 5.09375 
Q 40.234375 -1.421875 26.90625 -1.421875 
Q 22.3125 -1.421875 17.546875 -0.640625 
Q 12.796875 0.140625 7.71875 1.703125 
L 7.71875 11.625 
Q 12.109375 9.234375 16.796875 8.0625 
Q 21.484375 6.890625 26.703125 6.890625 
Q 35.15625 6.890625 40.078125 11.328125 
Q 45.015625 15.765625 45.015625 23.390625 
Q 45.015625 31 40.078125 35.4375 
Q 35.15625 39.890625 26.703125 39.890625 
Q 22.75 39.890625 18.8125 39.015625 
Q 14.890625 38.140625 10.796875 36.28125 
z
" id="DejaVuSans-53"/>
       </defs>
       <use xlink:href="#DejaVuSans-53"/>
      </g>
     </g>
    </g>
    <g id="xtick_3">
     <g id="line2d_3">
      <g>
       <use style="stroke:#000000;stroke-width:0.8;" x="455.307757" xlink:href="#m320e1029bc" y="249.458824"/>
      </g>
     </g>
     <g id="text_3">
      <!-- 10 -->
      <g transform="translate(448.945257 264.057261)scale(0.1 -0.1)">
       <defs>
        <path d="M 12.40625 8.296875 
L 28.515625 8.296875 
L 28.515625 63.921875 
L 10.984375 60.40625 
L 10.984375 69.390625 
L 28.421875 72.90625 
L 38.28125 72.90625 
L 38.28125 8.296875 
L 54.390625 8.296875 
L 54.390625 0 
L 12.40625 0 
z
" id="DejaVuSans-49"/>
       </defs>
       <use xlink:href="#DejaVuSans-49"/>
       <use x="63.623047" xlink:href="#DejaVuSans-48"/>
      </g>
     </g>
    </g>
    <g id="xtick_4">
     <g id="line2d_4">
      <g>
       <use style="stroke:#000000;stroke-width:0.8;" x="590.670726" xlink:href="#m320e1029bc" y="249.458824"/>
      </g>
     </g>
     <g id="text_4">
      <!-- 15 -->
      <g transform="translate(584.308226 264.057261)scale(0.1 -0.1)">
       <use xlink:href="#DejaVuSans-49"/>
       <use x="63.623047" xlink:href="#DejaVuSans-53"/>
      </g>
     </g>
    </g>
    <g id="xtick_5">
     <g id="line2d_5">
      <g>
       <use style="stroke:#000000;stroke-width:0.8;" x="726.033695" xlink:href="#m320e1029bc" y="249.458824"/>
      </g>
     </g>
     <g id="text_5">
      <!-- 20 -->
      <g transform="translate(719.671195 264.057261)scale(0.1 -0.1)">
       <defs>
        <path d="M 19.1875 8.296875 
L 53.609375 8.296875 
L 53.609375 0 
L 7.328125 0 
L 7.328125 8.296875 
Q 12.9375 14.109375 22.625 23.890625 
Q 32.328125 33.6875 34.8125 36.53125 
Q 39.546875 41.84375 41.421875 45.53125 
Q 43.3125 49.21875 43.3125 52.78125 
Q 43.3125 58.59375 39.234375 62.25 
Q 35.15625 65.921875 28.609375 65.921875 
Q 23.96875 65.921875 18.8125 64.3125 
Q 13.671875 62.703125 7.8125 59.421875 
L 7.8125 69.390625 
Q 13.765625 71.78125 18.9375 73 
Q 24.125 74.21875 28.421875 74.21875 
Q 39.75 74.21875 46.484375 68.546875 
Q 53.21875 62.890625 53.21875 53.421875 
Q 53.21875 48.921875 51.53125 44.890625 
Q 49.859375 40.875 45.40625 35.40625 
Q 44.1875 33.984375 37.640625 27.21875 
Q 31.109375 20.453125 19.1875 8.296875 
z
" id="DejaVuSans-50"/>
       </defs>
       <use xlink:href="#DejaVuSans-50"/>
       <use x="63.623047" xlink:href="#DejaVuSans-48"/>
      </g>
     </g>
    </g>
    <g id="xtick_6">
     <g id="line2d_6">
      <g>
       <use style="stroke:#000000;stroke-width:0.8;" x="861.396664" xlink:href="#m320e1029bc" y="249.458824"/>
      </g>
     </g>
     <g id="text_6">
      <!-- 25 -->
      <g transform="translate(855.034164 264.057261)scale(0.1 -0.1)">
       <use xlink:href="#DejaVuSans-50"/>
       <use x="63.623047" xlink:href="#DejaVuSans-53"/>
      </g>
     </g>
    </g>
    <g id="xtick_7">
     <g id="line2d_7">
      <g>
       <use style="stroke:#000000;stroke-width:0.8;" x="996.759634" xlink:href="#m320e1029bc" y="249.458824"/>
      </g>
     </g>
     <g id="text_7">
      <!-- 30 -->
      <g transform="translate(990.397134 264.057261)scale(0.1 -0.1)">
       <defs>
        <path d="M 40.578125 39.3125 
Q 47.65625 37.796875 51.625 33 
Q 55.609375 28.21875 55.609375 21.1875 
Q 55.609375 10.40625 48.1875 4.484375 
Q 40.765625 -1.421875 27.09375 -1.421875 
Q 22.515625 -1.421875 17.65625 -0.515625 
Q 12.796875 0.390625 7.625 2.203125 
L 7.625 11.71875 
Q 11.71875 9.328125 16.59375 8.109375 
Q 21.484375 6.890625 26.8125 6.890625 
Q 36.078125 6.890625 40.9375 10.546875 
Q 45.796875 14.203125 45.796875 21.1875 
Q 45.796875 27.640625 41.28125 31.265625 
Q 36.765625 34.90625 28.71875 34.90625 
L 20.21875 34.90625 
L 20.21875 43.015625 
L 29.109375 43.015625 
Q 36.375 43.015625 40.234375 45.921875 
Q 44.09375 48.828125 44.09375 54.296875 
Q 44.09375 59.90625 40.109375 62.90625 
Q 36.140625 65.921875 28.71875 65.921875 
Q 24.65625 65.921875 20.015625 65.03125 
Q 15.375 64.15625 9.8125 62.3125 
L 9.8125 71.09375 
Q 15.4375 72.65625 20.34375 73.4375 
Q 25.25 74.21875 29.59375 74.21875 
Q 40.828125 74.21875 47.359375 69.109375 
Q 53.90625 64.015625 53.90625 55.328125 
Q 53.90625 49.265625 50.4375 45.09375 
Q 46.96875 40.921875 40.578125 39.3125 
z
" id="DejaVuSans-51"/>
       </defs>
       <use xlink:href="#DejaVuSans-51"/>
       <use x="63.623047" xlink:href="#DejaVuSans-48"/>
      </g>
     </g>
    </g>
   </g>
   <g id="matplotlib.axis_2">
    <g id="ytick_1">
     <g id="line2d_8">
      <defs>
       <path d="M 0 0 
L -3.5 0 
" id="m06c3a0b293" style="stroke:#000000;stroke-width:0.8;"/>
      </defs>
      <g>
       <use style="stroke:#000000;stroke-width:0.8;" x="144" xlink:href="#m06c3a0b293" y="242.047059"/>
      </g>
     </g>
     <g id="text_8">
      <!-- 0.0 -->
      <g transform="translate(121.096875 245.846278)scale(0.1 -0.1)">
       <defs>
        <path d="M 10.6875 12.40625 
L 21 12.40625 
L 21 0 
L 10.6875 0 
z
" id="DejaVuSans-46"/>
       </defs>
       <use xlink:href="#DejaVuSans-48"/>
       <use x="63.623047" xlink:href="#DejaVuSans-46"/>
       <use x="95.410156" xlink:href="#DejaVuSans-48"/>
      </g>
     </g>
    </g>
    <g id="ytick_2">
     <g id="line2d_9">
      <g>
       <use style="stroke:#000000;stroke-width:0.8;" x="144" xlink:href="#m06c3a0b293" y="204.988235"/>
      </g>
     </g>
     <g id="text_9">
      <!-- 0.5 -->
      <g transform="translate(121.096875 208.787454)scale(0.1 -0.1)">
       <use xlink:href="#DejaVuSans-48"/>
       <use x="63.623047" xlink:href="#DejaVuSans-46"/>
       <use x="95.410156" xlink:href="#DejaVuSans-53"/>
      </g>
     </g>
    </g>
    <g id="ytick_3">
     <g id="line2d_10">
      <g>
       <use style="stroke:#000000;stroke-width:0.8;" x="144" xlink:href="#m06c3a0b293" y="167.929412"/>
      </g>
     </g>
     <g id="text_10">
      <!-- 1.0 -->
      <g transform="translate(121.096875 171.728631)scale(0.1 -0.1)">
       <use xlink:href="#DejaVuSans-49"/>
       <use x="63.623047" xlink:href="#DejaVuSans-46"/>
       <use x="95.410156" xlink:href="#DejaVuSans-48"/>
      </g>
     </g>
    </g>
    <g id="ytick_4">
     <g id="line2d_11">
      <g>
       <use style="stroke:#000000;stroke-width:0.8;" x="144" xlink:href="#m06c3a0b293" y="130.870588"/>
      </g>
     </g>
     <g id="text_11">
      <!-- 1.5 -->
      <g transform="translate(121.096875 134.669807)scale(0.1 -0.1)">
       <use xlink:href="#DejaVuSans-49"/>
       <use x="63.623047" xlink:href="#DejaVuSans-46"/>
       <use x="95.410156" xlink:href="#DejaVuSans-53"/>
      </g>
     </g>
    </g>
    <g id="ytick_5">
     <g id="line2d_12">
      <g>
       <use style="stroke:#000000;stroke-width:0.8;" x="144" xlink:href="#m06c3a0b293" y="93.811765"/>
      </g>
     </g>
     <g id="text_12">
      <!-- 2.0 -->
      <g transform="translate(121.096875 97.610983)scale(0.1 -0.1)">
       <use xlink:href="#DejaVuSans-50"/>
       <use x="63.623047" xlink:href="#DejaVuSans-46"/>
       <use x="95.410156" xlink:href="#DejaVuSans-48"/>
      </g>
     </g>
    </g>
   </g>
   <g id="line2d_13">
    <path clip-path="url(#pc3b498f8d6)" d="M 184.581818 242.047059 
L 345.934478 242.047059 
L 346.475929 93.811765 
L 670.805604 93.811765 
L 671.347056 242.047059 
L 996.218182 242.047059 
L 996.218182 242.047059 
" style="fill:none;stroke:#1f77b4;stroke-linecap:square;stroke-width:1.5;"/>
   </g>
   <g id="line2d_14">
    <path clip-path="url(#pc3b498f8d6)" d="M 184.581818 242.047059 
L 347.558833 242.044507 
L 348.100285 241.276218 
L 349.183189 237.68236 
L 350.807544 231.832162 
L 352.973352 224.922938 
L 358.929323 207.165066 
L 361.09513 201.553777 
L 363.802389 195.297537 
L 367.592553 187.154649 
L 371.382716 179.476281 
L 374.631427 173.332129 
L 377.880138 167.6044 
L 381.12885 162.270724 
L 384.377561 157.306531 
L 388.167724 151.951934 
L 391.957887 147.035435 
L 395.74805 142.524318 
L 399.538213 138.387564 
L 403.328376 134.595983 
L 407.11854 131.12224 
L 410.908703 127.94083 
L 414.698866 125.028025 
L 419.030481 121.999848 
L 423.362096 119.263566 
L 427.693711 116.791572 
L 432.025326 114.558723 
L 436.898393 112.304241 
L 441.77146 110.294175 
L 447.185979 108.315524 
L 452.600497 106.574104 
L 458.556468 104.898831 
L 465.05389 103.320886 
L 471.551313 101.96743 
L 478.590187 100.717634 
L 486.711966 99.511581 
L 495.375196 98.456326 
L 505.121329 97.500806 
L 510.535848 97.142883 
L 511.618752 97.574771 
L 514.326011 98.815748 
L 517.574723 99.899523 
L 520.281982 100.518611 
L 523.530693 100.998586 
L 526.779404 101.238294 
L 530.028116 101.256266 
L 534.359731 101.025132 
L 540.315701 100.437977 
L 566.305391 97.575706 
L 577.134429 96.730383 
L 589.587822 95.987996 
L 604.207023 95.352884 
L 621.533483 94.835244 
L 643.191558 94.425259 
L 671.347056 94.127144 
L 672.429959 94.127379 
L 672.971411 94.899004 
L 674.054315 98.477763 
L 675.678671 104.310803 
L 677.844478 111.208935 
L 683.800449 128.96823 
L 685.966256 134.563226 
L 688.673516 140.807926 
L 692.463679 148.942989 
L 696.253842 156.610139 
L 699.502553 162.741904 
L 702.751264 168.456359 
L 705.999976 173.776623 
L 709.248687 178.727644 
L 713.03885 184.067513 
L 716.829013 188.970209 
L 720.619176 193.468559 
L 724.40934 197.593596 
L 728.199503 201.374469 
L 731.989666 204.838445 
L 735.779829 208.010957 
L 739.569992 210.915654 
L 743.901607 213.935443 
L 748.233222 216.664181 
L 752.564837 219.129387 
L 756.896452 221.356125 
L 761.769519 223.604457 
L 766.642586 225.609055 
L 772.057105 227.582338 
L 777.471624 229.319043 
L 783.427594 230.989789 
L 789.925017 232.563478 
L 796.422439 233.913288 
L 803.461314 235.159721 
L 811.583092 236.362532 
L 820.246322 237.414952 
L 829.992456 238.367908 
L 835.406974 238.725127 
L 836.489878 238.293396 
L 839.197137 237.052153 
L 842.445849 235.968097 
L 845.153108 235.348938 
L 848.401819 234.868991 
L 851.650531 234.629397 
L 854.899242 234.611446 
L 859.230857 234.842404 
L 865.186828 235.42904 
L 891.176518 238.28797 
L 902.005555 239.132207 
L 914.458948 239.873637 
L 929.078149 240.507928 
L 946.404609 241.0249 
L 968.062684 241.434357 
L 995.67673 241.72803 
L 996.218182 241.72803 
L 996.218182 241.72803 
" style="fill:none;stroke:#ff7f0e;stroke-linecap:square;stroke-width:1.5;"/>
   </g>
   <g id="patch_3">
    <path d="M 144 249.458824 
L 144 86.4 
" style="fill:none;stroke:#000000;stroke-linecap:square;stroke-linejoin:miter;stroke-width:0.8;"/>
   </g>
   <g id="patch_4">
    <path d="M 1036.8 249.458824 
L 1036.8 86.4 
" style="fill:none;stroke:#000000;stroke-linecap:square;stroke-linejoin:miter;stroke-width:0.8;"/>
   </g>
   <g id="patch_5">
    <path d="M 144 249.458824 
L 1036.8 249.458824 
" style="fill:none;stroke:#000000;stroke-linecap:square;stroke-linejoin:miter;stroke-width:0.8;"/>
   </g>
   <g id="patch_6">
    <path d="M 144 86.4 
L 1036.8 86.4 
" style="fill:none;stroke:#000000;stroke-linecap:square;stroke-linejoin:miter;stroke-width:0.8;"/>
   </g>
   <g id="legend_1">
    <g id="patch_7">
     <path d="M 981.421875 123.75625 
L 1029.8 123.75625 
Q 1031.8 123.75625 1031.8 121.75625 
L 1031.8 93.4 
Q 1031.8 91.4 1029.8 91.4 
L 981.421875 91.4 
Q 979.421875 91.4 979.421875 93.4 
L 979.421875 121.75625 
Q 979.421875 123.75625 981.421875 123.75625 
z
" style="fill:#ffffff;opacity:0.8;stroke:#cccccc;stroke-linejoin:miter;"/>
    </g>
    <g id="line2d_15">
     <path d="M 983.421875 99.498438 
L 1003.421875 99.498438 
" style="fill:none;stroke:#1f77b4;stroke-linecap:square;stroke-width:1.5;"/>
    </g>
    <g id="line2d_16"/>
    <g id="text_13">
     <!-- pxr -->
     <g transform="translate(1011.421875 102.998438)scale(0.1 -0.1)">
      <defs>
       <path d="M 18.109375 8.203125 
L 18.109375 -20.796875 
L 9.078125 -20.796875 
L 9.078125 54.6875 
L 18.109375 54.6875 
L 18.109375 46.390625 
Q 20.953125 51.265625 25.265625 53.625 
Q 29.59375 56 35.59375 56 
Q 45.5625 56 51.78125 48.09375 
Q 58.015625 40.1875 58.015625 27.296875 
Q 58.015625 14.40625 51.78125 6.484375 
Q 45.5625 -1.421875 35.59375 -1.421875 
Q 29.59375 -1.421875 25.265625 0.953125 
Q 20.953125 3.328125 18.109375 8.203125 
z
M 48.6875 27.296875 
Q 48.6875 37.203125 44.609375 42.84375 
Q 40.53125 48.484375 33.40625 48.484375 
Q 26.265625 48.484375 22.1875 42.84375 
Q 18.109375 37.203125 18.109375 27.296875 
Q 18.109375 17.390625 22.1875 11.75 
Q 26.265625 6.109375 33.40625 6.109375 
Q 40.53125 6.109375 44.609375 11.75 
Q 48.6875 17.390625 48.6875 27.296875 
z
" id="DejaVuSans-112"/>
       <path d="M 54.890625 54.6875 
L 35.109375 28.078125 
L 55.90625 0 
L 45.3125 0 
L 29.390625 21.484375 
L 13.484375 0 
L 2.875 0 
L 24.125 28.609375 
L 4.6875 54.6875 
L 15.28125 54.6875 
L 29.78125 35.203125 
L 44.28125 54.6875 
z
" id="DejaVuSans-120"/>
       <path d="M 41.109375 46.296875 
Q 39.59375 47.171875 37.8125 47.578125 
Q 36.03125 48 33.890625 48 
Q 26.265625 48 22.1875 43.046875 
Q 18.109375 38.09375 18.109375 28.8125 
L 18.109375 0 
L 9.078125 0 
L 9.078125 54.6875 
L 18.109375 54.6875 
L 18.109375 46.1875 
Q 20.953125 51.171875 25.484375 53.578125 
Q 30.03125 56 36.53125 56 
Q 37.453125 56 38.578125 55.875 
Q 39.703125 55.765625 41.0625 55.515625 
z
" id="DejaVuSans-114"/>
      </defs>
      <use xlink:href="#DejaVuSans-112"/>
      <use x="63.476562" xlink:href="#DejaVuSans-120"/>
      <use x="122.65625" xlink:href="#DejaVuSans-114"/>
     </g>
    </g>
    <g id="line2d_17">
     <path d="M 983.421875 114.176563 
L 1003.421875 114.176563 
" style="fill:none;stroke:#ff7f0e;stroke-linecap:square;stroke-width:1.5;"/>
    </g>
    <g id="line2d_18"/>
    <g id="text_14">
     <!-- px -->
     <g transform="translate(1011.421875 117.676563)scale(0.1 -0.1)">
      <use xlink:href="#DejaVuSans-112"/>
      <use x="63.476562" xlink:href="#DejaVuSans-120"/>
     </g>
    </g>
   </g>
  </g>
  <g id="axes_2">
   <g id="patch_8">
    <path d="M 144 445.129412 
L 1036.8 445.129412 
L 1036.8 282.070588 
L 144 282.070588 
z
" style="fill:#ffffff;"/>
   </g>
   <g id="matplotlib.axis_3">
    <g id="xtick_8">
     <g id="line2d_19">
      <g>
       <use style="stroke:#000000;stroke-width:0.8;" x="184.581818" xlink:href="#m320e1029bc" y="445.129412"/>
      </g>
     </g>
     <g id="text_15">
      <!-- 0 -->
      <g transform="translate(181.400568 459.727849)scale(0.1 -0.1)">
       <use xlink:href="#DejaVuSans-48"/>
      </g>
     </g>
    </g>
    <g id="xtick_9">
     <g id="line2d_20">
      <g>
       <use style="stroke:#000000;stroke-width:0.8;" x="319.944787" xlink:href="#m320e1029bc" y="445.129412"/>
      </g>
     </g>
     <g id="text_16">
      <!-- 5 -->
      <g transform="translate(316.763537 459.727849)scale(0.1 -0.1)">
       <use xlink:href="#DejaVuSans-53"/>
      </g>
     </g>
    </g>
    <g id="xtick_10">
     <g id="line2d_21">
      <g>
       <use style="stroke:#000000;stroke-width:0.8;" x="455.307757" xlink:href="#m320e1029bc" y="445.129412"/>
      </g>
     </g>
     <g id="text_17">
      <!-- 10 -->
      <g transform="translate(448.945257 459.727849)scale(0.1 -0.1)">
       <use xlink:href="#DejaVuSans-49"/>
       <use x="63.623047" xlink:href="#DejaVuSans-48"/>
      </g>
     </g>
    </g>
    <g id="xtick_11">
     <g id="line2d_22">
      <g>
       <use style="stroke:#000000;stroke-width:0.8;" x="590.670726" xlink:href="#m320e1029bc" y="445.129412"/>
      </g>
     </g>
     <g id="text_18">
      <!-- 15 -->
      <g transform="translate(584.308226 459.727849)scale(0.1 -0.1)">
       <use xlink:href="#DejaVuSans-49"/>
       <use x="63.623047" xlink:href="#DejaVuSans-53"/>
      </g>
     </g>
    </g>
    <g id="xtick_12">
     <g id="line2d_23">
      <g>
       <use style="stroke:#000000;stroke-width:0.8;" x="726.033695" xlink:href="#m320e1029bc" y="445.129412"/>
      </g>
     </g>
     <g id="text_19">
      <!-- 20 -->
      <g transform="translate(719.671195 459.727849)scale(0.1 -0.1)">
       <use xlink:href="#DejaVuSans-50"/>
       <use x="63.623047" xlink:href="#DejaVuSans-48"/>
      </g>
     </g>
    </g>
    <g id="xtick_13">
     <g id="line2d_24">
      <g>
       <use style="stroke:#000000;stroke-width:0.8;" x="861.396664" xlink:href="#m320e1029bc" y="445.129412"/>
      </g>
     </g>
     <g id="text_20">
      <!-- 25 -->
      <g transform="translate(855.034164 459.727849)scale(0.1 -0.1)">
       <use xlink:href="#DejaVuSans-50"/>
       <use x="63.623047" xlink:href="#DejaVuSans-53"/>
      </g>
     </g>
    </g>
    <g id="xtick_14">
     <g id="line2d_25">
      <g>
       <use style="stroke:#000000;stroke-width:0.8;" x="996.759634" xlink:href="#m320e1029bc" y="445.129412"/>
      </g>
     </g>
     <g id="text_21">
      <!-- 30 -->
      <g transform="translate(990.397134 459.727849)scale(0.1 -0.1)">
       <use xlink:href="#DejaVuSans-51"/>
       <use x="63.623047" xlink:href="#DejaVuSans-48"/>
      </g>
     </g>
    </g>
   </g>
   <g id="matplotlib.axis_4">
    <g id="ytick_6">
     <g id="line2d_26">
      <g>
       <use style="stroke:#000000;stroke-width:0.8;" x="144" xlink:href="#m06c3a0b293" y="437.717647"/>
      </g>
     </g>
     <g id="text_22">
      <!-- 0.0 -->
      <g transform="translate(121.096875 441.516866)scale(0.1 -0.1)">
       <use xlink:href="#DejaVuSans-48"/>
       <use x="63.623047" xlink:href="#DejaVuSans-46"/>
       <use x="95.410156" xlink:href="#DejaVuSans-48"/>
      </g>
     </g>
    </g>
    <g id="ytick_7">
     <g id="line2d_27">
      <g>
       <use style="stroke:#000000;stroke-width:0.8;" x="144" xlink:href="#m06c3a0b293" y="400.658824"/>
      </g>
     </g>
     <g id="text_23">
      <!-- 0.5 -->
      <g transform="translate(121.096875 404.458042)scale(0.1 -0.1)">
       <use xlink:href="#DejaVuSans-48"/>
       <use x="63.623047" xlink:href="#DejaVuSans-46"/>
       <use x="95.410156" xlink:href="#DejaVuSans-53"/>
      </g>
     </g>
    </g>
    <g id="ytick_8">
     <g id="line2d_28">
      <g>
       <use style="stroke:#000000;stroke-width:0.8;" x="144" xlink:href="#m06c3a0b293" y="363.6"/>
      </g>
     </g>
     <g id="text_24">
      <!-- 1.0 -->
      <g transform="translate(121.096875 367.399219)scale(0.1 -0.1)">
       <use xlink:href="#DejaVuSans-49"/>
       <use x="63.623047" xlink:href="#DejaVuSans-46"/>
       <use x="95.410156" xlink:href="#DejaVuSans-48"/>
      </g>
     </g>
    </g>
    <g id="ytick_9">
     <g id="line2d_29">
      <g>
       <use style="stroke:#000000;stroke-width:0.8;" x="144" xlink:href="#m06c3a0b293" y="326.541176"/>
      </g>
     </g>
     <g id="text_25">
      <!-- 1.5 -->
      <g transform="translate(121.096875 330.340395)scale(0.1 -0.1)">
       <use xlink:href="#DejaVuSans-49"/>
       <use x="63.623047" xlink:href="#DejaVuSans-46"/>
       <use x="95.410156" xlink:href="#DejaVuSans-53"/>
      </g>
     </g>
    </g>
    <g id="ytick_10">
     <g id="line2d_30">
      <g>
       <use style="stroke:#000000;stroke-width:0.8;" x="144" xlink:href="#m06c3a0b293" y="289.482353"/>
      </g>
     </g>
     <g id="text_26">
      <!-- 2.0 -->
      <g transform="translate(121.096875 293.281572)scale(0.1 -0.1)">
       <use xlink:href="#DejaVuSans-50"/>
       <use x="63.623047" xlink:href="#DejaVuSans-46"/>
       <use x="95.410156" xlink:href="#DejaVuSans-48"/>
      </g>
     </g>
    </g>
   </g>
   <g id="line2d_31">
    <path clip-path="url(#pb033649e47)" d="M 184.581818 437.717647 
L 508.370041 437.717647 
L 508.911493 289.482353 
L 833.241167 289.482353 
L 833.782619 437.717647 
L 996.218182 437.717647 
L 996.218182 437.717647 
" style="fill:none;stroke:#1f77b4;stroke-linecap:square;stroke-width:1.5;"/>
   </g>
   <g id="line2d_32">
    <path clip-path="url(#pb033649e47)" d="M 184.581818 437.717647 
L 348.100285 437.639587 
L 349.183189 437.128206 
L 351.348996 435.943818 
L 354.056256 434.809031 
L 356.763515 433.920736 
L 359.470774 433.272353 
L 362.719486 432.747406 
L 365.968197 432.470217 
L 369.75836 432.399636 
L 374.631427 432.575653 
L 381.670301 433.098125 
L 403.869828 434.884302 
L 416.864673 435.629725 
L 431.483874 436.238548 
L 449.351786 436.747686 
L 471.551313 437.143594 
L 500.789714 437.429997 
L 509.994396 437.478111 
L 510.535848 436.705887 
L 511.618752 433.124585 
L 513.243108 427.287136 
L 515.408915 420.383858 
L 521.364886 402.613935 
L 523.530693 397.015922 
L 526.237953 390.768724 
L 530.028116 382.63053 
L 533.818279 374.959942 
L 537.06699 368.825313 
L 540.315701 363.108193 
L 543.564413 357.785445 
L 546.813124 352.832101 
L 550.603287 347.489714 
L 554.39345 342.584696 
L 558.183613 338.084208 
L 561.973776 333.957205 
L 565.76394 330.174525 
L 569.554103 326.70889 
L 573.344266 323.534857 
L 577.134429 320.628763 
L 581.466044 317.607522 
L 585.797659 314.87747 
L 590.129274 312.411077 
L 594.460889 310.183265 
L 599.333956 307.933848 
L 604.207023 305.928283 
L 609.621542 303.954049 
L 615.03606 302.216506 
L 620.992031 300.544954 
L 627.489454 298.970506 
L 633.986876 297.620045 
L 641.025751 296.373011 
L 649.147529 295.16962 
L 657.810759 294.116692 
L 667.556892 293.163277 
L 672.971411 292.805847 
L 674.054315 293.237539 
L 676.761574 294.47869 
L 680.010286 295.56265 
L 682.717545 296.181728 
L 685.966256 296.661587 
L 689.214968 296.901102 
L 692.463679 296.918979 
L 696.795294 296.687927 
L 702.751264 296.101172 
L 728.740955 293.241878 
L 739.569992 292.397543 
L 752.023385 291.656027 
L 766.642586 291.021662 
L 783.969046 290.50463 
L 805.627121 290.095126 
L 833.782619 289.797362 
L 834.865522 289.797601 
L 835.406974 290.569224 
L 836.489878 294.147993 
L 838.114234 299.981053 
L 840.280041 306.879205 
L 846.236012 324.638532 
L 848.401819 330.233543 
L 851.109079 336.478251 
L 854.899242 344.613322 
L 858.689405 352.280486 
L 861.938116 358.412264 
L 865.186828 364.126733 
L 868.435539 369.44701 
L 871.68425 374.398044 
L 875.474413 379.737927 
L 879.264576 384.640638 
L 883.05474 389.139 
L 886.844903 393.26405 
L 890.635066 397.044934 
L 894.425229 400.50892 
L 898.215392 403.681441 
L 902.005555 406.586147 
L 906.33717 409.605945 
L 910.668785 412.334692 
L 915.0004 414.799905 
L 919.332015 417.02665 
L 924.205082 419.274989 
L 929.078149 421.279593 
L 934.492668 423.252882 
L 939.907187 424.989592 
L 945.863157 426.660344 
L 952.36058 428.234037 
L 958.858002 429.583851 
L 965.896877 430.830288 
L 974.018655 432.033103 
L 982.681885 433.085526 
L 992.428019 434.038485 
L 996.218182 434.310388 
L 996.218182 434.310388 
" style="fill:none;stroke:#ff7f0e;stroke-linecap:square;stroke-width:1.5;"/>
   </g>
   <g id="patch_9">
    <path d="M 144 445.129412 
L 144 282.070588 
" style="fill:none;stroke:#000000;stroke-linecap:square;stroke-linejoin:miter;stroke-width:0.8;"/>
   </g>
   <g id="patch_10">
    <path d="M 1036.8 445.129412 
L 1036.8 282.070588 
" style="fill:none;stroke:#000000;stroke-linecap:square;stroke-linejoin:miter;stroke-width:0.8;"/>
   </g>
   <g id="patch_11">
    <path d="M 144 445.129412 
L 1036.8 445.129412 
" style="fill:none;stroke:#000000;stroke-linecap:square;stroke-linejoin:miter;stroke-width:0.8;"/>
   </g>
   <g id="patch_12">
    <path d="M 144 282.070588 
L 1036.8 282.070588 
" style="fill:none;stroke:#000000;stroke-linecap:square;stroke-linejoin:miter;stroke-width:0.8;"/>
   </g>
   <g id="legend_2">
    <g id="patch_13">
     <path d="M 981.421875 319.426838 
L 1029.8 319.426838 
Q 1031.8 319.426838 1031.8 317.426838 
L 1031.8 289.070588 
Q 1031.8 287.070588 1029.8 287.070588 
L 981.421875 287.070588 
Q 979.421875 287.070588 979.421875 289.070588 
L 979.421875 317.426838 
Q 979.421875 319.426838 981.421875 319.426838 
z
" style="fill:#ffffff;opacity:0.8;stroke:#cccccc;stroke-linejoin:miter;"/>
    </g>
    <g id="line2d_33">
     <path d="M 983.421875 295.169026 
L 1003.421875 295.169026 
" style="fill:none;stroke:#1f77b4;stroke-linecap:square;stroke-width:1.5;"/>
    </g>
    <g id="line2d_34"/>
    <g id="text_27">
     <!-- pyr -->
     <g transform="translate(1011.421875 298.669026)scale(0.1 -0.1)">
      <defs>
       <path d="M 32.171875 -5.078125 
Q 28.375 -14.84375 24.75 -17.8125 
Q 21.140625 -20.796875 15.09375 -20.796875 
L 7.90625 -20.796875 
L 7.90625 -13.28125 
L 13.1875 -13.28125 
Q 16.890625 -13.28125 18.9375 -11.515625 
Q 21 -9.765625 23.484375 -3.21875 
L 25.09375 0.875 
L 2.984375 54.6875 
L 12.5 54.6875 
L 29.59375 11.921875 
L 46.6875 54.6875 
L 56.203125 54.6875 
z
" id="DejaVuSans-121"/>
      </defs>
      <use xlink:href="#DejaVuSans-112"/>
      <use x="63.476562" xlink:href="#DejaVuSans-121"/>
      <use x="122.65625" xlink:href="#DejaVuSans-114"/>
     </g>
    </g>
    <g id="line2d_35">
     <path d="M 983.421875 309.847151 
L 1003.421875 309.847151 
" style="fill:none;stroke:#ff7f0e;stroke-linecap:square;stroke-width:1.5;"/>
    </g>
    <g id="line2d_36"/>
    <g id="text_28">
     <!-- py -->
     <g transform="translate(1011.421875 313.347151)scale(0.1 -0.1)">
      <use xlink:href="#DejaVuSans-112"/>
      <use x="63.476562" xlink:href="#DejaVuSans-121"/>
     </g>
    </g>
   </g>
  </g>
  <g id="axes_3">
   <g id="patch_14">
    <path d="M 144 640.8 
L 1036.8 640.8 
L 1036.8 477.741176 
L 144 477.741176 
z
" style="fill:#ffffff;"/>
   </g>
   <g id="matplotlib.axis_5">
    <g id="xtick_15">
     <g id="line2d_37">
      <g>
       <use style="stroke:#000000;stroke-width:0.8;" x="184.581818" xlink:href="#m320e1029bc" y="640.8"/>
      </g>
     </g>
     <g id="text_29">
      <!-- 0 -->
      <g transform="translate(181.400568 655.398438)scale(0.1 -0.1)">
       <use xlink:href="#DejaVuSans-48"/>
      </g>
     </g>
    </g>
    <g id="xtick_16">
     <g id="line2d_38">
      <g>
       <use style="stroke:#000000;stroke-width:0.8;" x="319.944787" xlink:href="#m320e1029bc" y="640.8"/>
      </g>
     </g>
     <g id="text_30">
      <!-- 5 -->
      <g transform="translate(316.763537 655.398438)scale(0.1 -0.1)">
       <use xlink:href="#DejaVuSans-53"/>
      </g>
     </g>
    </g>
    <g id="xtick_17">
     <g id="line2d_39">
      <g>
       <use style="stroke:#000000;stroke-width:0.8;" x="455.307757" xlink:href="#m320e1029bc" y="640.8"/>
      </g>
     </g>
     <g id="text_31">
      <!-- 10 -->
      <g transform="translate(448.945257 655.398438)scale(0.1 -0.1)">
       <use xlink:href="#DejaVuSans-49"/>
       <use x="63.623047" xlink:href="#DejaVuSans-48"/>
      </g>
     </g>
    </g>
    <g id="xtick_18">
     <g id="line2d_40">
      <g>
       <use style="stroke:#000000;stroke-width:0.8;" x="590.670726" xlink:href="#m320e1029bc" y="640.8"/>
      </g>
     </g>
     <g id="text_32">
      <!-- 15 -->
      <g transform="translate(584.308226 655.398438)scale(0.1 -0.1)">
       <use xlink:href="#DejaVuSans-49"/>
       <use x="63.623047" xlink:href="#DejaVuSans-53"/>
      </g>
     </g>
    </g>
    <g id="xtick_19">
     <g id="line2d_41">
      <g>
       <use style="stroke:#000000;stroke-width:0.8;" x="726.033695" xlink:href="#m320e1029bc" y="640.8"/>
      </g>
     </g>
     <g id="text_33">
      <!-- 20 -->
      <g transform="translate(719.671195 655.398438)scale(0.1 -0.1)">
       <use xlink:href="#DejaVuSans-50"/>
       <use x="63.623047" xlink:href="#DejaVuSans-48"/>
      </g>
     </g>
    </g>
    <g id="xtick_20">
     <g id="line2d_42">
      <g>
       <use style="stroke:#000000;stroke-width:0.8;" x="861.396664" xlink:href="#m320e1029bc" y="640.8"/>
      </g>
     </g>
     <g id="text_34">
      <!-- 25 -->
      <g transform="translate(855.034164 655.398438)scale(0.1 -0.1)">
       <use xlink:href="#DejaVuSans-50"/>
       <use x="63.623047" xlink:href="#DejaVuSans-53"/>
      </g>
     </g>
    </g>
    <g id="xtick_21">
     <g id="line2d_43">
      <g>
       <use style="stroke:#000000;stroke-width:0.8;" x="996.759634" xlink:href="#m320e1029bc" y="640.8"/>
      </g>
     </g>
     <g id="text_35">
      <!-- 30 -->
      <g transform="translate(990.397134 655.398438)scale(0.1 -0.1)">
       <use xlink:href="#DejaVuSans-51"/>
       <use x="63.623047" xlink:href="#DejaVuSans-48"/>
      </g>
     </g>
    </g>
   </g>
   <g id="matplotlib.axis_6">
    <g id="ytick_11">
     <g id="line2d_44">
      <g>
       <use style="stroke:#000000;stroke-width:0.8;" x="144" xlink:href="#m06c3a0b293" y="624.87389"/>
      </g>
     </g>
     <g id="text_36">
      <!-- −2.0 -->
      <g transform="translate(112.717187 628.673109)scale(0.1 -0.1)">
       <defs>
        <path d="M 10.59375 35.5 
L 73.1875 35.5 
L 73.1875 27.203125 
L 10.59375 27.203125 
z
" id="DejaVuSans-8722"/>
       </defs>
       <use xlink:href="#DejaVuSans-8722"/>
       <use x="83.789062" xlink:href="#DejaVuSans-50"/>
       <use x="147.412109" xlink:href="#DejaVuSans-46"/>
       <use x="179.199219" xlink:href="#DejaVuSans-48"/>
      </g>
     </g>
    </g>
    <g id="ytick_12">
     <g id="line2d_45">
      <g>
       <use style="stroke:#000000;stroke-width:0.8;" x="144" xlink:href="#m06c3a0b293" y="589.943653"/>
      </g>
     </g>
     <g id="text_37">
      <!-- −1.5 -->
      <g transform="translate(112.717187 593.742872)scale(0.1 -0.1)">
       <use xlink:href="#DejaVuSans-8722"/>
       <use x="83.789062" xlink:href="#DejaVuSans-49"/>
       <use x="147.412109" xlink:href="#DejaVuSans-46"/>
       <use x="179.199219" xlink:href="#DejaVuSans-53"/>
      </g>
     </g>
    </g>
    <g id="ytick_13">
     <g id="line2d_46">
      <g>
       <use style="stroke:#000000;stroke-width:0.8;" x="144" xlink:href="#m06c3a0b293" y="555.013416"/>
      </g>
     </g>
     <g id="text_38">
      <!-- −1.0 -->
      <g transform="translate(112.717187 558.812635)scale(0.1 -0.1)">
       <use xlink:href="#DejaVuSans-8722"/>
       <use x="83.789062" xlink:href="#DejaVuSans-49"/>
       <use x="147.412109" xlink:href="#DejaVuSans-46"/>
       <use x="179.199219" xlink:href="#DejaVuSans-48"/>
      </g>
     </g>
    </g>
    <g id="ytick_14">
     <g id="line2d_47">
      <g>
       <use style="stroke:#000000;stroke-width:0.8;" x="144" xlink:href="#m06c3a0b293" y="520.083178"/>
      </g>
     </g>
     <g id="text_39">
      <!-- −0.5 -->
      <g transform="translate(112.717187 523.882397)scale(0.1 -0.1)">
       <use xlink:href="#DejaVuSans-8722"/>
       <use x="83.789062" xlink:href="#DejaVuSans-48"/>
       <use x="147.412109" xlink:href="#DejaVuSans-46"/>
       <use x="179.199219" xlink:href="#DejaVuSans-53"/>
      </g>
     </g>
    </g>
    <g id="ytick_15">
     <g id="line2d_48">
      <g>
       <use style="stroke:#000000;stroke-width:0.8;" x="144" xlink:href="#m06c3a0b293" y="485.152941"/>
      </g>
     </g>
     <g id="text_40">
      <!-- 0.0 -->
      <g transform="translate(121.096875 488.95216)scale(0.1 -0.1)">
       <use xlink:href="#DejaVuSans-48"/>
       <use x="63.623047" xlink:href="#DejaVuSans-46"/>
       <use x="95.410156" xlink:href="#DejaVuSans-48"/>
      </g>
     </g>
    </g>
   </g>
   <g id="line2d_49">
    <path clip-path="url(#p70e485e91a)" d="M 184.581818 624.87389 
L 996.218182 624.87389 
L 996.218182 624.87389 
" style="fill:none;stroke:#1f77b4;stroke-linecap:square;stroke-width:1.5;"/>
   </g>
   <g id="line2d_50">
    <path clip-path="url(#p70e485e91a)" d="M 184.581818 485.152941 
L 185.12327 485.152941 
L 185.664722 486.185533 
L 186.206174 488.246585 
L 187.830529 496.560715 
L 190.537789 508.957542 
L 193.245048 520.156282 
L 195.952308 530.272838 
L 198.659567 539.411836 
L 201.366826 547.667779 
L 204.074086 555.126026 
L 206.781345 561.863676 
L 209.488605 567.950374 
L 212.195864 573.44903 
L 214.903123 578.416468 
L 217.610383 582.90402 
L 220.317642 586.958056 
L 223.024901 590.620463 
L 225.732161 593.92908 
L 228.43942 596.918087 
L 231.14668 599.618363 
L 234.395391 602.516652 
L 237.644102 605.082321 
L 240.892813 607.353547 
L 244.141525 609.364123 
L 247.931688 611.420077 
L 251.721851 613.203489 
L 255.512014 614.75049 
L 259.843629 616.269015 
L 264.175244 617.559756 
L 269.048311 618.781905 
L 274.46283 619.901876 
L 280.4188 620.89755 
L 286.916223 621.757784 
L 294.496549 622.529143 
L 303.159779 623.179807 
L 313.447365 623.722278 
L 325.900758 624.152139 
L 342.144314 624.481506 
L 347.558833 624.553183 
L 348.100285 625.328044 
L 350.807544 629.99365 
L 351.890448 631.501677 
L 352.973352 632.563081 
L 354.056256 633.132463 
L 355.139159 633.265046 
L 356.222063 633.072709 
L 357.846419 632.419212 
L 362.178034 630.373119 
L 364.343841 629.703449 
L 368.134004 628.870936 
L 374.631427 627.671662 
L 380.045946 626.90061 
L 386.001916 626.27362 
L 393.040791 625.754734 
L 401.704021 625.346759 
L 413.07451 625.053106 
L 429.318067 624.882194 
L 459.09792 624.833404 
L 509.994396 624.860178 
L 511.0773 626.585457 
L 513.784559 631.016428 
L 514.867463 632.284505 
L 515.950367 633.069057 
L 517.033271 633.381383 
L 518.116174 633.315426 
L 519.199078 632.98902 
L 520.823434 632.234852 
L 524.072145 630.662159 
L 526.237953 629.929464 
L 529.486664 629.166855 
L 536.525538 627.820315 
L 541.940057 627.017106 
L 547.896028 626.362104 
L 554.934902 625.818318 
L 563.598132 625.388862 
L 574.42717 625.087792 
L 589.587822 624.903524 
L 616.118964 624.836016 
L 672.429959 624.860949 
L 673.512863 626.586461 
L 676.220123 631.016015 
L 677.303026 632.283055 
L 678.38593 633.066568 
L 679.468834 633.378108 
L 680.551738 633.311741 
L 681.634641 632.985291 
L 683.258997 632.231591 
L 686.507708 630.66058 
L 688.673516 629.928509 
L 691.922227 629.166006 
L 698.961101 627.819774 
L 704.37562 627.016903 
L 710.331591 626.362146 
L 717.370465 625.818535 
L 726.033695 625.389178 
L 736.862733 625.088127 
L 752.023385 624.903802 
L 778.554527 624.836166 
L 834.865522 624.860974 
L 835.948426 626.586493 
L 838.655686 631.016071 
L 839.738589 632.283125 
L 840.821493 633.066651 
L 841.904397 633.3782 
L 842.987301 633.311838 
L 844.070204 632.985389 
L 845.69456 632.231685 
L 848.943271 630.660655 
L 851.109079 629.928573 
L 854.35779 629.166061 
L 861.396664 627.819817 
L 866.811183 627.016937 
L 872.767154 626.362172 
L 879.806028 625.818554 
L 888.469258 625.389191 
L 899.298296 625.088136 
L 914.458948 624.903807 
L 940.99009 624.836168 
L 996.218182 624.860232 
L 996.218182 624.860232 
" style="fill:none;stroke:#ff7f0e;stroke-linecap:square;stroke-width:1.5;"/>
   </g>
   <g id="patch_15">
    <path d="M 144 640.8 
L 144 477.741176 
" style="fill:none;stroke:#000000;stroke-linecap:square;stroke-linejoin:miter;stroke-width:0.8;"/>
   </g>
   <g id="patch_16">
    <path d="M 1036.8 640.8 
L 1036.8 477.741176 
" style="fill:none;stroke:#000000;stroke-linecap:square;stroke-linejoin:miter;stroke-width:0.8;"/>
   </g>
   <g id="patch_17">
    <path d="M 144 640.8 
L 1036.8 640.8 
" style="fill:none;stroke:#000000;stroke-linecap:square;stroke-linejoin:miter;stroke-width:0.8;"/>
   </g>
   <g id="patch_18">
    <path d="M 144 477.741176 
L 1036.8 477.741176 
" style="fill:none;stroke:#000000;stroke-linecap:square;stroke-linejoin:miter;stroke-width:0.8;"/>
   </g>
   <g id="legend_3">
    <g id="patch_19">
     <path d="M 982.092187 515.097426 
L 1029.8 515.097426 
Q 1031.8 515.097426 1031.8 513.097426 
L 1031.8 484.741176 
Q 1031.8 482.741176 1029.8 482.741176 
L 982.092187 482.741176 
Q 980.092187 482.741176 980.092187 484.741176 
L 980.092187 513.097426 
Q 980.092187 515.097426 982.092187 515.097426 
z
" style="fill:#ffffff;opacity:0.8;stroke:#cccccc;stroke-linejoin:miter;"/>
    </g>
    <g id="line2d_51">
     <path d="M 984.092187 490.839614 
L 1004.092187 490.839614 
" style="fill:none;stroke:#1f77b4;stroke-linecap:square;stroke-width:1.5;"/>
    </g>
    <g id="line2d_52"/>
    <g id="text_41">
     <!-- pzr -->
     <g transform="translate(1012.092187 494.339614)scale(0.1 -0.1)">
      <defs>
       <path d="M 5.515625 54.6875 
L 48.1875 54.6875 
L 48.1875 46.484375 
L 14.40625 7.171875 
L 48.1875 7.171875 
L 48.1875 0 
L 4.296875 0 
L 4.296875 8.203125 
L 38.09375 47.515625 
L 5.515625 47.515625 
z
" id="DejaVuSans-122"/>
      </defs>
      <use xlink:href="#DejaVuSans-112"/>
      <use x="63.476562" xlink:href="#DejaVuSans-122"/>
      <use x="115.966797" xlink:href="#DejaVuSans-114"/>
     </g>
    </g>
    <g id="line2d_53">
     <path d="M 984.092187 505.517739 
L 1004.092187 505.517739 
" style="fill:none;stroke:#ff7f0e;stroke-linecap:square;stroke-width:1.5;"/>
    </g>
    <g id="line2d_54"/>
    <g id="text_42">
     <!-- pz -->
     <g transform="translate(1012.092187 509.017739)scale(0.1 -0.1)">
      <use xlink:href="#DejaVuSans-112"/>
      <use x="63.476562" xlink:href="#DejaVuSans-122"/>
     </g>
    </g>
   </g>
  </g>
 </g>
 <defs>
  <clipPath id="pc3b498f8d6">
   <rect height="163.058824" width="892.8" x="144" y="86.4"/>
  </clipPath>
  <clipPath id="pb033649e47">
   <rect height="163.058824" width="892.8" x="144" y="282.070588"/>
  </clipPath>
  <clipPath id="p70e485e91a">
   <rect height="163.058824" width="892.8" x="144" y="477.741176"/>
  </clipPath>
 </defs>
</svg>
