<?xml version="1.0" encoding="utf-8" standalone="no"?>
<!DOCTYPE svg PUBLIC "-//W3C//DTD SVG 1.1//EN"
  "http://www.w3.org/Graphics/SVG/1.1/DTD/svg11.dtd">
<!-- Created with matplotlib (https://matplotlib.org/) -->
<svg height="720pt" version="1.1" viewBox="0 0 1152 720" width="1152pt" xmlns="http://www.w3.org/2000/svg" xmlns:xlink="http://www.w3.org/1999/xlink">
 <metadata>
  <rdf:RDF xmlns:cc="http://creativecommons.org/ns#" xmlns:dc="http://purl.org/dc/elements/1.1/" xmlns:rdf="http://www.w3.org/1999/02/22-rdf-syntax-ns#">
   <cc:Work>
    <dc:type rdf:resource="http://purl.org/dc/dcmitype/StillImage"/>
    <dc:date>2024-12-30T15:12:18.648146</dc:date>
    <dc:format>image/svg+xml</dc:format>
    <dc:creator>
     <cc:Agent>
      <dc:title>Matplotlib v3.3.3, https://matplotlib.org/</dc:title>
     </cc:Agent>
    </dc:creator>
   </cc:Work>
  </rdf:RDF>
 </metadata>
 <defs>
  <style type="text/css">*{stroke-linecap:butt;stroke-linejoin:round;}</style>
 </defs>
 <g id="figure_1">
  <g id="patch_1">
   <path d="M 0 720 
L 1152 720 
L 1152 0 
L 0 0 
z
" style="fill:#ffffff;"/>
  </g>
  <g id="axes_1">
   <g id="patch_2">
    <path d="M 144 206.921739 
L 1036.8 206.921739 
L 1036.8 86.4 
L 144 86.4 
z
" style="fill:#ffffff;"/>
   </g>
   <g id="matplotlib.axis_1">
    <g id="xtick_1">
     <g id="line2d_1">
      <defs>
       <path d="M 0 0 
L 0 3.5 
" id="m612f7ffd5f" style="stroke:#000000;stroke-width:0.8;"/>
      </defs>
      <g>
       <use style="stroke:#000000;stroke-width:0.8;" x="184.581818" xlink:href="#m612f7ffd5f" y="206.921739"/>
      </g>
     </g>
     <g id="text_1">
      <!-- 0 -->
      <g transform="translate(181.400568 221.520177)scale(0.1 -0.1)">
       <defs>
        <path d="M 31.78125 66.40625 
Q 24.171875 66.40625 20.328125 58.90625 
Q 16.5 51.421875 16.5 36.375 
Q 16.5 21.390625 20.328125 13.890625 
Q 24.171875 6.390625 31.78125 6.390625 
Q 39.453125 6.390625 43.28125 13.890625 
Q 47.125 21.390625 47.125 36.375 
Q 47.125 51.421875 43.28125 58.90625 
Q 39.453125 66.40625 31.78125 66.40625 
z
M 31.78125 74.21875 
Q 44.046875 74.21875 50.515625 64.515625 
Q 56.984375 54.828125 56.984375 36.375 
Q 56.984375 17.96875 50.515625 8.265625 
Q 44.046875 -1.421875 31.78125 -1.421875 
Q 19.53125 -1.421875 13.0625 8.265625 
Q 6.59375 17.96875 6.59375 36.375 
Q 6.59375 54.828125 13.0625 64.515625 
Q 19.53125 74.21875 31.78125 74.21875 
z
" id="DejaVuSans-48"/>
       </defs>
       <use xlink:href="#DejaVuSans-48"/>
      </g>
     </g>
    </g>
    <g id="xtick_2">
     <g id="line2d_2">
      <g>
       <use style="stroke:#000000;stroke-width:0.8;" x="319.944787" xlink:href="#m612f7ffd5f" y="206.921739"/>
      </g>
     </g>
     <g id="text_2">
      <!-- 5 -->
      <g transform="translate(316.763537 221.520177)scale(0.1 -0.1)">
       <defs>
        <path d="M 10.796875 72.90625 
L 49.515625 72.90625 
L 49.515625 64.59375 
L 19.828125 64.59375 
L 19.828125 46.734375 
Q 21.96875 47.46875 24.109375 47.828125 
Q 26.265625 48.1875 28.421875 48.1875 
Q 40.625 48.1875 47.75 41.5 
Q 54.890625 34.8125 54.890625 23.390625 
Q 54.890625 11.625 47.5625 5.09375 
Q 40.234375 -1.421875 26.90625 -1.421875 
Q 22.3125 -1.421875 17.546875 -0.640625 
Q 12.796875 0.140625 7.71875 1.703125 
L 7.71875 11.625 
Q 12.109375 9.234375 16.796875 8.0625 
Q 21.484375 6.890625 26.703125 6.890625 
Q 35.15625 6.890625 40.078125 11.328125 
Q 45.015625 15.765625 45.015625 23.390625 
Q 45.015625 31 40.078125 35.4375 
Q 35.15625 39.890625 26.703125 39.890625 
Q 22.75 39.890625 18.8125 39.015625 
Q 14.890625 38.140625 10.796875 36.28125 
z
" id="DejaVuSans-53"/>
       </defs>
       <use xlink:href="#DejaVuSans-53"/>
      </g>
     </g>
    </g>
    <g id="xtick_3">
     <g id="line2d_3">
      <g>
       <use style="stroke:#000000;stroke-width:0.8;" x="455.307757" xlink:href="#m612f7ffd5f" y="206.921739"/>
      </g>
     </g>
     <g id="text_3">
      <!-- 10 -->
      <g transform="translate(448.945257 221.520177)scale(0.1 -0.1)">
       <defs>
        <path d="M 12.40625 8.296875 
L 28.515625 8.296875 
L 28.515625 63.921875 
L 10.984375 60.40625 
L 10.984375 69.390625 
L 28.421875 72.90625 
L 38.28125 72.90625 
L 38.28125 8.296875 
L 54.390625 8.296875 
L 54.390625 0 
L 12.40625 0 
z
" id="DejaVuSans-49"/>
       </defs>
       <use xlink:href="#DejaVuSans-49"/>
       <use x="63.623047" xlink:href="#DejaVuSans-48"/>
      </g>
     </g>
    </g>
    <g id="xtick_4">
     <g id="line2d_4">
      <g>
       <use style="stroke:#000000;stroke-width:0.8;" x="590.670726" xlink:href="#m612f7ffd5f" y="206.921739"/>
      </g>
     </g>
     <g id="text_4">
      <!-- 15 -->
      <g transform="translate(584.308226 221.520177)scale(0.1 -0.1)">
       <use xlink:href="#DejaVuSans-49"/>
       <use x="63.623047" xlink:href="#DejaVuSans-53"/>
      </g>
     </g>
    </g>
    <g id="xtick_5">
     <g id="line2d_5">
      <g>
       <use style="stroke:#000000;stroke-width:0.8;" x="726.033695" xlink:href="#m612f7ffd5f" y="206.921739"/>
      </g>
     </g>
     <g id="text_5">
      <!-- 20 -->
      <g transform="translate(719.671195 221.520177)scale(0.1 -0.1)">
       <defs>
        <path d="M 19.1875 8.296875 
L 53.609375 8.296875 
L 53.609375 0 
L 7.328125 0 
L 7.328125 8.296875 
Q 12.9375 14.109375 22.625 23.890625 
Q 32.328125 33.6875 34.8125 36.53125 
Q 39.546875 41.84375 41.421875 45.53125 
Q 43.3125 49.21875 43.3125 52.78125 
Q 43.3125 58.59375 39.234375 62.25 
Q 35.15625 65.921875 28.609375 65.921875 
Q 23.96875 65.921875 18.8125 64.3125 
Q 13.671875 62.703125 7.8125 59.421875 
L 7.8125 69.390625 
Q 13.765625 71.78125 18.9375 73 
Q 24.125 74.21875 28.421875 74.21875 
Q 39.75 74.21875 46.484375 68.546875 
Q 53.21875 62.890625 53.21875 53.421875 
Q 53.21875 48.921875 51.53125 44.890625 
Q 49.859375 40.875 45.40625 35.40625 
Q 44.1875 33.984375 37.640625 27.21875 
Q 31.109375 20.453125 19.1875 8.296875 
z
" id="DejaVuSans-50"/>
       </defs>
       <use xlink:href="#DejaVuSans-50"/>
       <use x="63.623047" xlink:href="#DejaVuSans-48"/>
      </g>
     </g>
    </g>
    <g id="xtick_6">
     <g id="line2d_6">
      <g>
       <use style="stroke:#000000;stroke-width:0.8;" x="861.396664" xlink:href="#m612f7ffd5f" y="206.921739"/>
      </g>
     </g>
     <g id="text_6">
      <!-- 25 -->
      <g transform="translate(855.034164 221.520177)scale(0.1 -0.1)">
       <use xlink:href="#DejaVuSans-50"/>
       <use x="63.623047" xlink:href="#DejaVuSans-53"/>
      </g>
     </g>
    </g>
    <g id="xtick_7">
     <g id="line2d_7">
      <g>
       <use style="stroke:#000000;stroke-width:0.8;" x="996.759634" xlink:href="#m612f7ffd5f" y="206.921739"/>
      </g>
     </g>
     <g id="text_7">
      <!-- 30 -->
      <g transform="translate(990.397134 221.520177)scale(0.1 -0.1)">
       <defs>
        <path d="M 40.578125 39.3125 
Q 47.65625 37.796875 51.625 33 
Q 55.609375 28.21875 55.609375 21.1875 
Q 55.609375 10.40625 48.1875 4.484375 
Q 40.765625 -1.421875 27.09375 -1.421875 
Q 22.515625 -1.421875 17.65625 -0.515625 
Q 12.796875 0.390625 7.625 2.203125 
L 7.625 11.71875 
Q 11.71875 9.328125 16.59375 8.109375 
Q 21.484375 6.890625 26.8125 6.890625 
Q 36.078125 6.890625 40.9375 10.546875 
Q 45.796875 14.203125 45.796875 21.1875 
Q 45.796875 27.640625 41.28125 31.265625 
Q 36.765625 34.90625 28.71875 34.90625 
L 20.21875 34.90625 
L 20.21875 43.015625 
L 29.109375 43.015625 
Q 36.375 43.015625 40.234375 45.921875 
Q 44.09375 48.828125 44.09375 54.296875 
Q 44.09375 59.90625 40.109375 62.90625 
Q 36.140625 65.921875 28.71875 65.921875 
Q 24.65625 65.921875 20.015625 65.03125 
Q 15.375 64.15625 9.8125 62.3125 
L 9.8125 71.09375 
Q 15.4375 72.65625 20.34375 73.4375 
Q 25.25 74.21875 29.59375 74.21875 
Q 40.828125 74.21875 47.359375 69.109375 
Q 53.90625 64.015625 53.90625 55.328125 
Q 53.90625 49.265625 50.4375 45.09375 
Q 46.96875 40.921875 40.578125 39.3125 
z
" id="DejaVuSans-51"/>
       </defs>
       <use xlink:href="#DejaVuSans-51"/>
       <use x="63.623047" xlink:href="#DejaVuSans-48"/>
      </g>
     </g>
    </g>
   </g>
   <g id="matplotlib.axis_2">
    <g id="ytick_1">
     <g id="line2d_8">
      <defs>
       <path d="M 0 0 
L -3.5 0 
" id="meb2647a2a8" style="stroke:#000000;stroke-width:0.8;"/>
      </defs>
      <g>
       <use style="stroke:#000000;stroke-width:0.8;" x="144" xlink:href="#meb2647a2a8" y="201.44349"/>
      </g>
     </g>
     <g id="text_8">
      <!-- −1.0 -->
      <g transform="translate(112.717187 205.242709)scale(0.1 -0.1)">
       <defs>
        <path d="M 10.59375 35.5 
L 73.1875 35.5 
L 73.1875 27.203125 
L 10.59375 27.203125 
z
" id="DejaVuSans-8722"/>
        <path d="M 10.6875 12.40625 
L 21 12.40625 
L 21 0 
L 10.6875 0 
z
" id="DejaVuSans-46"/>
       </defs>
       <use xlink:href="#DejaVuSans-8722"/>
       <use x="83.789062" xlink:href="#DejaVuSans-49"/>
       <use x="147.412109" xlink:href="#DejaVuSans-46"/>
       <use x="179.199219" xlink:href="#DejaVuSans-48"/>
      </g>
     </g>
    </g>
    <g id="ytick_2">
     <g id="line2d_9">
      <g>
       <use style="stroke:#000000;stroke-width:0.8;" x="144" xlink:href="#meb2647a2a8" y="174.052183"/>
      </g>
     </g>
     <g id="text_9">
      <!-- −0.5 -->
      <g transform="translate(112.717187 177.851401)scale(0.1 -0.1)">
       <use xlink:href="#DejaVuSans-8722"/>
       <use x="83.789062" xlink:href="#DejaVuSans-48"/>
       <use x="147.412109" xlink:href="#DejaVuSans-46"/>
       <use x="179.199219" xlink:href="#DejaVuSans-53"/>
      </g>
     </g>
    </g>
    <g id="ytick_3">
     <g id="line2d_10">
      <g>
       <use style="stroke:#000000;stroke-width:0.8;" x="144" xlink:href="#meb2647a2a8" y="146.660875"/>
      </g>
     </g>
     <g id="text_10">
      <!-- 0.0 -->
      <g transform="translate(121.096875 150.460094)scale(0.1 -0.1)">
       <use xlink:href="#DejaVuSans-48"/>
       <use x="63.623047" xlink:href="#DejaVuSans-46"/>
       <use x="95.410156" xlink:href="#DejaVuSans-48"/>
      </g>
     </g>
    </g>
    <g id="ytick_4">
     <g id="line2d_11">
      <g>
       <use style="stroke:#000000;stroke-width:0.8;" x="144" xlink:href="#meb2647a2a8" y="119.269568"/>
      </g>
     </g>
     <g id="text_11">
      <!-- 0.5 -->
      <g transform="translate(121.096875 123.068787)scale(0.1 -0.1)">
       <use xlink:href="#DejaVuSans-48"/>
       <use x="63.623047" xlink:href="#DejaVuSans-46"/>
       <use x="95.410156" xlink:href="#DejaVuSans-53"/>
      </g>
     </g>
    </g>
    <g id="ytick_5">
     <g id="line2d_12">
      <g>
       <use style="stroke:#000000;stroke-width:0.8;" x="144" xlink:href="#meb2647a2a8" y="91.878261"/>
      </g>
     </g>
     <g id="text_12">
      <!-- 1.0 -->
      <g transform="translate(121.096875 95.67748)scale(0.1 -0.1)">
       <use xlink:href="#DejaVuSans-49"/>
       <use x="63.623047" xlink:href="#DejaVuSans-46"/>
       <use x="95.410156" xlink:href="#DejaVuSans-48"/>
      </g>
     </g>
    </g>
   </g>
   <g id="line2d_13">
    <path clip-path="url(#pa8cdda0c4a)" d="M 184.581818 91.878261 
L 345.934478 91.878261 
L 346.475929 107.923717 
L 508.370041 107.923717 
L 508.911493 146.660875 
L 670.805604 146.660875 
L 671.347056 185.398034 
L 833.241167 185.398034 
L 833.782619 91.878261 
L 996.218182 91.878261 
L 996.218182 91.878261 
" style="fill:none;stroke:#1f77b4;stroke-linecap:square;stroke-width:1.5;"/>
   </g>
   <g id="line2d_14">
    <path clip-path="url(#pa8cdda0c4a)" d="M 184.581818 91.878261 
L 346.475929 91.878261 
L 347.017381 93.090301 
L 348.641737 100.764113 
L 349.183189 101.594466 
L 350.266093 104.262865 
L 350.807544 104.682371 
L 351.348996 104.828819 
L 354.056256 103.742346 
L 355.139159 103.874846 
L 361.09513 105.338537 
L 367.051101 106.57371 
L 370.841264 107.092701 
L 375.714331 107.510171 
L 381.670301 107.769035 
L 390.333531 107.895967 
L 414.157414 107.924322 
L 508.911493 107.923725 
L 509.994396 117.544791 
L 511.0773 126.910853 
L 512.701656 137.332327 
L 513.243108 138.572736 
L 513.784559 139.46894 
L 514.326011 139.700273 
L 515.408915 139.804694 
L 516.491819 139.977563 
L 518.116174 140.637447 
L 520.823434 141.760417 
L 527.320856 144.080522 
L 530.028116 144.808906 
L 533.276827 145.447965 
L 537.06699 145.95239 
L 541.398605 146.302165 
L 547.354576 146.53598 
L 556.559258 146.642291 
L 589.04637 146.660873 
L 671.347056 146.660875 
L 672.429959 156.403024 
L 674.595767 172.66924 
L 675.137219 176.029277 
L 676.220123 178.477043 
L 677.303026 179.451634 
L 678.927382 180.214557 
L 681.093189 181.032793 
L 687.04916 182.825626 
L 690.297871 183.644099 
L 693.546583 184.23615 
L 697.336746 184.702951 
L 702.209813 185.063867 
L 708.707235 185.287717 
L 719.536273 185.384907 
L 767.72549 185.397853 
L 833.782619 185.398026 
L 834.324071 188.159828 
L 834.865522 189.553343 
L 835.406974 190.31253 
L 835.948426 192.018344 
L 837.03133 196.157472 
L 837.572782 197.519664 
L 839.197137 199.394724 
L 840.280041 200.286965 
L 841.362945 200.792547 
L 842.445849 200.995034 
L 845.69456 201.101535 
L 852.733434 201.377981 
L 864.645376 201.436774 
L 995.135278 201.443478 
L 996.218182 201.443478 
L 996.218182 201.443478 
" style="fill:none;stroke:#ff7f0e;stroke-linecap:square;stroke-width:1.5;"/>
   </g>
   <g id="patch_3">
    <path d="M 144 206.921739 
L 144 86.4 
" style="fill:none;stroke:#000000;stroke-linecap:square;stroke-linejoin:miter;stroke-width:0.8;"/>
   </g>
   <g id="patch_4">
    <path d="M 1036.8 206.921739 
L 1036.8 86.4 
" style="fill:none;stroke:#000000;stroke-linecap:square;stroke-linejoin:miter;stroke-width:0.8;"/>
   </g>
   <g id="patch_5">
    <path d="M 144 206.921739 
L 1036.8 206.921739 
" style="fill:none;stroke:#000000;stroke-linecap:square;stroke-linejoin:miter;stroke-width:0.8;"/>
   </g>
   <g id="patch_6">
    <path d="M 144 86.4 
L 1036.8 86.4 
" style="fill:none;stroke:#000000;stroke-linecap:square;stroke-linejoin:miter;stroke-width:0.8;"/>
   </g>
   <g id="legend_1">
    <g id="patch_7">
     <path d="M 151 201.921739 
L 201.6375 201.921739 
Q 203.6375 201.921739 203.6375 199.921739 
L 203.6375 171.565489 
Q 203.6375 169.565489 201.6375 169.565489 
L 151 169.565489 
Q 149 169.565489 149 171.565489 
L 149 199.921739 
Q 149 201.921739 151 201.921739 
z
" style="fill:#ffffff;opacity:0.8;stroke:#cccccc;stroke-linejoin:miter;"/>
    </g>
    <g id="line2d_15">
     <path d="M 153 177.663927 
L 173 177.663927 
" style="fill:none;stroke:#1f77b4;stroke-linecap:square;stroke-width:1.5;"/>
    </g>
    <g id="line2d_16"/>
    <g id="text_13">
     <!-- qwr -->
     <g transform="translate(181 181.163927)scale(0.1 -0.1)">
      <defs>
       <path d="M 14.796875 27.296875 
Q 14.796875 17.390625 18.875 11.75 
Q 22.953125 6.109375 30.078125 6.109375 
Q 37.203125 6.109375 41.296875 11.75 
Q 45.40625 17.390625 45.40625 27.296875 
Q 45.40625 37.203125 41.296875 42.84375 
Q 37.203125 48.484375 30.078125 48.484375 
Q 22.953125 48.484375 18.875 42.84375 
Q 14.796875 37.203125 14.796875 27.296875 
z
M 45.40625 8.203125 
Q 42.578125 3.328125 38.25 0.953125 
Q 33.9375 -1.421875 27.875 -1.421875 
Q 17.96875 -1.421875 11.734375 6.484375 
Q 5.515625 14.40625 5.515625 27.296875 
Q 5.515625 40.1875 11.734375 48.09375 
Q 17.96875 56 27.875 56 
Q 33.9375 56 38.25 53.625 
Q 42.578125 51.265625 45.40625 46.390625 
L 45.40625 54.6875 
L 54.390625 54.6875 
L 54.390625 -20.796875 
L 45.40625 -20.796875 
z
" id="DejaVuSans-113"/>
       <path d="M 4.203125 54.6875 
L 13.1875 54.6875 
L 24.421875 12.015625 
L 35.59375 54.6875 
L 46.1875 54.6875 
L 57.421875 12.015625 
L 68.609375 54.6875 
L 77.59375 54.6875 
L 63.28125 0 
L 52.6875 0 
L 40.921875 44.828125 
L 29.109375 0 
L 18.5 0 
z
" id="DejaVuSans-119"/>
       <path d="M 41.109375 46.296875 
Q 39.59375 47.171875 37.8125 47.578125 
Q 36.03125 48 33.890625 48 
Q 26.265625 48 22.1875 43.046875 
Q 18.109375 38.09375 18.109375 28.8125 
L 18.109375 0 
L 9.078125 0 
L 9.078125 54.6875 
L 18.109375 54.6875 
L 18.109375 46.1875 
Q 20.953125 51.171875 25.484375 53.578125 
Q 30.03125 56 36.53125 56 
Q 37.453125 56 38.578125 55.875 
Q 39.703125 55.765625 41.0625 55.515625 
z
" id="DejaVuSans-114"/>
      </defs>
      <use xlink:href="#DejaVuSans-113"/>
      <use x="63.476562" xlink:href="#DejaVuSans-119"/>
      <use x="145.263672" xlink:href="#DejaVuSans-114"/>
     </g>
    </g>
    <g id="line2d_17">
     <path d="M 153 192.342052 
L 173 192.342052 
" style="fill:none;stroke:#ff7f0e;stroke-linecap:square;stroke-width:1.5;"/>
    </g>
    <g id="line2d_18"/>
    <g id="text_14">
     <!-- qw -->
     <g transform="translate(181 195.842052)scale(0.1 -0.1)">
      <use xlink:href="#DejaVuSans-113"/>
      <use x="63.476562" xlink:href="#DejaVuSans-119"/>
     </g>
    </g>
   </g>
  </g>
  <g id="axes_2">
   <g id="patch_8">
    <path d="M 144 351.547826 
L 1036.8 351.547826 
L 1036.8 231.026087 
L 144 231.026087 
z
" style="fill:#ffffff;"/>
   </g>
   <g id="matplotlib.axis_3">
    <g id="xtick_8">
     <g id="line2d_19">
      <g>
       <use style="stroke:#000000;stroke-width:0.8;" x="184.581818" xlink:href="#m612f7ffd5f" y="351.547826"/>
      </g>
     </g>
     <g id="text_15">
      <!-- 0 -->
      <g transform="translate(181.400568 366.146264)scale(0.1 -0.1)">
       <use xlink:href="#DejaVuSans-48"/>
      </g>
     </g>
    </g>
    <g id="xtick_9">
     <g id="line2d_20">
      <g>
       <use style="stroke:#000000;stroke-width:0.8;" x="319.944787" xlink:href="#m612f7ffd5f" y="351.547826"/>
      </g>
     </g>
     <g id="text_16">
      <!-- 5 -->
      <g transform="translate(316.763537 366.146264)scale(0.1 -0.1)">
       <use xlink:href="#DejaVuSans-53"/>
      </g>
     </g>
    </g>
    <g id="xtick_10">
     <g id="line2d_21">
      <g>
       <use style="stroke:#000000;stroke-width:0.8;" x="455.307757" xlink:href="#m612f7ffd5f" y="351.547826"/>
      </g>
     </g>
     <g id="text_17">
      <!-- 10 -->
      <g transform="translate(448.945257 366.146264)scale(0.1 -0.1)">
       <use xlink:href="#DejaVuSans-49"/>
       <use x="63.623047" xlink:href="#DejaVuSans-48"/>
      </g>
     </g>
    </g>
    <g id="xtick_11">
     <g id="line2d_22">
      <g>
       <use style="stroke:#000000;stroke-width:0.8;" x="590.670726" xlink:href="#m612f7ffd5f" y="351.547826"/>
      </g>
     </g>
     <g id="text_18">
      <!-- 15 -->
      <g transform="translate(584.308226 366.146264)scale(0.1 -0.1)">
       <use xlink:href="#DejaVuSans-49"/>
       <use x="63.623047" xlink:href="#DejaVuSans-53"/>
      </g>
     </g>
    </g>
    <g id="xtick_12">
     <g id="line2d_23">
      <g>
       <use style="stroke:#000000;stroke-width:0.8;" x="726.033695" xlink:href="#m612f7ffd5f" y="351.547826"/>
      </g>
     </g>
     <g id="text_19">
      <!-- 20 -->
      <g transform="translate(719.671195 366.146264)scale(0.1 -0.1)">
       <use xlink:href="#DejaVuSans-50"/>
       <use x="63.623047" xlink:href="#DejaVuSans-48"/>
      </g>
     </g>
    </g>
    <g id="xtick_13">
     <g id="line2d_24">
      <g>
       <use style="stroke:#000000;stroke-width:0.8;" x="861.396664" xlink:href="#m612f7ffd5f" y="351.547826"/>
      </g>
     </g>
     <g id="text_20">
      <!-- 25 -->
      <g transform="translate(855.034164 366.146264)scale(0.1 -0.1)">
       <use xlink:href="#DejaVuSans-50"/>
       <use x="63.623047" xlink:href="#DejaVuSans-53"/>
      </g>
     </g>
    </g>
    <g id="xtick_14">
     <g id="line2d_25">
      <g>
       <use style="stroke:#000000;stroke-width:0.8;" x="996.759634" xlink:href="#m612f7ffd5f" y="351.547826"/>
      </g>
     </g>
     <g id="text_21">
      <!-- 30 -->
      <g transform="translate(990.397134 366.146264)scale(0.1 -0.1)">
       <use xlink:href="#DejaVuSans-51"/>
       <use x="63.623047" xlink:href="#DejaVuSans-48"/>
      </g>
     </g>
    </g>
   </g>
   <g id="matplotlib.axis_4">
    <g id="ytick_6">
     <g id="line2d_26">
      <g>
       <use style="stroke:#000000;stroke-width:0.8;" x="144" xlink:href="#meb2647a2a8" y="335.032196"/>
      </g>
     </g>
     <g id="text_22">
      <!-- −0.2 -->
      <g transform="translate(112.717187 338.831414)scale(0.1 -0.1)">
       <use xlink:href="#DejaVuSans-8722"/>
       <use x="83.789062" xlink:href="#DejaVuSans-48"/>
       <use x="147.412109" xlink:href="#DejaVuSans-46"/>
       <use x="179.199219" xlink:href="#DejaVuSans-50"/>
      </g>
     </g>
    </g>
    <g id="ytick_7">
     <g id="line2d_27">
      <g>
       <use style="stroke:#000000;stroke-width:0.8;" x="144" xlink:href="#meb2647a2a8" y="302.677281"/>
      </g>
     </g>
     <g id="text_23">
      <!-- 0.0 -->
      <g transform="translate(121.096875 306.4765)scale(0.1 -0.1)">
       <use xlink:href="#DejaVuSans-48"/>
       <use x="63.623047" xlink:href="#DejaVuSans-46"/>
       <use x="95.410156" xlink:href="#DejaVuSans-48"/>
      </g>
     </g>
    </g>
    <g id="ytick_8">
     <g id="line2d_28">
      <g>
       <use style="stroke:#000000;stroke-width:0.8;" x="144" xlink:href="#meb2647a2a8" y="270.322367"/>
      </g>
     </g>
     <g id="text_24">
      <!-- 0.2 -->
      <g transform="translate(121.096875 274.121585)scale(0.1 -0.1)">
       <use xlink:href="#DejaVuSans-48"/>
       <use x="63.623047" xlink:href="#DejaVuSans-46"/>
       <use x="95.410156" xlink:href="#DejaVuSans-50"/>
      </g>
     </g>
    </g>
    <g id="ytick_9">
     <g id="line2d_29">
      <g>
       <use style="stroke:#000000;stroke-width:0.8;" x="144" xlink:href="#meb2647a2a8" y="237.967452"/>
      </g>
     </g>
     <g id="text_25">
      <!-- 0.4 -->
      <g transform="translate(121.096875 241.766671)scale(0.1 -0.1)">
       <defs>
        <path d="M 37.796875 64.3125 
L 12.890625 25.390625 
L 37.796875 25.390625 
z
M 35.203125 72.90625 
L 47.609375 72.90625 
L 47.609375 25.390625 
L 58.015625 25.390625 
L 58.015625 17.1875 
L 47.609375 17.1875 
L 47.609375 0 
L 37.796875 0 
L 37.796875 17.1875 
L 4.890625 17.1875 
L 4.890625 26.703125 
z
" id="DejaVuSans-52"/>
       </defs>
       <use xlink:href="#DejaVuSans-48"/>
       <use x="63.623047" xlink:href="#DejaVuSans-46"/>
       <use x="95.410156" xlink:href="#DejaVuSans-52"/>
      </g>
     </g>
    </g>
   </g>
   <g id="line2d_30">
    <path clip-path="url(#pd0d9518cf7)" d="M 184.581818 302.677281 
L 996.218182 302.677281 
L 996.218182 302.677281 
" style="fill:none;stroke:#1f77b4;stroke-linecap:square;stroke-width:1.5;"/>
   </g>
   <g id="line2d_31">
    <path clip-path="url(#pd0d9518cf7)" d="M 184.581818 302.677281 
L 347.017381 302.677281 
L 347.558833 308.795343 
L 349.724641 338.493849 
L 350.266093 343.867718 
L 350.807544 346.069565 
L 351.348996 343.85605 
L 351.890448 339.968605 
L 355.139159 309.51336 
L 355.680611 306.354368 
L 356.222063 303.906834 
L 356.763515 302.110625 
L 357.304967 300.895591 
L 357.846419 300.186572 
L 358.387871 299.904426 
L 358.929323 299.967126 
L 359.470774 300.291428 
L 360.553678 301.402339 
L 362.178034 303.209365 
L 363.260938 304.001166 
L 364.343841 304.337923 
L 365.426745 304.290406 
L 367.051101 303.799894 
L 370.299812 302.657544 
L 372.46562 302.20793 
L 375.172879 301.910956 
L 380.045946 301.650512 
L 386.543368 301.542739 
L 396.289502 301.642629 
L 440.147104 302.279746 
L 476.965832 302.509908 
L 508.911493 302.59858 
L 509.452944 281.186266 
L 509.994396 269.908638 
L 510.535848 265.427353 
L 511.0773 270.924712 
L 512.701656 307.57204 
L 513.243108 316.023548 
L 513.784559 319.403179 
L 514.326011 320.66989 
L 514.867463 320.069533 
L 515.408915 318.625638 
L 517.033271 313.248638 
L 518.116174 310.793065 
L 519.199078 309.273055 
L 520.281982 308.322946 
L 521.364886 307.710791 
L 522.989241 307.150066 
L 530.569568 305.142639 
L 533.818279 304.318866 
L 537.06699 303.723893 
L 540.857153 303.245094 
L 545.73022 302.8713 
L 551.686191 302.657437 
L 561.432325 302.571967 
L 604.207023 302.630002 
L 671.347056 302.667559 
L 671.888507 272.389506 
L 672.429959 250.68079 
L 672.971411 236.504348 
L 673.512863 236.507269 
L 674.595767 256.700036 
L 675.678671 278.318543 
L 676.761574 291.144647 
L 677.844478 299.283744 
L 678.927382 304.996307 
L 680.010286 309.228507 
L 680.551738 310.816715 
L 681.093189 312.021613 
L 681.634641 312.830788 
L 682.176093 313.254045 
L 682.717545 313.321807 
L 683.258997 313.081378 
L 683.800449 312.591404 
L 684.883353 311.123804 
L 687.04916 307.90587 
L 688.132064 306.773779 
L 689.214968 306.066638 
L 690.297871 305.701476 
L 691.922227 305.523882 
L 696.253842 305.315314 
L 709.248687 304.022362 
L 716.829013 303.707579 
L 730.36531 303.41561 
L 757.979356 303.072532 
L 795.339535 302.842031 
L 833.782619 302.743742 
L 834.865522 261.920221 
L 835.406974 246.360117 
L 835.948426 240.866284 
L 836.489878 241.990704 
L 837.03133 244.83798 
L 838.114234 254.898218 
L 841.362945 293.738586 
L 842.445849 302.744762 
L 842.987301 306.076991 
L 843.528753 308.631732 
L 844.070204 310.443612 
L 844.611656 311.570184 
L 845.153108 312.087304 
L 845.69456 312.085714 
L 846.236012 311.666196 
L 846.777464 310.934665 
L 847.860368 308.951983 
L 849.484723 305.97984 
L 850.567627 304.624831 
L 851.109079 304.187182 
L 851.650531 303.898436 
L 852.733434 303.686305 
L 853.816338 303.79986 
L 858.147953 304.721157 
L 860.313761 304.822812 
L 864.645376 304.691229 
L 881.430384 304.133518 
L 904.171363 303.5708 
L 929.078149 303.181578 
L 961.565262 302.912364 
L 996.218182 302.782318 
L 996.218182 302.782318 
" style="fill:none;stroke:#ff7f0e;stroke-linecap:square;stroke-width:1.5;"/>
   </g>
   <g id="patch_9">
    <path d="M 144 351.547826 
L 144 231.026087 
" style="fill:none;stroke:#000000;stroke-linecap:square;stroke-linejoin:miter;stroke-width:0.8;"/>
   </g>
   <g id="patch_10">
    <path d="M 1036.8 351.547826 
L 1036.8 231.026087 
" style="fill:none;stroke:#000000;stroke-linecap:square;stroke-linejoin:miter;stroke-width:0.8;"/>
   </g>
   <g id="patch_11">
    <path d="M 144 351.547826 
L 1036.8 351.547826 
" style="fill:none;stroke:#000000;stroke-linecap:square;stroke-linejoin:miter;stroke-width:0.8;"/>
   </g>
   <g id="patch_12">
    <path d="M 144 231.026087 
L 1036.8 231.026087 
" style="fill:none;stroke:#000000;stroke-linecap:square;stroke-linejoin:miter;stroke-width:0.8;"/>
   </g>
   <g id="legend_2">
    <g id="patch_13">
     <path d="M 981.421875 268.382337 
L 1029.8 268.382337 
Q 1031.8 268.382337 1031.8 266.382337 
L 1031.8 238.026087 
Q 1031.8 236.026087 1029.8 236.026087 
L 981.421875 236.026087 
Q 979.421875 236.026087 979.421875 238.026087 
L 979.421875 266.382337 
Q 979.421875 268.382337 981.421875 268.382337 
z
" style="fill:#ffffff;opacity:0.8;stroke:#cccccc;stroke-linejoin:miter;"/>
    </g>
    <g id="line2d_32">
     <path d="M 983.421875 244.124524 
L 1003.421875 244.124524 
" style="fill:none;stroke:#1f77b4;stroke-linecap:square;stroke-width:1.5;"/>
    </g>
    <g id="line2d_33"/>
    <g id="text_26">
     <!-- qxr -->
     <g transform="translate(1011.421875 247.624524)scale(0.1 -0.1)">
      <defs>
       <path d="M 54.890625 54.6875 
L 35.109375 28.078125 
L 55.90625 0 
L 45.3125 0 
L 29.390625 21.484375 
L 13.484375 0 
L 2.875 0 
L 24.125 28.609375 
L 4.6875 54.6875 
L 15.28125 54.6875 
L 29.78125 35.203125 
L 44.28125 54.6875 
z
" id="DejaVuSans-120"/>
      </defs>
      <use xlink:href="#DejaVuSans-113"/>
      <use x="63.476562" xlink:href="#DejaVuSans-120"/>
      <use x="122.65625" xlink:href="#DejaVuSans-114"/>
     </g>
    </g>
    <g id="line2d_34">
     <path d="M 983.421875 258.802649 
L 1003.421875 258.802649 
" style="fill:none;stroke:#ff7f0e;stroke-linecap:square;stroke-width:1.5;"/>
    </g>
    <g id="line2d_35"/>
    <g id="text_27">
     <!-- qx -->
     <g transform="translate(1011.421875 262.302649)scale(0.1 -0.1)">
      <use xlink:href="#DejaVuSans-113"/>
      <use x="63.476562" xlink:href="#DejaVuSans-120"/>
     </g>
    </g>
   </g>
  </g>
  <g id="axes_3">
   <g id="patch_14">
    <path d="M 144 496.173913 
L 1036.8 496.173913 
L 1036.8 375.652174 
L 144 375.652174 
z
" style="fill:#ffffff;"/>
   </g>
   <g id="matplotlib.axis_5">
    <g id="xtick_15">
     <g id="line2d_36">
      <g>
       <use style="stroke:#000000;stroke-width:0.8;" x="184.581818" xlink:href="#m612f7ffd5f" y="496.173913"/>
      </g>
     </g>
     <g id="text_28">
      <!-- 0 -->
      <g transform="translate(181.400568 510.772351)scale(0.1 -0.1)">
       <use xlink:href="#DejaVuSans-48"/>
      </g>
     </g>
    </g>
    <g id="xtick_16">
     <g id="line2d_37">
      <g>
       <use style="stroke:#000000;stroke-width:0.8;" x="319.944787" xlink:href="#m612f7ffd5f" y="496.173913"/>
      </g>
     </g>
     <g id="text_29">
      <!-- 5 -->
      <g transform="translate(316.763537 510.772351)scale(0.1 -0.1)">
       <use xlink:href="#DejaVuSans-53"/>
      </g>
     </g>
    </g>
    <g id="xtick_17">
     <g id="line2d_38">
      <g>
       <use style="stroke:#000000;stroke-width:0.8;" x="455.307757" xlink:href="#m612f7ffd5f" y="496.173913"/>
      </g>
     </g>
     <g id="text_30">
      <!-- 10 -->
      <g transform="translate(448.945257 510.772351)scale(0.1 -0.1)">
       <use xlink:href="#DejaVuSans-49"/>
       <use x="63.623047" xlink:href="#DejaVuSans-48"/>
      </g>
     </g>
    </g>
    <g id="xtick_18">
     <g id="line2d_39">
      <g>
       <use style="stroke:#000000;stroke-width:0.8;" x="590.670726" xlink:href="#m612f7ffd5f" y="496.173913"/>
      </g>
     </g>
     <g id="text_31">
      <!-- 15 -->
      <g transform="translate(584.308226 510.772351)scale(0.1 -0.1)">
       <use xlink:href="#DejaVuSans-49"/>
       <use x="63.623047" xlink:href="#DejaVuSans-53"/>
      </g>
     </g>
    </g>
    <g id="xtick_19">
     <g id="line2d_40">
      <g>
       <use style="stroke:#000000;stroke-width:0.8;" x="726.033695" xlink:href="#m612f7ffd5f" y="496.173913"/>
      </g>
     </g>
     <g id="text_32">
      <!-- 20 -->
      <g transform="translate(719.671195 510.772351)scale(0.1 -0.1)">
       <use xlink:href="#DejaVuSans-50"/>
       <use x="63.623047" xlink:href="#DejaVuSans-48"/>
      </g>
     </g>
    </g>
    <g id="xtick_20">
     <g id="line2d_41">
      <g>
       <use style="stroke:#000000;stroke-width:0.8;" x="861.396664" xlink:href="#m612f7ffd5f" y="496.173913"/>
      </g>
     </g>
     <g id="text_33">
      <!-- 25 -->
      <g transform="translate(855.034164 510.772351)scale(0.1 -0.1)">
       <use xlink:href="#DejaVuSans-50"/>
       <use x="63.623047" xlink:href="#DejaVuSans-53"/>
      </g>
     </g>
    </g>
    <g id="xtick_21">
     <g id="line2d_42">
      <g>
       <use style="stroke:#000000;stroke-width:0.8;" x="996.759634" xlink:href="#m612f7ffd5f" y="496.173913"/>
      </g>
     </g>
     <g id="text_34">
      <!-- 30 -->
      <g transform="translate(990.397134 510.772351)scale(0.1 -0.1)">
       <use xlink:href="#DejaVuSans-51"/>
       <use x="63.623047" xlink:href="#DejaVuSans-48"/>
      </g>
     </g>
    </g>
   </g>
   <g id="matplotlib.axis_6">
    <g id="ytick_10">
     <g id="line2d_43">
      <g>
       <use style="stroke:#000000;stroke-width:0.8;" x="144" xlink:href="#meb2647a2a8" y="488.405578"/>
      </g>
     </g>
     <g id="text_35">
      <!-- −0.4 -->
      <g transform="translate(112.717187 492.204797)scale(0.1 -0.1)">
       <use xlink:href="#DejaVuSans-8722"/>
       <use x="83.789062" xlink:href="#DejaVuSans-48"/>
       <use x="147.412109" xlink:href="#DejaVuSans-46"/>
       <use x="179.199219" xlink:href="#DejaVuSans-52"/>
      </g>
     </g>
    </g>
    <g id="ytick_11">
     <g id="line2d_44">
      <g>
       <use style="stroke:#000000;stroke-width:0.8;" x="144" xlink:href="#meb2647a2a8" y="454.369192"/>
      </g>
     </g>
     <g id="text_36">
      <!-- −0.2 -->
      <g transform="translate(112.717187 458.168411)scale(0.1 -0.1)">
       <use xlink:href="#DejaVuSans-8722"/>
       <use x="83.789062" xlink:href="#DejaVuSans-48"/>
       <use x="147.412109" xlink:href="#DejaVuSans-46"/>
       <use x="179.199219" xlink:href="#DejaVuSans-50"/>
      </g>
     </g>
    </g>
    <g id="ytick_12">
     <g id="line2d_45">
      <g>
       <use style="stroke:#000000;stroke-width:0.8;" x="144" xlink:href="#meb2647a2a8" y="420.332807"/>
      </g>
     </g>
     <g id="text_37">
      <!-- 0.0 -->
      <g transform="translate(121.096875 424.132026)scale(0.1 -0.1)">
       <use xlink:href="#DejaVuSans-48"/>
       <use x="63.623047" xlink:href="#DejaVuSans-46"/>
       <use x="95.410156" xlink:href="#DejaVuSans-48"/>
      </g>
     </g>
    </g>
    <g id="ytick_13">
     <g id="line2d_46">
      <g>
       <use style="stroke:#000000;stroke-width:0.8;" x="144" xlink:href="#meb2647a2a8" y="386.296421"/>
      </g>
     </g>
     <g id="text_38">
      <!-- 0.2 -->
      <g transform="translate(121.096875 390.09564)scale(0.1 -0.1)">
       <use xlink:href="#DejaVuSans-48"/>
       <use x="63.623047" xlink:href="#DejaVuSans-46"/>
       <use x="95.410156" xlink:href="#DejaVuSans-50"/>
      </g>
     </g>
    </g>
   </g>
   <g id="line2d_47">
    <path clip-path="url(#p11feef9860)" d="M 184.581818 420.332807 
L 996.218182 420.332807 
L 996.218182 420.332807 
" style="fill:none;stroke:#1f77b4;stroke-linecap:square;stroke-width:1.5;"/>
   </g>
   <g id="line2d_48">
    <path clip-path="url(#p11feef9860)" d="M 184.581818 420.332807 
L 346.475929 420.332807 
L 347.017381 452.174419 
L 347.558833 475.191729 
L 348.100285 490.324806 
L 348.641737 490.695652 
L 349.724641 469.840603 
L 350.807544 447.425014 
L 351.890448 433.832662 
L 352.973352 424.98346 
L 354.056256 418.652043 
L 355.139159 413.908527 
L 355.680611 412.11023 
L 356.222063 410.729453 
L 356.763515 409.780826 
L 357.304967 409.255224 
L 357.846419 409.121169 
L 358.387871 409.328683 
L 358.929323 409.815141 
L 360.012226 411.343544 
L 362.178034 414.798065 
L 363.260938 416.032421 
L 364.343841 416.807208 
L 365.426745 417.206267 
L 366.509649 417.363366 
L 373.548523 417.825376 
L 379.504494 418.529872 
L 384.919013 418.921664 
L 392.499339 419.238046 
L 406.035636 419.543446 
L 432.566778 419.899737 
L 468.302602 420.145225 
L 508.911493 420.260904 
L 509.994396 463.200874 
L 510.535848 479.575701 
L 511.0773 485.368482 
L 511.618752 484.183907 
L 512.160204 481.195151 
L 513.243108 470.617361 
L 516.491819 429.749028 
L 517.574723 420.265758 
L 518.116174 416.755823 
L 518.657626 414.064094 
L 519.199078 412.15436 
L 519.74053 410.96625 
L 520.281982 410.420094 
L 520.823434 410.420511 
L 521.364886 410.8615 
L 521.906338 411.631592 
L 522.989241 413.720542 
L 524.613597 416.854441 
L 525.696501 418.284075 
L 526.237953 418.745993 
L 526.779404 419.05083 
L 527.862308 419.274937 
L 528.945212 419.155198 
L 533.276827 418.182215 
L 535.442634 418.074655 
L 539.774249 418.213223 
L 556.017806 418.783268 
L 578.217333 419.369325 
L 602.582667 419.781571 
L 633.445424 420.065686 
L 671.888507 420.22248 
L 672.429959 426.268506 
L 674.595767 458.013526 
L 675.137219 463.550747 
L 675.678671 465.788565 
L 676.220123 463.370031 
L 676.761574 459.207523 
L 679.468834 431.204973 
L 680.551738 423.837195 
L 681.093189 421.304093 
L 681.634641 419.459851 
L 682.176093 418.229163 
L 682.717545 417.531176 
L 683.258997 417.280658 
L 683.800449 417.389368 
L 684.341901 417.768013 
L 685.424804 418.991149 
L 687.04916 420.919904 
L 688.132064 421.744788 
L 689.214968 422.081527 
L 690.297871 422.012959 
L 691.380775 421.688238 
L 695.170938 420.265093 
L 697.336746 419.795865 
L 700.044005 419.488573 
L 704.917072 419.220555 
L 710.873043 419.113769 
L 720.077725 419.204326 
L 767.184038 419.927706 
L 803.461314 420.160145 
L 833.782619 420.248445 
L 834.324071 397.725131 
L 834.865522 385.85231 
L 835.406974 381.130435 
L 835.948426 386.913766 
L 837.572782 425.464545 
L 838.114234 434.355131 
L 838.655686 437.910716 
L 839.197137 439.242493 
L 839.738589 438.612007 
L 840.280041 437.094371 
L 841.904397 431.444986 
L 842.987301 428.865359 
L 844.070204 427.268324 
L 845.153108 426.269806 
L 846.236012 425.626212 
L 847.860368 425.036177 
L 854.899242 423.089261 
L 858.147953 422.183873 
L 861.396664 421.521846 
L 865.186828 420.9886 
L 869.518443 420.6034 
L 874.932961 420.353232 
L 883.05474 420.232358 
L 903.629911 420.243966 
L 996.218182 420.322461 
L 996.218182 420.322461 
" style="fill:none;stroke:#ff7f0e;stroke-linecap:square;stroke-width:1.5;"/>
   </g>
   <g id="patch_15">
    <path d="M 144 496.173913 
L 144 375.652174 
" style="fill:none;stroke:#000000;stroke-linecap:square;stroke-linejoin:miter;stroke-width:0.8;"/>
   </g>
   <g id="patch_16">
    <path d="M 1036.8 496.173913 
L 1036.8 375.652174 
" style="fill:none;stroke:#000000;stroke-linecap:square;stroke-linejoin:miter;stroke-width:0.8;"/>
   </g>
   <g id="patch_17">
    <path d="M 144 496.173913 
L 1036.8 496.173913 
" style="fill:none;stroke:#000000;stroke-linecap:square;stroke-linejoin:miter;stroke-width:0.8;"/>
   </g>
   <g id="patch_18">
    <path d="M 144 375.652174 
L 1036.8 375.652174 
" style="fill:none;stroke:#000000;stroke-linecap:square;stroke-linejoin:miter;stroke-width:0.8;"/>
   </g>
   <g id="legend_3">
    <g id="patch_19">
     <path d="M 981.421875 413.008424 
L 1029.8 413.008424 
Q 1031.8 413.008424 1031.8 411.008424 
L 1031.8 382.652174 
Q 1031.8 380.652174 1029.8 380.652174 
L 981.421875 380.652174 
Q 979.421875 380.652174 979.421875 382.652174 
L 979.421875 411.008424 
Q 979.421875 413.008424 981.421875 413.008424 
z
" style="fill:#ffffff;opacity:0.8;stroke:#cccccc;stroke-linejoin:miter;"/>
    </g>
    <g id="line2d_49">
     <path d="M 983.421875 388.750611 
L 1003.421875 388.750611 
" style="fill:none;stroke:#1f77b4;stroke-linecap:square;stroke-width:1.5;"/>
    </g>
    <g id="line2d_50"/>
    <g id="text_39">
     <!-- qyr -->
     <g transform="translate(1011.421875 392.250611)scale(0.1 -0.1)">
      <defs>
       <path d="M 32.171875 -5.078125 
Q 28.375 -14.84375 24.75 -17.8125 
Q 21.140625 -20.796875 15.09375 -20.796875 
L 7.90625 -20.796875 
L 7.90625 -13.28125 
L 13.1875 -13.28125 
Q 16.890625 -13.28125 18.9375 -11.515625 
Q 21 -9.765625 23.484375 -3.21875 
L 25.09375 0.875 
L 2.984375 54.6875 
L 12.5 54.6875 
L 29.59375 11.921875 
L 46.6875 54.6875 
L 56.203125 54.6875 
z
" id="DejaVuSans-121"/>
      </defs>
      <use xlink:href="#DejaVuSans-113"/>
      <use x="63.476562" xlink:href="#DejaVuSans-121"/>
      <use x="122.65625" xlink:href="#DejaVuSans-114"/>
     </g>
    </g>
    <g id="line2d_51">
     <path d="M 983.421875 403.428736 
L 1003.421875 403.428736 
" style="fill:none;stroke:#ff7f0e;stroke-linecap:square;stroke-width:1.5;"/>
    </g>
    <g id="line2d_52"/>
    <g id="text_40">
     <!-- qy -->
     <g transform="translate(1011.421875 406.928736)scale(0.1 -0.1)">
      <use xlink:href="#DejaVuSans-113"/>
      <use x="63.476562" xlink:href="#DejaVuSans-121"/>
     </g>
    </g>
   </g>
  </g>
  <g id="axes_4">
   <g id="patch_20">
    <path d="M 144 640.8 
L 1036.8 640.8 
L 1036.8 520.278261 
L 144 520.278261 
z
" style="fill:#ffffff;"/>
   </g>
   <g id="matplotlib.axis_7">
    <g id="xtick_22">
     <g id="line2d_53">
      <g>
       <use style="stroke:#000000;stroke-width:0.8;" x="184.581818" xlink:href="#m612f7ffd5f" y="640.8"/>
      </g>
     </g>
     <g id="text_41">
      <!-- 0 -->
      <g transform="translate(181.400568 655.398438)scale(0.1 -0.1)">
       <use xlink:href="#DejaVuSans-48"/>
      </g>
     </g>
    </g>
    <g id="xtick_23">
     <g id="line2d_54">
      <g>
       <use style="stroke:#000000;stroke-width:0.8;" x="319.944787" xlink:href="#m612f7ffd5f" y="640.8"/>
      </g>
     </g>
     <g id="text_42">
      <!-- 5 -->
      <g transform="translate(316.763537 655.398438)scale(0.1 -0.1)">
       <use xlink:href="#DejaVuSans-53"/>
      </g>
     </g>
    </g>
    <g id="xtick_24">
     <g id="line2d_55">
      <g>
       <use style="stroke:#000000;stroke-width:0.8;" x="455.307757" xlink:href="#m612f7ffd5f" y="640.8"/>
      </g>
     </g>
     <g id="text_43">
      <!-- 10 -->
      <g transform="translate(448.945257 655.398438)scale(0.1 -0.1)">
       <use xlink:href="#DejaVuSans-49"/>
       <use x="63.623047" xlink:href="#DejaVuSans-48"/>
      </g>
     </g>
    </g>
    <g id="xtick_25">
     <g id="line2d_56">
      <g>
       <use style="stroke:#000000;stroke-width:0.8;" x="590.670726" xlink:href="#m612f7ffd5f" y="640.8"/>
      </g>
     </g>
     <g id="text_44">
      <!-- 15 -->
      <g transform="translate(584.308226 655.398438)scale(0.1 -0.1)">
       <use xlink:href="#DejaVuSans-49"/>
       <use x="63.623047" xlink:href="#DejaVuSans-53"/>
      </g>
     </g>
    </g>
    <g id="xtick_26">
     <g id="line2d_57">
      <g>
       <use style="stroke:#000000;stroke-width:0.8;" x="726.033695" xlink:href="#m612f7ffd5f" y="640.8"/>
      </g>
     </g>
     <g id="text_45">
      <!-- 20 -->
      <g transform="translate(719.671195 655.398438)scale(0.1 -0.1)">
       <use xlink:href="#DejaVuSans-50"/>
       <use x="63.623047" xlink:href="#DejaVuSans-48"/>
      </g>
     </g>
    </g>
    <g id="xtick_27">
     <g id="line2d_58">
      <g>
       <use style="stroke:#000000;stroke-width:0.8;" x="861.396664" xlink:href="#m612f7ffd5f" y="640.8"/>
      </g>
     </g>
     <g id="text_46">
      <!-- 25 -->
      <g transform="translate(855.034164 655.398438)scale(0.1 -0.1)">
       <use xlink:href="#DejaVuSans-50"/>
       <use x="63.623047" xlink:href="#DejaVuSans-53"/>
      </g>
     </g>
    </g>
    <g id="xtick_28">
     <g id="line2d_59">
      <g>
       <use style="stroke:#000000;stroke-width:0.8;" x="996.759634" xlink:href="#m612f7ffd5f" y="640.8"/>
      </g>
     </g>
     <g id="text_47">
      <!-- 30 -->
      <g transform="translate(990.397134 655.398438)scale(0.1 -0.1)">
       <use xlink:href="#DejaVuSans-51"/>
       <use x="63.623047" xlink:href="#DejaVuSans-48"/>
      </g>
     </g>
    </g>
   </g>
   <g id="matplotlib.axis_8">
    <g id="ytick_14">
     <g id="line2d_60">
      <g>
       <use style="stroke:#000000;stroke-width:0.8;" x="144" xlink:href="#meb2647a2a8" y="635.321739"/>
      </g>
     </g>
     <g id="text_48">
      <!-- 0.0 -->
      <g transform="translate(121.096875 639.120958)scale(0.1 -0.1)">
       <use xlink:href="#DejaVuSans-48"/>
       <use x="63.623047" xlink:href="#DejaVuSans-46"/>
       <use x="95.410156" xlink:href="#DejaVuSans-48"/>
      </g>
     </g>
    </g>
    <g id="ytick_15">
     <g id="line2d_61">
      <g>
       <use style="stroke:#000000;stroke-width:0.8;" x="144" xlink:href="#meb2647a2a8" y="613.408696"/>
      </g>
     </g>
     <g id="text_49">
      <!-- 0.2 -->
      <g transform="translate(121.096875 617.207914)scale(0.1 -0.1)">
       <use xlink:href="#DejaVuSans-48"/>
       <use x="63.623047" xlink:href="#DejaVuSans-46"/>
       <use x="95.410156" xlink:href="#DejaVuSans-50"/>
      </g>
     </g>
    </g>
    <g id="ytick_16">
     <g id="line2d_62">
      <g>
       <use style="stroke:#000000;stroke-width:0.8;" x="144" xlink:href="#meb2647a2a8" y="591.495652"/>
      </g>
     </g>
     <g id="text_50">
      <!-- 0.4 -->
      <g transform="translate(121.096875 595.294871)scale(0.1 -0.1)">
       <use xlink:href="#DejaVuSans-48"/>
       <use x="63.623047" xlink:href="#DejaVuSans-46"/>
       <use x="95.410156" xlink:href="#DejaVuSans-52"/>
      </g>
     </g>
    </g>
    <g id="ytick_17">
     <g id="line2d_63">
      <g>
       <use style="stroke:#000000;stroke-width:0.8;" x="144" xlink:href="#meb2647a2a8" y="569.582609"/>
      </g>
     </g>
     <g id="text_51">
      <!-- 0.6 -->
      <g transform="translate(121.096875 573.381827)scale(0.1 -0.1)">
       <defs>
        <path d="M 33.015625 40.375 
Q 26.375 40.375 22.484375 35.828125 
Q 18.609375 31.296875 18.609375 23.390625 
Q 18.609375 15.53125 22.484375 10.953125 
Q 26.375 6.390625 33.015625 6.390625 
Q 39.65625 6.390625 43.53125 10.953125 
Q 47.40625 15.53125 47.40625 23.390625 
Q 47.40625 31.296875 43.53125 35.828125 
Q 39.65625 40.375 33.015625 40.375 
z
M 52.59375 71.296875 
L 52.59375 62.3125 
Q 48.875 64.0625 45.09375 64.984375 
Q 41.3125 65.921875 37.59375 65.921875 
Q 27.828125 65.921875 22.671875 59.328125 
Q 17.53125 52.734375 16.796875 39.40625 
Q 19.671875 43.65625 24.015625 45.921875 
Q 28.375 48.1875 33.59375 48.1875 
Q 44.578125 48.1875 50.953125 41.515625 
Q 57.328125 34.859375 57.328125 23.390625 
Q 57.328125 12.15625 50.6875 5.359375 
Q 44.046875 -1.421875 33.015625 -1.421875 
Q 20.359375 -1.421875 13.671875 8.265625 
Q 6.984375 17.96875 6.984375 36.375 
Q 6.984375 53.65625 15.1875 63.9375 
Q 23.390625 74.21875 37.203125 74.21875 
Q 40.921875 74.21875 44.703125 73.484375 
Q 48.484375 72.75 52.59375 71.296875 
z
" id="DejaVuSans-54"/>
       </defs>
       <use xlink:href="#DejaVuSans-48"/>
       <use x="63.623047" xlink:href="#DejaVuSans-46"/>
       <use x="95.410156" xlink:href="#DejaVuSans-54"/>
      </g>
     </g>
    </g>
    <g id="ytick_18">
     <g id="line2d_64">
      <g>
       <use style="stroke:#000000;stroke-width:0.8;" x="144" xlink:href="#meb2647a2a8" y="547.669565"/>
      </g>
     </g>
     <g id="text_52">
      <!-- 0.8 -->
      <g transform="translate(121.096875 551.468784)scale(0.1 -0.1)">
       <defs>
        <path d="M 31.78125 34.625 
Q 24.75 34.625 20.71875 30.859375 
Q 16.703125 27.09375 16.703125 20.515625 
Q 16.703125 13.921875 20.71875 10.15625 
Q 24.75 6.390625 31.78125 6.390625 
Q 38.8125 6.390625 42.859375 10.171875 
Q 46.921875 13.96875 46.921875 20.515625 
Q 46.921875 27.09375 42.890625 30.859375 
Q 38.875 34.625 31.78125 34.625 
z
M 21.921875 38.8125 
Q 15.578125 40.375 12.03125 44.71875 
Q 8.5 49.078125 8.5 55.328125 
Q 8.5 64.0625 14.71875 69.140625 
Q 20.953125 74.21875 31.78125 74.21875 
Q 42.671875 74.21875 48.875 69.140625 
Q 55.078125 64.0625 55.078125 55.328125 
Q 55.078125 49.078125 51.53125 44.71875 
Q 48 40.375 41.703125 38.8125 
Q 48.828125 37.15625 52.796875 32.3125 
Q 56.78125 27.484375 56.78125 20.515625 
Q 56.78125 9.90625 50.3125 4.234375 
Q 43.84375 -1.421875 31.78125 -1.421875 
Q 19.734375 -1.421875 13.25 4.234375 
Q 6.78125 9.90625 6.78125 20.515625 
Q 6.78125 27.484375 10.78125 32.3125 
Q 14.796875 37.15625 21.921875 38.8125 
z
M 18.3125 54.390625 
Q 18.3125 48.734375 21.84375 45.5625 
Q 25.390625 42.390625 31.78125 42.390625 
Q 38.140625 42.390625 41.71875 45.5625 
Q 45.3125 48.734375 45.3125 54.390625 
Q 45.3125 60.0625 41.71875 63.234375 
Q 38.140625 66.40625 31.78125 66.40625 
Q 25.390625 66.40625 21.84375 63.234375 
Q 18.3125 60.0625 18.3125 54.390625 
z
" id="DejaVuSans-56"/>
       </defs>
       <use xlink:href="#DejaVuSans-48"/>
       <use x="63.623047" xlink:href="#DejaVuSans-46"/>
       <use x="95.410156" xlink:href="#DejaVuSans-56"/>
      </g>
     </g>
    </g>
    <g id="ytick_19">
     <g id="line2d_65">
      <g>
       <use style="stroke:#000000;stroke-width:0.8;" x="144" xlink:href="#meb2647a2a8" y="525.756522"/>
      </g>
     </g>
     <g id="text_53">
      <!-- 1.0 -->
      <g transform="translate(121.096875 529.55574)scale(0.1 -0.1)">
       <use xlink:href="#DejaVuSans-49"/>
       <use x="63.623047" xlink:href="#DejaVuSans-46"/>
       <use x="95.410156" xlink:href="#DejaVuSans-48"/>
      </g>
     </g>
    </g>
   </g>
   <g id="line2d_66">
    <path clip-path="url(#pbef7c58d4a)" d="M 184.581818 635.321739 
L 345.934478 635.321739 
L 346.475929 557.847431 
L 508.370041 557.847431 
L 508.911493 525.756522 
L 670.805604 525.756522 
L 671.347056 557.847431 
L 833.241167 557.847431 
L 833.782619 635.321739 
L 996.218182 635.321739 
L 996.218182 635.321739 
" style="fill:none;stroke:#1f77b4;stroke-linecap:square;stroke-width:1.5;"/>
   </g>
   <g id="line2d_67">
    <path clip-path="url(#pbef7c58d4a)" d="M 184.581818 635.321739 
L 346.475929 635.321739 
L 347.558833 615.867814 
L 349.724641 583.181048 
L 350.266093 576.498055 
L 351.348996 571.545141 
L 351.890448 570.417827 
L 352.4319 569.561745 
L 353.514804 568.495643 
L 355.680611 566.789744 
L 357.846419 565.453477 
L 363.802389 562.059634 
L 365.968197 561.084268 
L 368.675456 560.14146 
L 371.382716 559.444778 
L 374.631427 558.850051 
L 378.42159 558.402605 
L 383.294657 558.088285 
L 389.79208 557.917495 
L 402.786925 557.852851 
L 508.911493 557.847447 
L 509.452944 552.323655 
L 509.994396 549.535332 
L 510.535848 548.017353 
L 511.0773 544.609813 
L 512.160204 536.333775 
L 512.701656 533.609898 
L 514.326011 529.859324 
L 515.408915 528.073003 
L 515.950367 527.473337 
L 516.491819 527.06034 
L 517.574723 526.654654 
L 519.199078 526.538032 
L 521.364886 526.384128 
L 525.696501 525.972683 
L 531.111019 525.821045 
L 544.105865 525.76484 
L 671.347056 525.756544 
L 671.888507 528.181858 
L 673.512863 543.248648 
L 674.054315 544.894863 
L 675.137219 550.208024 
L 675.678671 551.036425 
L 676.220123 551.352855 
L 677.303026 550.34545 
L 677.844478 549.790751 
L 678.38593 549.443924 
L 678.927382 549.321622 
L 679.468834 549.403602 
L 680.551738 549.919415 
L 682.717545 551.147793 
L 687.04916 553.100704 
L 690.297871 554.524849 
L 693.005131 555.456606 
L 695.71239 556.164899 
L 698.961101 556.780423 
L 702.751264 557.252182 
L 707.082879 557.563559 
L 713.03885 557.758106 
L 723.867888 557.841659 
L 788.300661 557.847568 
L 833.782619 557.847447 
L 834.865522 577.091747 
L 835.948426 595.825858 
L 837.572782 616.670564 
L 838.114234 619.150788 
L 838.655686 620.94176 
L 839.197137 621.40487 
L 839.738589 621.607685 
L 840.821493 621.723264 
L 841.362945 621.962623 
L 842.445849 622.794382 
L 845.153108 625.11742 
L 850.567627 629.102011 
L 852.733434 630.491886 
L 854.899242 631.623618 
L 857.065049 632.523609 
L 859.772309 633.386635 
L 862.479568 634.017994 
L 865.728279 634.539392 
L 869.518443 634.912322 
L 874.391509 635.157841 
L 881.971836 635.288974 
L 902.005555 635.321572 
L 996.218182 635.321739 
L 996.218182 635.321739 
" style="fill:none;stroke:#ff7f0e;stroke-linecap:square;stroke-width:1.5;"/>
   </g>
   <g id="patch_21">
    <path d="M 144 640.8 
L 144 520.278261 
" style="fill:none;stroke:#000000;stroke-linecap:square;stroke-linejoin:miter;stroke-width:0.8;"/>
   </g>
   <g id="patch_22">
    <path d="M 1036.8 640.8 
L 1036.8 520.278261 
" style="fill:none;stroke:#000000;stroke-linecap:square;stroke-linejoin:miter;stroke-width:0.8;"/>
   </g>
   <g id="patch_23">
    <path d="M 144 640.8 
L 1036.8 640.8 
" style="fill:none;stroke:#000000;stroke-linecap:square;stroke-linejoin:miter;stroke-width:0.8;"/>
   </g>
   <g id="patch_24">
    <path d="M 144 520.278261 
L 1036.8 520.278261 
" style="fill:none;stroke:#000000;stroke-linecap:square;stroke-linejoin:miter;stroke-width:0.8;"/>
   </g>
   <g id="legend_4">
    <g id="patch_25">
     <path d="M 982.092187 557.634511 
L 1029.8 557.634511 
Q 1031.8 557.634511 1031.8 555.634511 
L 1031.8 527.278261 
Q 1031.8 525.278261 1029.8 525.278261 
L 982.092187 525.278261 
Q 980.092187 525.278261 980.092187 527.278261 
L 980.092187 555.634511 
Q 980.092187 557.634511 982.092187 557.634511 
z
" style="fill:#ffffff;opacity:0.8;stroke:#cccccc;stroke-linejoin:miter;"/>
    </g>
    <g id="line2d_68">
     <path d="M 984.092187 533.376698 
L 1004.092187 533.376698 
" style="fill:none;stroke:#1f77b4;stroke-linecap:square;stroke-width:1.5;"/>
    </g>
    <g id="line2d_69"/>
    <g id="text_54">
     <!-- qzr -->
     <g transform="translate(1012.092187 536.876698)scale(0.1 -0.1)">
      <defs>
       <path d="M 5.515625 54.6875 
L 48.1875 54.6875 
L 48.1875 46.484375 
L 14.40625 7.171875 
L 48.1875 7.171875 
L 48.1875 0 
L 4.296875 0 
L 4.296875 8.203125 
L 38.09375 47.515625 
L 5.515625 47.515625 
z
" id="DejaVuSans-122"/>
      </defs>
      <use xlink:href="#DejaVuSans-113"/>
      <use x="63.476562" xlink:href="#DejaVuSans-122"/>
      <use x="115.966797" xlink:href="#DejaVuSans-114"/>
     </g>
    </g>
    <g id="line2d_70">
     <path d="M 984.092187 548.054823 
L 1004.092187 548.054823 
" style="fill:none;stroke:#ff7f0e;stroke-linecap:square;stroke-width:1.5;"/>
    </g>
    <g id="line2d_71"/>
    <g id="text_55">
     <!-- qz -->
     <g transform="translate(1012.092187 551.554823)scale(0.1 -0.1)">
      <use xlink:href="#DejaVuSans-113"/>
      <use x="63.476562" xlink:href="#DejaVuSans-122"/>
     </g>
    </g>
   </g>
  </g>
 </g>
 <defs>
  <clipPath id="pa8cdda0c4a">
   <rect height="120.521739" width="892.8" x="144" y="86.4"/>
  </clipPath>
  <clipPath id="pd0d9518cf7">
   <rect height="120.521739" width="892.8" x="144" y="231.026087"/>
  </clipPath>
  <clipPath id="p11feef9860">
   <rect height="120.521739" width="892.8" x="144" y="375.652174"/>
  </clipPath>
  <clipPath id="pbef7c58d4a">
   <rect height="120.521739" width="892.8" x="144" y="520.278261"/>
  </clipPath>
 </defs>
</svg>
