<?xml version="1.0" encoding="utf-8" standalone="no"?>
<!DOCTYPE svg PUBLIC "-//W3C//DTD SVG 1.1//EN"
  "http://www.w3.org/Graphics/SVG/1.1/DTD/svg11.dtd">
<!-- Created with matplotlib (https://matplotlib.org/) -->
<svg height="720pt" version="1.1" viewBox="0 0 1152 720" width="1152pt" xmlns="http://www.w3.org/2000/svg" xmlns:xlink="http://www.w3.org/1999/xlink">
 <metadata>
  <rdf:RDF xmlns:cc="http://creativecommons.org/ns#" xmlns:dc="http://purl.org/dc/elements/1.1/" xmlns:rdf="http://www.w3.org/1999/02/22-rdf-syntax-ns#">
   <cc:Work>
    <dc:type rdf:resource="http://purl.org/dc/dcmitype/StillImage"/>
    <dc:date>2024-12-30T15:12:18.501234</dc:date>
    <dc:format>image/svg+xml</dc:format>
    <dc:creator>
     <cc:Agent>
      <dc:title>Matplotlib v3.3.3, https://matplotlib.org/</dc:title>
     </cc:Agent>
    </dc:creator>
   </cc:Work>
  </rdf:RDF>
 </metadata>
 <defs>
  <style type="text/css">*{stroke-linecap:butt;stroke-linejoin:round;}</style>
 </defs>
 <g id="figure_1">
  <g id="patch_1">
   <path d="M 0 720 
L 1152 720 
L 1152 0 
L 0 0 
z
" style="fill:#ffffff;"/>
  </g>
  <g id="axes_1">
   <g id="patch_2">
    <path d="M 144 249.458824 
L 1036.8 249.458824 
L 1036.8 86.4 
L 144 86.4 
z
" style="fill:#ffffff;"/>
   </g>
   <g id="matplotlib.axis_1">
    <g id="xtick_1">
     <g id="line2d_1">
      <defs>
       <path d="M 0 0 
L 0 3.5 
" id="m61edb1b1bc" style="stroke:#000000;stroke-width:0.8;"/>
      </defs>
      <g>
       <use style="stroke:#000000;stroke-width:0.8;" x="184.581818" xlink:href="#m61edb1b1bc" y="249.458824"/>
      </g>
     </g>
     <g id="text_1">
      <!-- 0 -->
      <g transform="translate(181.400568 264.057261)scale(0.1 -0.1)">
       <defs>
        <path d="M 31.78125 66.40625 
Q 24.171875 66.40625 20.328125 58.90625 
Q 16.5 51.421875 16.5 36.375 
Q 16.5 21.390625 20.328125 13.890625 
Q 24.171875 6.390625 31.78125 6.390625 
Q 39.453125 6.390625 43.28125 13.890625 
Q 47.125 21.390625 47.125 36.375 
Q 47.125 51.421875 43.28125 58.90625 
Q 39.453125 66.40625 31.78125 66.40625 
z
M 31.78125 74.21875 
Q 44.046875 74.21875 50.515625 64.515625 
Q 56.984375 54.828125 56.984375 36.375 
Q 56.984375 17.96875 50.515625 8.265625 
Q 44.046875 -1.421875 31.78125 -1.421875 
Q 19.53125 -1.421875 13.0625 8.265625 
Q 6.59375 17.96875 6.59375 36.375 
Q 6.59375 54.828125 13.0625 64.515625 
Q 19.53125 74.21875 31.78125 74.21875 
z
" id="DejaVuSans-48"/>
       </defs>
       <use xlink:href="#DejaVuSans-48"/>
      </g>
     </g>
    </g>
    <g id="xtick_2">
     <g id="line2d_2">
      <g>
       <use style="stroke:#000000;stroke-width:0.8;" x="319.944787" xlink:href="#m61edb1b1bc" y="249.458824"/>
      </g>
     </g>
     <g id="text_2">
      <!-- 5 -->
      <g transform="translate(316.763537 264.057261)scale(0.1 -0.1)">
       <defs>
        <path d="M 10.796875 72.90625 
L 49.515625 72.90625 
L 49.515625 64.59375 
L 19.828125 64.59375 
L 19.828125 46.734375 
Q 21.96875 47.46875 24.109375 47.828125 
Q 26.265625 48.1875 28.421875 48.1875 
Q 40.625 48.1875 47.75 41.5 
Q 54.890625 34.8125 54.890625 23.390625 
Q 54.890625 11.625 47.5625 5.09375 
Q 40.234375 -1.421875 26.90625 -1.421875 
Q 22.3125 -1.421875 17.546875 -0.640625 
Q 12.796875 0.140625 7.71875 1.703125 
L 7.71875 11.625 
Q 12.109375 9.234375 16.796875 8.0625 
Q 21.484375 6.890625 26.703125 6.890625 
Q 35.15625 6.890625 40.078125 11.328125 
Q 45.015625 15.765625 45.015625 23.390625 
Q 45.015625 31 40.078125 35.4375 
Q 35.15625 39.890625 26.703125 39.890625 
Q 22.75 39.890625 18.8125 39.015625 
Q 14.890625 38.140625 10.796875 36.28125 
z
" id="DejaVuSans-53"/>
       </defs>
       <use xlink:href="#DejaVuSans-53"/>
      </g>
     </g>
    </g>
    <g id="xtick_3">
     <g id="line2d_3">
      <g>
       <use style="stroke:#000000;stroke-width:0.8;" x="455.307757" xlink:href="#m61edb1b1bc" y="249.458824"/>
      </g>
     </g>
     <g id="text_3">
      <!-- 10 -->
      <g transform="translate(448.945257 264.057261)scale(0.1 -0.1)">
       <defs>
        <path d="M 12.40625 8.296875 
L 28.515625 8.296875 
L 28.515625 63.921875 
L 10.984375 60.40625 
L 10.984375 69.390625 
L 28.421875 72.90625 
L 38.28125 72.90625 
L 38.28125 8.296875 
L 54.390625 8.296875 
L 54.390625 0 
L 12.40625 0 
z
" id="DejaVuSans-49"/>
       </defs>
       <use xlink:href="#DejaVuSans-49"/>
       <use x="63.623047" xlink:href="#DejaVuSans-48"/>
      </g>
     </g>
    </g>
    <g id="xtick_4">
     <g id="line2d_4">
      <g>
       <use style="stroke:#000000;stroke-width:0.8;" x="590.670726" xlink:href="#m61edb1b1bc" y="249.458824"/>
      </g>
     </g>
     <g id="text_4">
      <!-- 15 -->
      <g transform="translate(584.308226 264.057261)scale(0.1 -0.1)">
       <use xlink:href="#DejaVuSans-49"/>
       <use x="63.623047" xlink:href="#DejaVuSans-53"/>
      </g>
     </g>
    </g>
    <g id="xtick_5">
     <g id="line2d_5">
      <g>
       <use style="stroke:#000000;stroke-width:0.8;" x="726.033695" xlink:href="#m61edb1b1bc" y="249.458824"/>
      </g>
     </g>
     <g id="text_5">
      <!-- 20 -->
      <g transform="translate(719.671195 264.057261)scale(0.1 -0.1)">
       <defs>
        <path d="M 19.1875 8.296875 
L 53.609375 8.296875 
L 53.609375 0 
L 7.328125 0 
L 7.328125 8.296875 
Q 12.9375 14.109375 22.625 23.890625 
Q 32.328125 33.6875 34.8125 36.53125 
Q 39.546875 41.84375 41.421875 45.53125 
Q 43.3125 49.21875 43.3125 52.78125 
Q 43.3125 58.59375 39.234375 62.25 
Q 35.15625 65.921875 28.609375 65.921875 
Q 23.96875 65.921875 18.8125 64.3125 
Q 13.671875 62.703125 7.8125 59.421875 
L 7.8125 69.390625 
Q 13.765625 71.78125 18.9375 73 
Q 24.125 74.21875 28.421875 74.21875 
Q 39.75 74.21875 46.484375 68.546875 
Q 53.21875 62.890625 53.21875 53.421875 
Q 53.21875 48.921875 51.53125 44.890625 
Q 49.859375 40.875 45.40625 35.40625 
Q 44.1875 33.984375 37.640625 27.21875 
Q 31.109375 20.453125 19.1875 8.296875 
z
" id="DejaVuSans-50"/>
       </defs>
       <use xlink:href="#DejaVuSans-50"/>
       <use x="63.623047" xlink:href="#DejaVuSans-48"/>
      </g>
     </g>
    </g>
    <g id="xtick_6">
     <g id="line2d_6">
      <g>
       <use style="stroke:#000000;stroke-width:0.8;" x="861.396664" xlink:href="#m61edb1b1bc" y="249.458824"/>
      </g>
     </g>
     <g id="text_6">
      <!-- 25 -->
      <g transform="translate(855.034164 264.057261)scale(0.1 -0.1)">
       <use xlink:href="#DejaVuSans-50"/>
       <use x="63.623047" xlink:href="#DejaVuSans-53"/>
      </g>
     </g>
    </g>
    <g id="xtick_7">
     <g id="line2d_7">
      <g>
       <use style="stroke:#000000;stroke-width:0.8;" x="996.759634" xlink:href="#m61edb1b1bc" y="249.458824"/>
      </g>
     </g>
     <g id="text_7">
      <!-- 30 -->
      <g transform="translate(990.397134 264.057261)scale(0.1 -0.1)">
       <defs>
        <path d="M 40.578125 39.3125 
Q 47.65625 37.796875 51.625 33 
Q 55.609375 28.21875 55.609375 21.1875 
Q 55.609375 10.40625 48.1875 4.484375 
Q 40.765625 -1.421875 27.09375 -1.421875 
Q 22.515625 -1.421875 17.65625 -0.515625 
Q 12.796875 0.390625 7.625 2.203125 
L 7.625 11.71875 
Q 11.71875 9.328125 16.59375 8.109375 
Q 21.484375 6.890625 26.8125 6.890625 
Q 36.078125 6.890625 40.9375 10.546875 
Q 45.796875 14.203125 45.796875 21.1875 
Q 45.796875 27.640625 41.28125 31.265625 
Q 36.765625 34.90625 28.71875 34.90625 
L 20.21875 34.90625 
L 20.21875 43.015625 
L 29.109375 43.015625 
Q 36.375 43.015625 40.234375 45.921875 
Q 44.09375 48.828125 44.09375 54.296875 
Q 44.09375 59.90625 40.109375 62.90625 
Q 36.140625 65.921875 28.71875 65.921875 
Q 24.65625 65.921875 20.015625 65.03125 
Q 15.375 64.15625 9.8125 62.3125 
L 9.8125 71.09375 
Q 15.4375 72.65625 20.34375 73.4375 
Q 25.25 74.21875 29.59375 74.21875 
Q 40.828125 74.21875 47.359375 69.109375 
Q 53.90625 64.015625 53.90625 55.328125 
Q 53.90625 49.265625 50.4375 45.09375 
Q 46.96875 40.921875 40.578125 39.3125 
z
" id="DejaVuSans-51"/>
       </defs>
       <use xlink:href="#DejaVuSans-51"/>
       <use x="63.623047" xlink:href="#DejaVuSans-48"/>
      </g>
     </g>
    </g>
   </g>
   <g id="matplotlib.axis_2">
    <g id="ytick_1">
     <g id="line2d_8">
      <defs>
       <path d="M 0 0 
L -3.5 0 
" id="mb9f96b963c" style="stroke:#000000;stroke-width:0.8;"/>
      </defs>
      <g>
       <use style="stroke:#000000;stroke-width:0.8;" x="144" xlink:href="#mb9f96b963c" y="231.986667"/>
      </g>
     </g>
     <g id="text_8">
      <!-- 0.0 -->
      <g transform="translate(121.096875 235.785886)scale(0.1 -0.1)">
       <defs>
        <path d="M 10.6875 12.40625 
L 21 12.40625 
L 21 0 
L 10.6875 0 
z
" id="DejaVuSans-46"/>
       </defs>
       <use xlink:href="#DejaVuSans-48"/>
       <use x="63.623047" xlink:href="#DejaVuSans-46"/>
       <use x="95.410156" xlink:href="#DejaVuSans-48"/>
      </g>
     </g>
    </g>
    <g id="ytick_2">
     <g id="line2d_9">
      <g>
       <use style="stroke:#000000;stroke-width:0.8;" x="144" xlink:href="#mb9f96b963c" y="208.09894"/>
      </g>
     </g>
     <g id="text_9">
      <!-- 0.1 -->
      <g transform="translate(121.096875 211.898159)scale(0.1 -0.1)">
       <use xlink:href="#DejaVuSans-48"/>
       <use x="63.623047" xlink:href="#DejaVuSans-46"/>
       <use x="95.410156" xlink:href="#DejaVuSans-49"/>
      </g>
     </g>
    </g>
    <g id="ytick_3">
     <g id="line2d_10">
      <g>
       <use style="stroke:#000000;stroke-width:0.8;" x="144" xlink:href="#mb9f96b963c" y="184.211214"/>
      </g>
     </g>
     <g id="text_10">
      <!-- 0.2 -->
      <g transform="translate(121.096875 188.010433)scale(0.1 -0.1)">
       <use xlink:href="#DejaVuSans-48"/>
       <use x="63.623047" xlink:href="#DejaVuSans-46"/>
       <use x="95.410156" xlink:href="#DejaVuSans-50"/>
      </g>
     </g>
    </g>
    <g id="ytick_4">
     <g id="line2d_11">
      <g>
       <use style="stroke:#000000;stroke-width:0.8;" x="144" xlink:href="#mb9f96b963c" y="160.323488"/>
      </g>
     </g>
     <g id="text_11">
      <!-- 0.3 -->
      <g transform="translate(121.096875 164.122706)scale(0.1 -0.1)">
       <use xlink:href="#DejaVuSans-48"/>
       <use x="63.623047" xlink:href="#DejaVuSans-46"/>
       <use x="95.410156" xlink:href="#DejaVuSans-51"/>
      </g>
     </g>
    </g>
    <g id="ytick_5">
     <g id="line2d_12">
      <g>
       <use style="stroke:#000000;stroke-width:0.8;" x="144" xlink:href="#mb9f96b963c" y="136.435761"/>
      </g>
     </g>
     <g id="text_12">
      <!-- 0.4 -->
      <g transform="translate(121.096875 140.23498)scale(0.1 -0.1)">
       <defs>
        <path d="M 37.796875 64.3125 
L 12.890625 25.390625 
L 37.796875 25.390625 
z
M 35.203125 72.90625 
L 47.609375 72.90625 
L 47.609375 25.390625 
L 58.015625 25.390625 
L 58.015625 17.1875 
L 47.609375 17.1875 
L 47.609375 0 
L 37.796875 0 
L 37.796875 17.1875 
L 4.890625 17.1875 
L 4.890625 26.703125 
z
" id="DejaVuSans-52"/>
       </defs>
       <use xlink:href="#DejaVuSans-48"/>
       <use x="63.623047" xlink:href="#DejaVuSans-46"/>
       <use x="95.410156" xlink:href="#DejaVuSans-52"/>
      </g>
     </g>
    </g>
    <g id="ytick_6">
     <g id="line2d_13">
      <g>
       <use style="stroke:#000000;stroke-width:0.8;" x="144" xlink:href="#mb9f96b963c" y="112.548035"/>
      </g>
     </g>
     <g id="text_13">
      <!-- 0.5 -->
      <g transform="translate(121.096875 116.347253)scale(0.1 -0.1)">
       <use xlink:href="#DejaVuSans-48"/>
       <use x="63.623047" xlink:href="#DejaVuSans-46"/>
       <use x="95.410156" xlink:href="#DejaVuSans-53"/>
      </g>
     </g>
    </g>
    <g id="ytick_7">
     <g id="line2d_14">
      <g>
       <use style="stroke:#000000;stroke-width:0.8;" x="144" xlink:href="#mb9f96b963c" y="88.660308"/>
      </g>
     </g>
     <g id="text_14">
      <!-- 0.6 -->
      <g transform="translate(121.096875 92.459527)scale(0.1 -0.1)">
       <defs>
        <path d="M 33.015625 40.375 
Q 26.375 40.375 22.484375 35.828125 
Q 18.609375 31.296875 18.609375 23.390625 
Q 18.609375 15.53125 22.484375 10.953125 
Q 26.375 6.390625 33.015625 6.390625 
Q 39.65625 6.390625 43.53125 10.953125 
Q 47.40625 15.53125 47.40625 23.390625 
Q 47.40625 31.296875 43.53125 35.828125 
Q 39.65625 40.375 33.015625 40.375 
z
M 52.59375 71.296875 
L 52.59375 62.3125 
Q 48.875 64.0625 45.09375 64.984375 
Q 41.3125 65.921875 37.59375 65.921875 
Q 27.828125 65.921875 22.671875 59.328125 
Q 17.53125 52.734375 16.796875 39.40625 
Q 19.671875 43.65625 24.015625 45.921875 
Q 28.375 48.1875 33.59375 48.1875 
Q 44.578125 48.1875 50.953125 41.515625 
Q 57.328125 34.859375 57.328125 23.390625 
Q 57.328125 12.15625 50.6875 5.359375 
Q 44.046875 -1.421875 33.015625 -1.421875 
Q 20.359375 -1.421875 13.671875 8.265625 
Q 6.984375 17.96875 6.984375 36.375 
Q 6.984375 53.65625 15.1875 63.9375 
Q 23.390625 74.21875 37.203125 74.21875 
Q 40.921875 74.21875 44.703125 73.484375 
Q 48.484375 72.75 52.59375 71.296875 
z
" id="DejaVuSans-54"/>
       </defs>
       <use xlink:href="#DejaVuSans-48"/>
       <use x="63.623047" xlink:href="#DejaVuSans-46"/>
       <use x="95.410156" xlink:href="#DejaVuSans-54"/>
      </g>
     </g>
    </g>
   </g>
   <g id="line2d_15">
    <path clip-path="url(#p3783050711)" d="M 184.581818 231.986667 
L 996.218182 231.986667 
L 996.218182 231.986667 
" style="fill:none;stroke:#1f77b4;stroke-linecap:square;stroke-width:1.5;"/>
   </g>
   <g id="line2d_16">
    <path clip-path="url(#p3783050711)" d="M 184.581818 231.986667 
L 347.017381 231.986667 
L 347.558833 214.842332 
L 349.724641 107.77727 
L 350.266093 96.341218 
L 350.807544 93.811765 
L 351.348996 97.052091 
L 351.890448 103.225541 
L 354.597708 140.224553 
L 355.680611 151.832069 
L 357.304967 166.419311 
L 358.929323 178.618997 
L 360.553678 188.891378 
L 362.178034 197.609977 
L 363.802389 205.134313 
L 365.426745 211.683312 
L 367.051101 217.330536 
L 368.675456 222.106202 
L 370.299812 226.066447 
L 371.924168 229.29838 
L 373.548523 231.900368 
L 375.172879 233.966271 
L 376.797235 235.579455 
L 378.42159 236.81273 
L 380.045946 237.729934 
L 381.670301 238.387187 
L 383.294657 238.833524 
L 385.460465 239.172719 
L 387.626272 239.294212 
L 390.333531 239.237036 
L 394.123695 238.925038 
L 401.162569 238.070564 
L 413.615962 236.583755 
L 423.903548 235.602397 
L 435.274037 234.754768 
L 448.268882 234.02459 
L 463.429535 233.411512 
L 481.297447 232.920877 
L 504.038426 232.532488 
L 509.452944 232.466927 
L 509.994396 215.30545 
L 512.160204 108.915374 
L 512.701656 97.876925 
L 513.243108 95.794171 
L 513.784559 99.519852 
L 514.326011 106.147213 
L 516.491819 137.795773 
L 517.574723 150.674306 
L 518.657626 161.475534 
L 520.281982 175.045681 
L 521.906338 186.328211 
L 523.530693 195.85728 
L 525.155049 204.061968 
L 526.779404 211.237465 
L 528.40376 217.492868 
L 530.028116 222.838246 
L 531.652471 227.296621 
L 533.276827 230.93995 
L 534.901183 233.870183 
L 536.525538 236.192947 
L 538.149894 238.00355 
L 539.774249 239.384139 
L 541.398605 240.405605 
L 543.022961 241.129893 
L 544.647316 241.611358 
L 546.271672 241.897338 
L 548.43748 242.043877 
L 551.144739 241.957622 
L 554.39345 241.607168 
L 559.807969 240.74595 
L 573.885718 238.407633 
L 582.548948 237.235135 
L 591.75363 236.216396 
L 602.041215 235.307105 
L 613.411705 234.526269 
L 626.40655 233.855349 
L 642.108654 233.276218 
L 661.05947 232.810711 
L 671.888507 232.624643 
L 672.429959 215.461403 
L 674.595767 109.04808 
L 675.137219 98.004988 
L 675.678671 95.916612 
L 676.220123 99.636565 
L 676.761574 106.257672 
L 678.927382 137.880608 
L 680.010286 150.750128 
L 681.093189 161.544625 
L 682.717545 175.10651 
L 684.341901 186.38183 
L 685.966256 195.90464 
L 687.590612 204.103675 
L 689.214968 211.273486 
L 690.839323 217.522917 
L 692.463679 222.86231 
L 694.088034 227.315076 
L 695.71239 230.953384 
L 697.336746 233.879214 
L 698.961101 236.198148 
L 700.585457 238.005443 
L 702.209813 239.38321 
L 703.834168 240.40231 
L 705.458524 241.124661 
L 707.082879 241.60458 
L 708.707235 241.889364 
L 710.873043 242.034774 
L 713.580302 241.947711 
L 716.829013 241.596923 
L 722.243532 240.736059 
L 736.321281 238.400115 
L 744.984511 237.228974 
L 754.189193 236.211427 
L 764.476778 235.303204 
L 775.847268 234.523284 
L 789.383565 233.829438 
L 805.085669 233.258329 
L 824.036485 232.799278 
L 834.324071 232.623894 
L 834.865522 215.460667 
L 837.03133 109.047077 
L 837.572782 98.003789 
L 838.114234 95.915204 
L 838.655686 99.634936 
L 839.197137 106.255844 
L 841.362945 137.878277 
L 842.445849 150.747711 
L 843.528753 161.542205 
L 845.153108 175.104188 
L 846.777464 186.379646 
L 848.401819 195.902562 
L 850.026175 204.101653 
L 851.650531 211.271487 
L 853.274886 217.520934 
L 854.899242 222.860354 
L 856.523598 227.31316 
L 858.147953 230.951517 
L 859.772309 233.877403 
L 861.396664 236.196396 
L 863.02102 238.00375 
L 864.645376 239.381576 
L 866.269731 240.400734 
L 867.894087 241.123141 
L 869.518443 241.603115 
L 871.142798 241.887953 
L 873.308606 242.033432 
L 876.015865 241.946449 
L 879.264576 241.595753 
L 884.679095 240.735027 
L 898.756844 238.39937 
L 907.420074 237.228366 
L 916.624756 236.210937 
L 926.912342 235.302819 
L 938.282831 234.52299 
L 951.819128 233.829224 
L 967.521232 233.258181 
L 986.472048 232.799183 
L 996.218182 232.640337 
L 996.218182 232.640337 
" style="fill:none;stroke:#ff7f0e;stroke-linecap:square;stroke-width:1.5;"/>
   </g>
   <g id="patch_3">
    <path d="M 144 249.458824 
L 144 86.4 
" style="fill:none;stroke:#000000;stroke-linecap:square;stroke-linejoin:miter;stroke-width:0.8;"/>
   </g>
   <g id="patch_4">
    <path d="M 1036.8 249.458824 
L 1036.8 86.4 
" style="fill:none;stroke:#000000;stroke-linecap:square;stroke-linejoin:miter;stroke-width:0.8;"/>
   </g>
   <g id="patch_5">
    <path d="M 144 249.458824 
L 1036.8 249.458824 
" style="fill:none;stroke:#000000;stroke-linecap:square;stroke-linejoin:miter;stroke-width:0.8;"/>
   </g>
   <g id="patch_6">
    <path d="M 144 86.4 
L 1036.8 86.4 
" style="fill:none;stroke:#000000;stroke-linecap:square;stroke-linejoin:miter;stroke-width:0.8;"/>
   </g>
   <g id="legend_1">
    <g id="patch_7">
     <path d="M 981.851562 123.75625 
L 1029.8 123.75625 
Q 1031.8 123.75625 1031.8 121.75625 
L 1031.8 93.4 
Q 1031.8 91.4 1029.8 91.4 
L 981.851562 91.4 
Q 979.851562 91.4 979.851562 93.4 
L 979.851562 121.75625 
Q 979.851562 123.75625 981.851562 123.75625 
z
" style="fill:#ffffff;opacity:0.8;stroke:#cccccc;stroke-linejoin:miter;"/>
    </g>
    <g id="line2d_17">
     <path d="M 983.851562 99.498438 
L 1003.851562 99.498438 
" style="fill:none;stroke:#1f77b4;stroke-linecap:square;stroke-width:1.5;"/>
    </g>
    <g id="line2d_18"/>
    <g id="text_15">
     <!-- vxr -->
     <g transform="translate(1011.851562 102.998438)scale(0.1 -0.1)">
      <defs>
       <path d="M 2.984375 54.6875 
L 12.5 54.6875 
L 29.59375 8.796875 
L 46.6875 54.6875 
L 56.203125 54.6875 
L 35.6875 0 
L 23.484375 0 
z
" id="DejaVuSans-118"/>
       <path d="M 54.890625 54.6875 
L 35.109375 28.078125 
L 55.90625 0 
L 45.3125 0 
L 29.390625 21.484375 
L 13.484375 0 
L 2.875 0 
L 24.125 28.609375 
L 4.6875 54.6875 
L 15.28125 54.6875 
L 29.78125 35.203125 
L 44.28125 54.6875 
z
" id="DejaVuSans-120"/>
       <path d="M 41.109375 46.296875 
Q 39.59375 47.171875 37.8125 47.578125 
Q 36.03125 48 33.890625 48 
Q 26.265625 48 22.1875 43.046875 
Q 18.109375 38.09375 18.109375 28.8125 
L 18.109375 0 
L 9.078125 0 
L 9.078125 54.6875 
L 18.109375 54.6875 
L 18.109375 46.1875 
Q 20.953125 51.171875 25.484375 53.578125 
Q 30.03125 56 36.53125 56 
Q 37.453125 56 38.578125 55.875 
Q 39.703125 55.765625 41.0625 55.515625 
z
" id="DejaVuSans-114"/>
      </defs>
      <use xlink:href="#DejaVuSans-118"/>
      <use x="59.179688" xlink:href="#DejaVuSans-120"/>
      <use x="118.359375" xlink:href="#DejaVuSans-114"/>
     </g>
    </g>
    <g id="line2d_19">
     <path d="M 983.851562 114.176563 
L 1003.851562 114.176563 
" style="fill:none;stroke:#ff7f0e;stroke-linecap:square;stroke-width:1.5;"/>
    </g>
    <g id="line2d_20"/>
    <g id="text_16">
     <!-- vx -->
     <g transform="translate(1011.851562 117.676563)scale(0.1 -0.1)">
      <use xlink:href="#DejaVuSans-118"/>
      <use x="59.179688" xlink:href="#DejaVuSans-120"/>
     </g>
    </g>
   </g>
  </g>
  <g id="axes_2">
   <g id="patch_8">
    <path d="M 144 445.129412 
L 1036.8 445.129412 
L 1036.8 282.070588 
L 144 282.070588 
z
" style="fill:#ffffff;"/>
   </g>
   <g id="matplotlib.axis_3">
    <g id="xtick_8">
     <g id="line2d_21">
      <g>
       <use style="stroke:#000000;stroke-width:0.8;" x="184.581818" xlink:href="#m61edb1b1bc" y="445.129412"/>
      </g>
     </g>
     <g id="text_17">
      <!-- 0 -->
      <g transform="translate(181.400568 459.727849)scale(0.1 -0.1)">
       <use xlink:href="#DejaVuSans-48"/>
      </g>
     </g>
    </g>
    <g id="xtick_9">
     <g id="line2d_22">
      <g>
       <use style="stroke:#000000;stroke-width:0.8;" x="319.944787" xlink:href="#m61edb1b1bc" y="445.129412"/>
      </g>
     </g>
     <g id="text_18">
      <!-- 5 -->
      <g transform="translate(316.763537 459.727849)scale(0.1 -0.1)">
       <use xlink:href="#DejaVuSans-53"/>
      </g>
     </g>
    </g>
    <g id="xtick_10">
     <g id="line2d_23">
      <g>
       <use style="stroke:#000000;stroke-width:0.8;" x="455.307757" xlink:href="#m61edb1b1bc" y="445.129412"/>
      </g>
     </g>
     <g id="text_19">
      <!-- 10 -->
      <g transform="translate(448.945257 459.727849)scale(0.1 -0.1)">
       <use xlink:href="#DejaVuSans-49"/>
       <use x="63.623047" xlink:href="#DejaVuSans-48"/>
      </g>
     </g>
    </g>
    <g id="xtick_11">
     <g id="line2d_24">
      <g>
       <use style="stroke:#000000;stroke-width:0.8;" x="590.670726" xlink:href="#m61edb1b1bc" y="445.129412"/>
      </g>
     </g>
     <g id="text_20">
      <!-- 15 -->
      <g transform="translate(584.308226 459.727849)scale(0.1 -0.1)">
       <use xlink:href="#DejaVuSans-49"/>
       <use x="63.623047" xlink:href="#DejaVuSans-53"/>
      </g>
     </g>
    </g>
    <g id="xtick_12">
     <g id="line2d_25">
      <g>
       <use style="stroke:#000000;stroke-width:0.8;" x="726.033695" xlink:href="#m61edb1b1bc" y="445.129412"/>
      </g>
     </g>
     <g id="text_21">
      <!-- 20 -->
      <g transform="translate(719.671195 459.727849)scale(0.1 -0.1)">
       <use xlink:href="#DejaVuSans-50"/>
       <use x="63.623047" xlink:href="#DejaVuSans-48"/>
      </g>
     </g>
    </g>
    <g id="xtick_13">
     <g id="line2d_26">
      <g>
       <use style="stroke:#000000;stroke-width:0.8;" x="861.396664" xlink:href="#m61edb1b1bc" y="445.129412"/>
      </g>
     </g>
     <g id="text_22">
      <!-- 25 -->
      <g transform="translate(855.034164 459.727849)scale(0.1 -0.1)">
       <use xlink:href="#DejaVuSans-50"/>
       <use x="63.623047" xlink:href="#DejaVuSans-53"/>
      </g>
     </g>
    </g>
    <g id="xtick_14">
     <g id="line2d_27">
      <g>
       <use style="stroke:#000000;stroke-width:0.8;" x="996.759634" xlink:href="#m61edb1b1bc" y="445.129412"/>
      </g>
     </g>
     <g id="text_23">
      <!-- 30 -->
      <g transform="translate(990.397134 459.727849)scale(0.1 -0.1)">
       <use xlink:href="#DejaVuSans-51"/>
       <use x="63.623047" xlink:href="#DejaVuSans-48"/>
      </g>
     </g>
    </g>
   </g>
   <g id="matplotlib.axis_4">
    <g id="ytick_8">
     <g id="line2d_28">
      <g>
       <use style="stroke:#000000;stroke-width:0.8;" x="144" xlink:href="#mb9f96b963c" y="429.111179"/>
      </g>
     </g>
     <g id="text_24">
      <!-- −1.0 -->
      <g transform="translate(112.717187 432.910398)scale(0.1 -0.1)">
       <defs>
        <path d="M 10.59375 35.5 
L 73.1875 35.5 
L 73.1875 27.203125 
L 10.59375 27.203125 
z
" id="DejaVuSans-8722"/>
       </defs>
       <use xlink:href="#DejaVuSans-8722"/>
       <use x="83.789062" xlink:href="#DejaVuSans-49"/>
       <use x="147.412109" xlink:href="#DejaVuSans-46"/>
       <use x="179.199219" xlink:href="#DejaVuSans-48"/>
      </g>
     </g>
    </g>
    <g id="ytick_9">
     <g id="line2d_29">
      <g>
       <use style="stroke:#000000;stroke-width:0.8;" x="144" xlink:href="#mb9f96b963c" y="401.185414"/>
      </g>
     </g>
     <g id="text_25">
      <!-- −0.8 -->
      <g transform="translate(112.717187 404.984633)scale(0.1 -0.1)">
       <defs>
        <path d="M 31.78125 34.625 
Q 24.75 34.625 20.71875 30.859375 
Q 16.703125 27.09375 16.703125 20.515625 
Q 16.703125 13.921875 20.71875 10.15625 
Q 24.75 6.390625 31.78125 6.390625 
Q 38.8125 6.390625 42.859375 10.171875 
Q 46.921875 13.96875 46.921875 20.515625 
Q 46.921875 27.09375 42.890625 30.859375 
Q 38.875 34.625 31.78125 34.625 
z
M 21.921875 38.8125 
Q 15.578125 40.375 12.03125 44.71875 
Q 8.5 49.078125 8.5 55.328125 
Q 8.5 64.0625 14.71875 69.140625 
Q 20.953125 74.21875 31.78125 74.21875 
Q 42.671875 74.21875 48.875 69.140625 
Q 55.078125 64.0625 55.078125 55.328125 
Q 55.078125 49.078125 51.53125 44.71875 
Q 48 40.375 41.703125 38.8125 
Q 48.828125 37.15625 52.796875 32.3125 
Q 56.78125 27.484375 56.78125 20.515625 
Q 56.78125 9.90625 50.3125 4.234375 
Q 43.84375 -1.421875 31.78125 -1.421875 
Q 19.734375 -1.421875 13.25 4.234375 
Q 6.78125 9.90625 6.78125 20.515625 
Q 6.78125 27.484375 10.78125 32.3125 
Q 14.796875 37.15625 21.921875 38.8125 
z
M 18.3125 54.390625 
Q 18.3125 48.734375 21.84375 45.5625 
Q 25.390625 42.390625 31.78125 42.390625 
Q 38.140625 42.390625 41.71875 45.5625 
Q 45.3125 48.734375 45.3125 54.390625 
Q 45.3125 60.0625 41.71875 63.234375 
Q 38.140625 66.40625 31.78125 66.40625 
Q 25.390625 66.40625 21.84375 63.234375 
Q 18.3125 60.0625 18.3125 54.390625 
z
" id="DejaVuSans-56"/>
       </defs>
       <use xlink:href="#DejaVuSans-8722"/>
       <use x="83.789062" xlink:href="#DejaVuSans-48"/>
       <use x="147.412109" xlink:href="#DejaVuSans-46"/>
       <use x="179.199219" xlink:href="#DejaVuSans-56"/>
      </g>
     </g>
    </g>
    <g id="ytick_10">
     <g id="line2d_30">
      <g>
       <use style="stroke:#000000;stroke-width:0.8;" x="144" xlink:href="#mb9f96b963c" y="373.259649"/>
      </g>
     </g>
     <g id="text_26">
      <!-- −0.6 -->
      <g transform="translate(112.717187 377.058867)scale(0.1 -0.1)">
       <use xlink:href="#DejaVuSans-8722"/>
       <use x="83.789062" xlink:href="#DejaVuSans-48"/>
       <use x="147.412109" xlink:href="#DejaVuSans-46"/>
       <use x="179.199219" xlink:href="#DejaVuSans-54"/>
      </g>
     </g>
    </g>
    <g id="ytick_11">
     <g id="line2d_31">
      <g>
       <use style="stroke:#000000;stroke-width:0.8;" x="144" xlink:href="#mb9f96b963c" y="345.333883"/>
      </g>
     </g>
     <g id="text_27">
      <!-- −0.4 -->
      <g transform="translate(112.717187 349.133102)scale(0.1 -0.1)">
       <use xlink:href="#DejaVuSans-8722"/>
       <use x="83.789062" xlink:href="#DejaVuSans-48"/>
       <use x="147.412109" xlink:href="#DejaVuSans-46"/>
       <use x="179.199219" xlink:href="#DejaVuSans-52"/>
      </g>
     </g>
    </g>
    <g id="ytick_12">
     <g id="line2d_32">
      <g>
       <use style="stroke:#000000;stroke-width:0.8;" x="144" xlink:href="#mb9f96b963c" y="317.408118"/>
      </g>
     </g>
     <g id="text_28">
      <!-- −0.2 -->
      <g transform="translate(112.717187 321.207337)scale(0.1 -0.1)">
       <use xlink:href="#DejaVuSans-8722"/>
       <use x="83.789062" xlink:href="#DejaVuSans-48"/>
       <use x="147.412109" xlink:href="#DejaVuSans-46"/>
       <use x="179.199219" xlink:href="#DejaVuSans-50"/>
      </g>
     </g>
    </g>
    <g id="ytick_13">
     <g id="line2d_33">
      <g>
       <use style="stroke:#000000;stroke-width:0.8;" x="144" xlink:href="#mb9f96b963c" y="289.482353"/>
      </g>
     </g>
     <g id="text_29">
      <!-- 0.0 -->
      <g transform="translate(121.096875 293.281572)scale(0.1 -0.1)">
       <use xlink:href="#DejaVuSans-48"/>
       <use x="63.623047" xlink:href="#DejaVuSans-46"/>
       <use x="95.410156" xlink:href="#DejaVuSans-48"/>
      </g>
     </g>
    </g>
   </g>
   <g id="line2d_34">
    <path clip-path="url(#p35e16f0966)" d="M 184.581818 289.482353 
L 996.218182 289.482353 
L 996.218182 289.482353 
" style="fill:none;stroke:#1f77b4;stroke-linecap:square;stroke-width:1.5;"/>
   </g>
   <g id="line2d_35">
    <path clip-path="url(#p35e16f0966)" d="M 184.581818 289.482353 
L 347.017381 289.482353 
L 347.558833 290.441067 
L 348.100285 295.496546 
L 348.641737 305.26797 
L 349.724641 334.577228 
L 351.348996 384.50226 
L 352.4319 410.277247 
L 352.973352 419.860717 
L 353.514804 427.191323 
L 354.056256 432.359643 
L 354.597708 435.537504 
L 355.139159 436.958536 
L 355.680611 436.890353 
L 356.222063 435.61451 
L 356.763515 433.409431 
L 357.846419 427.247904 
L 360.012226 413.656642 
L 361.09513 408.288372 
L 362.178034 404.328445 
L 363.260938 401.585133 
L 364.343841 399.663461 
L 366.509649 396.714254 
L 368.134004 394.329732 
L 369.75836 391.523312 
L 372.46562 386.231409 
L 377.338686 376.596132 
L 381.12885 369.644303 
L 384.919013 363.177895 
L 388.709176 357.173968 
L 392.499339 351.614528 
L 396.289502 346.476879 
L 400.079665 341.736278 
L 403.869828 337.367888 
L 407.659992 333.347344 
L 411.450155 329.650924 
L 415.240318 326.25568 
L 419.030481 323.139566 
L 422.820644 320.281565 
L 427.152259 317.305855 
L 431.483874 314.613481 
L 435.815489 312.178646 
L 440.147104 309.977571 
L 445.020171 307.753675 
L 449.893238 305.769791 
L 455.307757 303.816066 
L 460.722275 302.096005 
L 466.678246 300.440862 
L 473.175669 298.881578 
L 480.214543 297.441468 
L 487.794869 296.136191 
L 495.916647 294.974179 
L 504.579877 293.95743 
L 509.452944 293.470621 
L 509.994396 294.377113 
L 510.535848 299.263479 
L 511.0773 308.907509 
L 512.160204 338.037193 
L 513.784559 387.285098 
L 514.867463 412.423537 
L 515.408915 421.686728 
L 515.950367 428.711303 
L 516.491819 433.596423 
L 517.033271 436.519514 
L 517.574723 437.717647 
L 518.116174 437.459814 
L 518.657626 436.027494 
L 519.199078 433.697927 
L 520.281982 427.374604 
L 522.447789 413.715625 
L 523.530693 408.378647 
L 524.613597 404.454696 
L 525.696501 401.733603 
L 526.779404 399.813169 
L 531.652471 392.508207 
L 533.818279 388.344463 
L 540.315701 375.428776 
L 544.105865 368.533335 
L 547.896028 362.132112 
L 551.686191 356.198827 
L 555.476354 350.71094 
L 559.266517 345.642805 
L 563.05668 340.968249 
L 566.846843 336.661837 
L 570.637006 332.69903 
L 574.42717 329.056149 
L 578.217333 325.710395 
L 582.007496 322.639927 
L 585.797659 319.823952 
L 590.129274 316.89214 
L 594.460889 314.239589 
L 598.792504 311.840842 
L 603.665571 309.416493 
L 608.538638 307.253247 
L 613.411705 305.32355 
L 618.826224 303.423251 
L 624.240742 301.750269 
L 630.196713 300.140457 
L 636.694135 298.623899 
L 643.73301 297.223263 
L 651.313336 295.95377 
L 659.435114 294.823618 
L 668.639796 293.779407 
L 671.888507 293.461838 
L 672.429959 294.36929 
L 672.971411 299.255925 
L 673.512863 308.898157 
L 674.595767 338.01974 
L 676.220123 387.249781 
L 677.303026 412.373049 
L 677.844478 421.628656 
L 678.38593 428.646237 
L 678.927382 433.525382 
L 679.468834 436.443839 
L 680.010286 437.638868 
L 680.551738 437.379528 
L 681.093189 435.947254 
L 681.634641 433.619158 
L 682.717545 427.302234 
L 684.883353 413.662159 
L 685.966256 408.333215 
L 687.04916 404.414359 
L 688.132064 401.69521 
L 689.214968 399.774256 
L 694.088034 392.461833 
L 696.253842 388.298507 
L 702.751264 375.388625 
L 706.541428 368.496227 
L 710.331591 362.09785 
L 714.121754 356.167253 
L 717.911917 350.681872 
L 721.70208 345.616066 
L 725.492243 340.943671 
L 729.282406 336.639264 
L 733.07257 332.678313 
L 736.862733 329.037149 
L 740.652896 325.692981 
L 744.443059 322.623974 
L 748.233222 319.809343 
L 752.564837 316.878934 
L 756.896452 314.227657 
L 761.228067 311.830063 
L 766.101134 309.406881 
L 770.974201 307.244677 
L 775.847268 305.315911 
L 781.261787 303.416529 
L 786.676305 301.744354 
L 792.632276 300.135318 
L 799.129699 298.619492 
L 806.168573 297.219532 
L 813.748899 295.950651 
L 821.870677 294.821044 
L 831.075359 293.777337 
L 834.324071 293.45992 
L 834.865522 294.367395 
L 835.406974 299.254108 
L 835.948426 308.896407 
L 837.03133 338.018118 
L 838.655686 387.248586 
L 839.738589 412.37223 
L 840.280041 421.62802 
L 840.821493 428.645771 
L 841.362945 433.525067 
L 841.904397 436.443654 
L 842.445849 437.638788 
L 842.987301 437.379529 
L 843.528753 435.947314 
L 844.070204 433.619258 
L 845.153108 427.30236 
L 847.318916 413.662215 
L 848.401819 408.333224 
L 849.484723 404.414337 
L 850.567627 401.695181 
L 851.650531 399.774241 
L 856.523598 392.461956 
L 858.689405 388.298666 
L 865.186828 375.388821 
L 868.976991 368.496425 
L 872.767154 362.098045 
L 876.557317 356.167438 
L 880.34748 350.682046 
L 884.137643 345.616228 
L 887.927806 340.943822 
L 891.71797 336.639403 
L 895.508133 332.678442 
L 899.298296 329.037268 
L 903.088459 325.69309 
L 906.878622 322.624074 
L 910.668785 319.809434 
L 915.0004 316.879017 
L 919.332015 314.227732 
L 923.66363 311.830131 
L 928.536697 309.406942 
L 933.409764 307.244731 
L 938.282831 305.315959 
L 943.69735 303.416571 
L 949.111869 301.744391 
L 955.067839 300.135351 
L 961.565262 298.61952 
L 968.604136 297.219556 
L 976.184462 295.950671 
L 984.306241 294.82106 
L 993.510922 293.77735 
L 996.218182 293.563043 
L 996.218182 293.563043 
" style="fill:none;stroke:#ff7f0e;stroke-linecap:square;stroke-width:1.5;"/>
   </g>
   <g id="patch_9">
    <path d="M 144 445.129412 
L 144 282.070588 
" style="fill:none;stroke:#000000;stroke-linecap:square;stroke-linejoin:miter;stroke-width:0.8;"/>
   </g>
   <g id="patch_10">
    <path d="M 1036.8 445.129412 
L 1036.8 282.070588 
" style="fill:none;stroke:#000000;stroke-linecap:square;stroke-linejoin:miter;stroke-width:0.8;"/>
   </g>
   <g id="patch_11">
    <path d="M 144 445.129412 
L 1036.8 445.129412 
" style="fill:none;stroke:#000000;stroke-linecap:square;stroke-linejoin:miter;stroke-width:0.8;"/>
   </g>
   <g id="patch_12">
    <path d="M 144 282.070588 
L 1036.8 282.070588 
" style="fill:none;stroke:#000000;stroke-linecap:square;stroke-linejoin:miter;stroke-width:0.8;"/>
   </g>
   <g id="legend_2">
    <g id="patch_13">
     <path d="M 151 440.129412 
L 198.948438 440.129412 
Q 200.948438 440.129412 200.948438 438.129412 
L 200.948438 409.773162 
Q 200.948438 407.773162 198.948438 407.773162 
L 151 407.773162 
Q 149 407.773162 149 409.773162 
L 149 438.129412 
Q 149 440.129412 151 440.129412 
z
" style="fill:#ffffff;opacity:0.8;stroke:#cccccc;stroke-linejoin:miter;"/>
    </g>
    <g id="line2d_36">
     <path d="M 153 415.871599 
L 173 415.871599 
" style="fill:none;stroke:#1f77b4;stroke-linecap:square;stroke-width:1.5;"/>
    </g>
    <g id="line2d_37"/>
    <g id="text_30">
     <!-- vyr -->
     <g transform="translate(181 419.371599)scale(0.1 -0.1)">
      <defs>
       <path d="M 32.171875 -5.078125 
Q 28.375 -14.84375 24.75 -17.8125 
Q 21.140625 -20.796875 15.09375 -20.796875 
L 7.90625 -20.796875 
L 7.90625 -13.28125 
L 13.1875 -13.28125 
Q 16.890625 -13.28125 18.9375 -11.515625 
Q 21 -9.765625 23.484375 -3.21875 
L 25.09375 0.875 
L 2.984375 54.6875 
L 12.5 54.6875 
L 29.59375 11.921875 
L 46.6875 54.6875 
L 56.203125 54.6875 
z
" id="DejaVuSans-121"/>
      </defs>
      <use xlink:href="#DejaVuSans-118"/>
      <use x="59.179688" xlink:href="#DejaVuSans-121"/>
      <use x="118.359375" xlink:href="#DejaVuSans-114"/>
     </g>
    </g>
    <g id="line2d_38">
     <path d="M 153 430.549724 
L 173 430.549724 
" style="fill:none;stroke:#ff7f0e;stroke-linecap:square;stroke-width:1.5;"/>
    </g>
    <g id="line2d_39"/>
    <g id="text_31">
     <!-- vy -->
     <g transform="translate(181 434.049724)scale(0.1 -0.1)">
      <use xlink:href="#DejaVuSans-118"/>
      <use x="59.179688" xlink:href="#DejaVuSans-121"/>
     </g>
    </g>
   </g>
  </g>
  <g id="axes_3">
   <g id="patch_14">
    <path d="M 144 640.8 
L 1036.8 640.8 
L 1036.8 477.741176 
L 144 477.741176 
z
" style="fill:#ffffff;"/>
   </g>
   <g id="matplotlib.axis_5">
    <g id="xtick_15">
     <g id="line2d_40">
      <g>
       <use style="stroke:#000000;stroke-width:0.8;" x="184.581818" xlink:href="#m61edb1b1bc" y="640.8"/>
      </g>
     </g>
     <g id="text_32">
      <!-- 0 -->
      <g transform="translate(181.400568 655.398438)scale(0.1 -0.1)">
       <use xlink:href="#DejaVuSans-48"/>
      </g>
     </g>
    </g>
    <g id="xtick_16">
     <g id="line2d_41">
      <g>
       <use style="stroke:#000000;stroke-width:0.8;" x="319.944787" xlink:href="#m61edb1b1bc" y="640.8"/>
      </g>
     </g>
     <g id="text_33">
      <!-- 5 -->
      <g transform="translate(316.763537 655.398438)scale(0.1 -0.1)">
       <use xlink:href="#DejaVuSans-53"/>
      </g>
     </g>
    </g>
    <g id="xtick_17">
     <g id="line2d_42">
      <g>
       <use style="stroke:#000000;stroke-width:0.8;" x="455.307757" xlink:href="#m61edb1b1bc" y="640.8"/>
      </g>
     </g>
     <g id="text_34">
      <!-- 10 -->
      <g transform="translate(448.945257 655.398438)scale(0.1 -0.1)">
       <use xlink:href="#DejaVuSans-49"/>
       <use x="63.623047" xlink:href="#DejaVuSans-48"/>
      </g>
     </g>
    </g>
    <g id="xtick_18">
     <g id="line2d_43">
      <g>
       <use style="stroke:#000000;stroke-width:0.8;" x="590.670726" xlink:href="#m61edb1b1bc" y="640.8"/>
      </g>
     </g>
     <g id="text_35">
      <!-- 15 -->
      <g transform="translate(584.308226 655.398438)scale(0.1 -0.1)">
       <use xlink:href="#DejaVuSans-49"/>
       <use x="63.623047" xlink:href="#DejaVuSans-53"/>
      </g>
     </g>
    </g>
    <g id="xtick_19">
     <g id="line2d_44">
      <g>
       <use style="stroke:#000000;stroke-width:0.8;" x="726.033695" xlink:href="#m61edb1b1bc" y="640.8"/>
      </g>
     </g>
     <g id="text_36">
      <!-- 20 -->
      <g transform="translate(719.671195 655.398438)scale(0.1 -0.1)">
       <use xlink:href="#DejaVuSans-50"/>
       <use x="63.623047" xlink:href="#DejaVuSans-48"/>
      </g>
     </g>
    </g>
    <g id="xtick_20">
     <g id="line2d_45">
      <g>
       <use style="stroke:#000000;stroke-width:0.8;" x="861.396664" xlink:href="#m61edb1b1bc" y="640.8"/>
      </g>
     </g>
     <g id="text_37">
      <!-- 25 -->
      <g transform="translate(855.034164 655.398438)scale(0.1 -0.1)">
       <use xlink:href="#DejaVuSans-50"/>
       <use x="63.623047" xlink:href="#DejaVuSans-53"/>
      </g>
     </g>
    </g>
    <g id="xtick_21">
     <g id="line2d_46">
      <g>
       <use style="stroke:#000000;stroke-width:0.8;" x="996.759634" xlink:href="#m61edb1b1bc" y="640.8"/>
      </g>
     </g>
     <g id="text_38">
      <!-- 30 -->
      <g transform="translate(990.397134 655.398438)scale(0.1 -0.1)">
       <use xlink:href="#DejaVuSans-51"/>
       <use x="63.623047" xlink:href="#DejaVuSans-48"/>
      </g>
     </g>
    </g>
   </g>
   <g id="matplotlib.axis_6">
    <g id="ytick_14">
     <g id="line2d_47">
      <g>
       <use style="stroke:#000000;stroke-width:0.8;" x="144" xlink:href="#mb9f96b963c" y="626.184084"/>
      </g>
     </g>
     <g id="text_39">
      <!-- −2.0 -->
      <g transform="translate(112.717187 629.983303)scale(0.1 -0.1)">
       <use xlink:href="#DejaVuSans-8722"/>
       <use x="83.789062" xlink:href="#DejaVuSans-50"/>
       <use x="147.412109" xlink:href="#DejaVuSans-46"/>
       <use x="179.199219" xlink:href="#DejaVuSans-48"/>
      </g>
     </g>
    </g>
    <g id="ytick_15">
     <g id="line2d_48">
      <g>
       <use style="stroke:#000000;stroke-width:0.8;" x="144" xlink:href="#mb9f96b963c" y="595.868844"/>
      </g>
     </g>
     <g id="text_40">
      <!-- −1.5 -->
      <g transform="translate(112.717187 599.668063)scale(0.1 -0.1)">
       <use xlink:href="#DejaVuSans-8722"/>
       <use x="83.789062" xlink:href="#DejaVuSans-49"/>
       <use x="147.412109" xlink:href="#DejaVuSans-46"/>
       <use x="179.199219" xlink:href="#DejaVuSans-53"/>
      </g>
     </g>
    </g>
    <g id="ytick_16">
     <g id="line2d_49">
      <g>
       <use style="stroke:#000000;stroke-width:0.8;" x="144" xlink:href="#mb9f96b963c" y="565.553604"/>
      </g>
     </g>
     <g id="text_41">
      <!-- −1.0 -->
      <g transform="translate(112.717187 569.352823)scale(0.1 -0.1)">
       <use xlink:href="#DejaVuSans-8722"/>
       <use x="83.789062" xlink:href="#DejaVuSans-49"/>
       <use x="147.412109" xlink:href="#DejaVuSans-46"/>
       <use x="179.199219" xlink:href="#DejaVuSans-48"/>
      </g>
     </g>
    </g>
    <g id="ytick_17">
     <g id="line2d_50">
      <g>
       <use style="stroke:#000000;stroke-width:0.8;" x="144" xlink:href="#mb9f96b963c" y="535.238365"/>
      </g>
     </g>
     <g id="text_42">
      <!-- −0.5 -->
      <g transform="translate(112.717187 539.037583)scale(0.1 -0.1)">
       <use xlink:href="#DejaVuSans-8722"/>
       <use x="83.789062" xlink:href="#DejaVuSans-48"/>
       <use x="147.412109" xlink:href="#DejaVuSans-46"/>
       <use x="179.199219" xlink:href="#DejaVuSans-53"/>
      </g>
     </g>
    </g>
    <g id="ytick_18">
     <g id="line2d_51">
      <g>
       <use style="stroke:#000000;stroke-width:0.8;" x="144" xlink:href="#mb9f96b963c" y="504.923125"/>
      </g>
     </g>
     <g id="text_43">
      <!-- 0.0 -->
      <g transform="translate(121.096875 508.722344)scale(0.1 -0.1)">
       <use xlink:href="#DejaVuSans-48"/>
       <use x="63.623047" xlink:href="#DejaVuSans-46"/>
       <use x="95.410156" xlink:href="#DejaVuSans-48"/>
      </g>
     </g>
    </g>
   </g>
   <g id="line2d_52">
    <path clip-path="url(#pd33d669b28)" d="M 184.581818 504.923125 
L 996.218182 504.923125 
L 996.218182 504.923125 
" style="fill:none;stroke:#1f77b4;stroke-linecap:square;stroke-width:1.5;"/>
   </g>
   <g id="line2d_53">
    <path clip-path="url(#pd33d669b28)" d="M 184.581818 504.923125 
L 186.206174 633.388235 
L 186.747626 622.86599 
L 187.289078 619.29832 
L 189.454885 610.303604 
L 192.162144 600.11976 
L 194.869404 590.920592 
L 197.576663 582.610791 
L 200.283923 575.104294 
L 202.991182 568.32338 
L 205.698441 562.197862 
L 208.405701 556.664351 
L 211.11296 551.665599 
L 213.82022 547.149899 
L 216.527479 543.070548 
L 219.234738 539.385365 
L 221.941998 536.056247 
L 224.649257 533.048781 
L 227.356516 530.331879 
L 230.605228 527.415798 
L 233.853939 524.834424 
L 237.10265 522.549332 
L 240.351362 520.526508 
L 244.141525 518.458055 
L 247.931688 516.663824 
L 251.721851 515.107455 
L 256.053466 513.579749 
L 260.385081 512.281216 
L 265.258148 511.051698 
L 270.672667 509.924983 
L 276.628637 508.92332 
L 283.12606 508.057917 
L 290.706386 507.281926 
L 299.369616 506.627359 
L 309.657202 506.081635 
L 322.110595 505.649199 
L 338.354151 505.317858 
L 347.017381 505.208321 
L 347.558833 550.848024 
L 348.100285 583.436455 
L 348.641737 593.233858 
L 349.183189 593.664193 
L 349.724641 587.419985 
L 350.807544 570.848308 
L 352.973352 533.224458 
L 354.056256 515.271045 
L 355.139159 500.956368 
L 355.680611 495.545419 
L 356.222063 491.346484 
L 356.763515 488.317119 
L 357.304967 486.370272 
L 357.846419 485.38413 
L 358.387871 485.214869 
L 358.929323 485.706422 
L 359.470774 486.699484 
L 360.553678 489.579608 
L 362.178034 494.238777 
L 363.260938 496.620293 
L 364.343841 498.168368 
L 364.885293 498.65617 
L 365.968197 499.195884 
L 367.051101 499.360998 
L 371.924168 499.567208 
L 375.172879 500.23192 
L 380.587398 501.340996 
L 386.001916 502.20089 
L 391.957887 502.930282 
L 398.996761 503.562143 
L 407.11854 504.06118 
L 417.406125 504.453605 
L 430.942422 504.725439 
L 450.976142 504.881365 
L 492.667936 504.931267 
L 509.452944 504.935757 
L 509.994396 550.57749 
L 510.535848 582.594125 
L 511.0773 592.562604 
L 511.618752 592.760658 
L 512.160204 586.490776 
L 513.243108 569.720854 
L 517.033271 506.66102 
L 518.116174 494.916044 
L 518.657626 490.852697 
L 519.199078 487.95164 
L 519.74053 486.121419 
L 520.281982 485.237089 
L 520.823434 485.152941 
L 521.364886 485.712079 
L 521.906338 486.755255 
L 522.989241 489.687048 
L 524.613597 494.331956 
L 525.696501 496.67303 
L 526.779404 498.177967 
L 527.320856 498.646989 
L 528.40376 499.158085 
L 529.486664 499.306788 
L 533.818279 499.434263 
L 536.525538 499.944808 
L 543.022961 501.303821 
L 548.43748 502.169558 
L 554.39345 502.904698 
L 561.432325 503.542131 
L 569.554103 504.04618 
L 579.841688 504.443246 
L 593.377985 504.719111 
L 613.411705 504.878336 
L 654.562047 504.930593 
L 671.888507 504.93724 
L 672.429959 550.579095 
L 672.971411 582.550129 
L 673.512863 592.523079 
L 674.054315 592.707979 
L 674.595767 586.441183 
L 675.678671 569.669537 
L 679.468834 506.644063 
L 680.551738 494.916833 
L 681.093189 490.861318 
L 681.634641 487.966928 
L 682.176093 486.141974 
L 682.717545 485.26139 
L 683.258997 485.179439 
L 683.800449 485.739285 
L 684.341901 486.781809 
L 685.424804 489.709071 
L 687.04916 494.34334 
L 688.132064 496.677981 
L 689.214968 498.178587 
L 689.756419 498.646327 
L 690.839323 499.156377 
L 691.922227 499.305457 
L 696.253842 499.436705 
L 698.961101 499.947522 
L 705.458524 501.305598 
L 710.873043 502.170869 
L 716.829013 502.905602 
L 723.867888 503.54268 
L 731.989666 504.046456 
L 742.277252 504.443325 
L 755.813548 504.719077 
L 775.847268 504.87827 
L 816.997611 504.930562 
L 834.324071 504.937212 
L 834.865522 550.579067 
L 835.406974 582.550519 
L 835.948426 592.523448 
L 836.489878 592.708535 
L 837.03133 586.441758 
L 838.114234 569.670202 
L 841.904397 506.644385 
L 842.987301 494.916952 
L 843.528753 490.861345 
L 844.070204 487.966874 
L 844.611656 486.141852 
L 845.153108 485.261215 
L 845.69456 485.179227 
L 846.236012 485.739048 
L 846.777464 486.781561 
L 847.860368 489.708837 
L 849.484723 494.343175 
L 850.567627 496.677867 
L 851.650531 498.178515 
L 852.191983 498.646269 
L 853.274886 499.156337 
L 854.35779 499.305424 
L 858.689405 499.43666 
L 861.396664 499.947477 
L 867.894087 501.305564 
L 873.308606 502.170842 
L 879.264576 502.905581 
L 886.303451 503.542664 
L 894.425229 504.046445 
L 904.712815 504.443317 
L 918.249112 504.719073 
L 938.282831 504.878268 
L 979.433174 504.930562 
L 996.218182 504.92992 
L 996.218182 504.92992 
" style="fill:none;stroke:#ff7f0e;stroke-linecap:square;stroke-width:1.5;"/>
   </g>
   <g id="patch_15">
    <path d="M 144 640.8 
L 144 477.741176 
" style="fill:none;stroke:#000000;stroke-linecap:square;stroke-linejoin:miter;stroke-width:0.8;"/>
   </g>
   <g id="patch_16">
    <path d="M 1036.8 640.8 
L 1036.8 477.741176 
" style="fill:none;stroke:#000000;stroke-linecap:square;stroke-linejoin:miter;stroke-width:0.8;"/>
   </g>
   <g id="patch_17">
    <path d="M 144 640.8 
L 1036.8 640.8 
" style="fill:none;stroke:#000000;stroke-linecap:square;stroke-linejoin:miter;stroke-width:0.8;"/>
   </g>
   <g id="patch_18">
    <path d="M 144 477.741176 
L 1036.8 477.741176 
" style="fill:none;stroke:#000000;stroke-linecap:square;stroke-linejoin:miter;stroke-width:0.8;"/>
   </g>
   <g id="legend_3">
    <g id="patch_19">
     <path d="M 982.521875 635.8 
L 1029.8 635.8 
Q 1031.8 635.8 1031.8 633.8 
L 1031.8 605.44375 
Q 1031.8 603.44375 1029.8 603.44375 
L 982.521875 603.44375 
Q 980.521875 603.44375 980.521875 605.44375 
L 980.521875 633.8 
Q 980.521875 635.8 982.521875 635.8 
z
" style="fill:#ffffff;opacity:0.8;stroke:#cccccc;stroke-linejoin:miter;"/>
    </g>
    <g id="line2d_54">
     <path d="M 984.521875 611.542187 
L 1004.521875 611.542187 
" style="fill:none;stroke:#1f77b4;stroke-linecap:square;stroke-width:1.5;"/>
    </g>
    <g id="line2d_55"/>
    <g id="text_44">
     <!-- vzr -->
     <g transform="translate(1012.521875 615.042187)scale(0.1 -0.1)">
      <defs>
       <path d="M 5.515625 54.6875 
L 48.1875 54.6875 
L 48.1875 46.484375 
L 14.40625 7.171875 
L 48.1875 7.171875 
L 48.1875 0 
L 4.296875 0 
L 4.296875 8.203125 
L 38.09375 47.515625 
L 5.515625 47.515625 
z
" id="DejaVuSans-122"/>
      </defs>
      <use xlink:href="#DejaVuSans-118"/>
      <use x="59.179688" xlink:href="#DejaVuSans-122"/>
      <use x="111.669922" xlink:href="#DejaVuSans-114"/>
     </g>
    </g>
    <g id="line2d_56">
     <path d="M 984.521875 626.220312 
L 1004.521875 626.220312 
" style="fill:none;stroke:#ff7f0e;stroke-linecap:square;stroke-width:1.5;"/>
    </g>
    <g id="line2d_57"/>
    <g id="text_45">
     <!-- vz -->
     <g transform="translate(1012.521875 629.720312)scale(0.1 -0.1)">
      <use xlink:href="#DejaVuSans-118"/>
      <use x="59.179688" xlink:href="#DejaVuSans-122"/>
     </g>
    </g>
   </g>
  </g>
 </g>
 <defs>
  <clipPath id="p3783050711">
   <rect height="163.058824" width="892.8" x="144" y="86.4"/>
  </clipPath>
  <clipPath id="p35e16f0966">
   <rect height="163.058824" width="892.8" x="144" y="282.070588"/>
  </clipPath>
  <clipPath id="pd33d669b28">
   <rect height="163.058824" width="892.8" x="144" y="477.741176"/>
  </clipPath>
 </defs>
</svg>
